Sinistre.glyphspackage
{
glyphname = parenleft;
layers = (
{
layerId = "452AD06C-4D92-427C-8B35-838986F56274";
shapes = (
{
closed = 1;
nodes = (
(169,-19,l),
(55,246,o),
(6,502,o),
(189,840,c),
(172,851,l),
(-24,538,o),
(-15,189,o),
(112,-61,c)
);
}
);
userData = {
com.hugojourdan.ColorFlow = {
"0" = 0;
"1" = 0;
"10" = 0;
"11" = 0;
"2" = 0;
"3" = 0;
"4" = 0;
"5" = 0;
"6" = 0;
"7" = 0;
"8" = 0;
"9" = 0;
};
};
width = 219;
},
{
layerId = m004;
shapes = (
{
closed = 1;
nodes = (
(270,-29,l),
(146,226,o),
(87,572,o),
(270,840,c),
(233,862,l),
(37,589,o),
(-44,120,o),
(113,-150,c)
);
}
);
userData = {
com.hugojourdan.ColorFlow = {
"0" = 0;
"1" = 0;
"10" = 0;
"11" = 0;
"2" = 0;
"3" = 0;
"4" = 0;
"5" = 0;
"6" = 0;
"7" = 0;
"8" = 0;
"9" = 0;
};
};
width = 290;
},
{
layerId = "D54810B1-F9A5-4F35-A1FF-AED0599B2373";
shapes = (
{
closed = 1;
nodes = (
(207,-24,l),
(87,235,o),
(33,540,o),
(216,840,c),
(188,857,l),
(-8,566,o),
(-48,151,o),
(95,-110,c)
);
}
);
userData = {
com.hugojourdan.ColorFlow = {
"0" = 0;
"1" = 0;
"10" = 0;
"11" = 0;
"2" = 0;
"3" = 0;
"4" = 0;
"5" = 0;
"6" = 0;
"7" = 0;
"8" = 0;
"9" = 0;
};
};
width = 236;
}
);
unicode = 40;
}
{
glyphname = parenright;
layers = (
{
layerId = "452AD06C-4D92-427C-8B35-838986F56274";
shapes = (
{
closed = 1;
nodes = (
(37,-61,l),
(233,252,o),
(224,601,o),
(97,851,c),
(41,804,l),
(154,544,o),
(203,288,o),
(20,-50,c)
);
}
);
userData = {
com.hugojourdan.ColorFlow = {
"0" = 0;
"1" = 0;
"10" = 0;
"11" = 0;
"2" = 0;
"3" = 0;
"4" = 0;
"5" = 0;
"6" = 0;
"7" = 0;
"8" = 0;
"9" = 0;
};
};
width = 209;
},
{
layerId = m004;
shapes = (
{
closed = 1;
nodes = (
(67,-150,l),
(263,123,o),
(344,592,o),
(187,862,c),
(56,689,l),
(177,429,o),
(213,140,o),
(30,-128,c)
);
}
);
userData = {
com.hugojourdan.ColorFlow = {
"0" = 0;
"1" = 0;
"10" = 0;
"11" = 0;
"2" = 0;
"3" = 0;
"4" = 0;
"5" = 0;
"6" = 0;
"7" = 0;
"8" = 0;
"9" = 0;
};
};
width = 280;
},
{
layerId = "D54810B1-F9A5-4F35-A1FF-AED0599B2373";
shapes = (
{
closed = 1;
nodes = (
(48,-110,l),
(244,181,o),
(284,596,o),
(141,857,c),
(44,741,l),
(161,481,o),
(203,207,o),
(20,-93,c)
);
}
);
userData = {
com.hugojourdan.ColorFlow = {
"0" = 0;
"1" = 0;
"10" = 0;
"11" = 0;
"2" = 0;
"3" = 0;
"4" = 0;
"5" = 0;
"6" = 0;
"7" = 0;
"8" = 0;
"9" = 0;
};
};
width = 236;
}
);
unicode = 41;
}
{
color = 7;
glyphname = plus;
layers = (
{
layerId = "452AD06C-4D92-427C-8B35-838986F56274";
shapes = (
{
closed = 1;
nodes = (
(345,22,l),
(314,266,l),
(549,238,l),
(549,308,l),
(314,273,l),
(345,513,l),
(269,513,l),
(305,273,l),
(65,297,l),
(65,238,l),
(305,266,l),
(269,22,l)
);
}
);
userData = {
com.hugojourdan.ColorFlow = {
"0" = 0;
"1" = 0;
"10" = 0;
"11" = 0;
"2" = 0;
"3" = 0;
"4" = 0;
"5" = 0;
"6" = 0;
"7" = 0;
"8" = 0;
"9" = 0;
};
};
width = 635;
},
{
layerId = m004;
shapes = (
{
closed = 1;
nodes = (
(382,-1,l),
(352,238,l),
(582,211,l),
(582,356,l),
(352,322,l),
(383,556,l),
(231,556,l),
(266,320,l),
(32,343,l),
(32,211,l),
(266,238,l),
(231,-1,l)
);
}
);
userData = {
com.hugojourdan.ColorFlow = {
"0" = 0;
"1" = 0;
"10" = 0;
"11" = 0;
"2" = 0;
"3" = 0;
"4" = 0;
"5" = 0;
"6" = 0;
"7" = 0;
"8" = 0;
"9" = 0;
};
};
width = 614;
},
{
layerId = "D54810B1-F9A5-4F35-A1FF-AED0599B2373";
shapes = (
{
closed = 1;
nodes = (
(365,9,l),
(335,251,l),
(567,223,l),
(567,334,l),
(335,300,l),
(366,537,l),
(248,537,l),
(284,299,l),
(47,322,l),
(47,223,l),
(284,251,l),
(248,9,l)
);
}
);
userData = {
com.hugojourdan.ColorFlow = {
"0" = 0;
"1" = 0;
"10" = 0;
"11" = 0;
"2" = 0;
"3" = 0;
"4" = 0;
"5" = 0;
"6" = 0;
"7" = 0;
"8" = 0;
"9" = 0;
};
};
width = 623.51562;
}
);
unicode = 43;
}
{
glyphname = comma;
kernLeft = period;
kernRight = period;
layers = (
{
layerId = "452AD06C-4D92-427C-8B35-838986F56274";
shapes = (
{
closed = 1;
nodes = (
(44,-123,l),
(107,-91,o),
(141,-31,o),
(141,19,cs),
(141,55,o),
(124,86,o),
(87,101,c),
(80,79,o),
(68,59,o),
(43,42,c),
(80,27,o),
(97,0,o),
(97,-28,cs),
(97,-59,o),
(77,-91,o),
(40,-113,c)
);
}
);
userData = {
com.hugojourdan.ColorFlow = {
"0" = 0;
"1" = 0;
"10" = 0;
"11" = 0;
"2" = 0;
"3" = 0;
"4" = 0;
"5" = 0;
"6" = 0;
"7" = 0;
"8" = 0;
"9" = 0;
};
};
width = 221;
},
{
layerId = m004;
shapes = (
{
closed = 1;
nodes = (
(31,-143,l),
(121,-103,o),
(184,-16,o),
(184,59,cs),
(184,107,o),
(159,150,o),
(99,174,c),
(82,140,o),
(46,92,o),
(20,77,c),
(69,49,o),
(92,14,o),
(92,-22,cs),
(92,-59,o),
(68,-97,o),
(23,-130,c)
);
}
);
userData = {
com.hugojourdan.ColorFlow = {
"0" = 0;
"1" = 0;
"10" = 0;
"11" = 0;
"2" = 0;
"3" = 0;
"4" = 0;
"5" = 0;
"6" = 0;
"7" = 0;
"8" = 0;
"9" = 0;
};
};
width = 234;
},
{
layerId = "D54810B1-F9A5-4F35-A1FF-AED0599B2373";
shapes = (
{
closed = 1;
nodes = (
(27,-134,l),
(105,-98,o),
(154,-23,o),
(154,41,cs),
(154,83,o),
(133,121,o),
(84,141,c),
(71,112,o),
(46,77,o),
(20,61,c),
(64,39,o),
(84,8,o),
(84,-25,cs),
(84,-59,o),
(62,-94,o),
(21,-122,c)
);
}
);
userData = {
com.hugojourdan.ColorFlow = {
"0" = 0;
"1" = 0;
"10" = 0;
"11" = 0;
"2" = 0;
"3" = 0;
"4" = 0;
"5" = 0;
"6" = 0;
"7" = 0;
"8" = 0;
"9" = 0;
};
};
width = 217;
}
);
metricLeft = period;
metricRight = period;
unicode = 44;
}
{
glyphname = hyphen;
kernLeft = hyphen;
kernRight = hyphen;
layers = (
{
layerId = "452AD06C-4D92-427C-8B35-838986F56274";
shapes = (
{
closed = 1;
nodes = (
(420,302,l),
(420,346,l),
(41,260,l),
(42,246,l)
);
}
);
userData = {
com.hugojourdan.ColorFlow = {
"0" = 0;
"1" = 0;
"10" = 0;
"11" = 0;
"2" = 0;
"3" = 0;
"4" = 0;
"5" = 0;
"6" = 0;
"7" = 0;
"8" = 0;
"9" = 0;
};
};
width = 470;
},
{
layerId = m004;
shapes = (
{
closed = 1;
nodes = (
(420,219,l),
(428,356,l),
(46,277,l),
(46,209,l)
);
}
);
userData = {
com.hugojourdan.ColorFlow = {
"0" = 0;
"1" = 0;
"10" = 0;
"11" = 0;
"2" = 0;
"3" = 0;
"4" = 0;
"5" = 0;
"6" = 0;
"7" = 0;
"8" = 0;
"9" = 0;
};
};
width = 470;
},
{
layerId = "D54810B1-F9A5-4F35-A1FF-AED0599B2373";
shapes = (
{
closed = 1;
nodes = (
(420,263,l),
(420,366,l),
(40,243,l),
(42,213,l)
);
}
);
userData = {
com.hugojourdan.ColorFlow = {
"0" = 0;
"1" = 0;
"10" = 0;
"11" = 0;
"2" = 0;
"3" = 0;
"4" = 0;
"5" = 0;
"6" = 0;
"7" = 0;
"8" = 0;
"9" = 0;
};
};
width = 470;
}
);
unicode = 45;
}
{
glyphname = slash;
layers = (
{
layerId = "452AD06C-4D92-427C-8B35-838986F56274";
shapes = (
{
closed = 1;
nodes = (
(434,800,l),
(357,800,l),
(10,-62,l),
(28,-72,l)
);
}
);
userData = {
com.hugojourdan.ColorFlow = {
"0" = 0;
"1" = 0;
"10" = 0;
"11" = 0;
"2" = 0;
"3" = 0;
"4" = 0;
"5" = 0;
"6" = 0;
"7" = 0;
"8" = 0;
"9" = 0;
};
};
width = 484;
},
{
layerId = m004;
shapes = (
{
closed = 1;
nodes = (
(496,800,l),
(279,800,l),
(30,-52,l),
(68,-72,l)
);
}
);
userData = {
com.hugojourdan.ColorFlow = {
"0" = 0;
"1" = 0;
"10" = 0;
"11" = 0;
"2" = 0;
"3" = 0;
"4" = 0;
"5" = 0;
"6" = 0;
"7" = 0;
"8" = 0;
"9" = 0;
};
};
width = 507;
},
{
layerId = "D54810B1-F9A5-4F35-A1FF-AED0599B2373";
shapes = (
{
closed = 1;
nodes = (
(468,800,l),
(314,800,l),
(21,-57,l),
(50,-72,l)
);
}
);
userData = {
com.hugojourdan.ColorFlow = {
"0" = 0;
"1" = 0;
"10" = 0;
"11" = 0;
"2" = 0;
"3" = 0;
"4" = 0;
"5" = 0;
"6" = 0;
"7" = 0;
"8" = 0;
"9" = 0;
};
};
width = 496.57812;
}
);
unicode = 47;
}
{
color = 5;
glyphname = two;
layers = (
{
layerId = "452AD06C-4D92-427C-8B35-838986F56274";
shapes = (
{
closed = 1;
nodes = (
(449,10,o),
(468,87,o),
(493,171,c),
(484,174,l),
(447,76,o),
(405,60,o),
(338,60,cs),
(143,60,l),
(322,211,o),
(481,371,o),
(481,535,cs),
(481,661,o),
(392,724,o),
(293,724,cs),
(195,724,o),
(88,661,o),
(53,514,c),
(79,514,o),
(113,461,o),
(124,396,c),
(132,396,l),
(115,598,o),
(208,707,o),
(289,707,cs),
(349,707,o),
(402,649,o),
(402,518,cs),
(402,351,o),
(243,185,o),
(45,11,c),
(45,0,l),
(304,0,ls),
(397,0,o),
(410,-3,o),
(430,-24,c)
);
}
);
userData = {
com.hugojourdan.ColorFlow = {
"0" = 0;
"1" = 0;
"10" = 0;
"11" = 0;
"2" = 0;
"3" = 0;
"4" = 0;
"5" = 0;
"6" = 0;
"7" = 0;
"8" = 0;
"9" = 0;
};
};
width = 519;
},
{
layerId = m004;
shapes = (
{
closed = 1;
nodes = (
(529,75,o),
(560,182,o),
(574,266,c),
(551,273,l),
(527,209,o),
(418,77,o),
(284,64,cs),
(243,60,l),
(369,185,o),
(557,380,o),
(558,559,cs),
(558,681,o),
(465,743,o),
(357,743,cs),
(245,743,o),
(94,676,o),
(31,540,c),
(77,524,o),
(157,484,o),
(150,352,c),
(174,352,l),
(221,608,o),
(291,689,o),
(337,689,cs),
(360,689,o),
(371,665,o),
(371,632,cs),
(371,487,o),
(173,266,o),
(46,123,c),
(46,0,l),
(374,0,ls),
(437,0,o),
(479,-11,o),
(508,-34,c)
);
}
);
userData = {
com.hugojourdan.ColorFlow = {
"0" = 0;
"1" = 0;
"10" = 0;
"11" = 0;
"2" = 0;
"3" = 0;
"4" = 0;
"5" = 0;
"6" = 0;
"7" = 0;
"8" = 0;
"9" = 0;
};
};
width = 611;
},
{
layerId = "D54810B1-F9A5-4F35-A1FF-AED0599B2373";
shapes = (
{
closed = 1;
nodes = (
(493,46,o),
(518,139,o),
(537,223,c),
(521,228,l),
(491,149,o),
(412,69,o),
(308,62,c),
(198,60,l),
(348,197,o),
(523,376,o),
(523,548,cs),
(523,672,o),
(432,734,o),
(328,734,cs),
(222,734,o),
(91,669,o),
(41,528,c),
(78,519,o),
(137,474,o),
(138,372,c),
(155,372,l),
(173,603,o),
(253,697,o),
(315,697,cs),
(355,697,o),
(385,658,o),
(385,580,cs),
(385,425,o),
(205,229,o),
(46,72,c),
(46,0,l),
(342,0,ls),
(419,0,o),
(448,-7,o),
(473,-29,c)
);
}
);
userData = {
com.hugojourdan.ColorFlow = {
"0" = 0;
"1" = 0;
"10" = 0;
"11" = 0;
"2" = 0;
"3" = 0;
"4" = 0;
"5" = 0;
"6" = 0;
"7" = 0;
"8" = 0;
"9" = 0;
};
};
width = 569.3125;
}
);
unicode = 50;
}
{
color = 5;
glyphname = three;
kernRight = "3";
layers = (
{
layerId = "452AD06C-4D92-427C-8B35-838986F56274";
shapes = (
{
closed = 1;
nodes = (
(122,394,l),
(129,388,l),
(163,422,o),
(205,438,o),
(246,438,cs),
(364,438,o),
(424,326,o),
(424,218,cs),
(424,117,o),
(371,18,o),
(264,18,cs),
(173,18,o),
(74,100,o),
(70,257,c),
(62,257,l),
(62,136,o),
(62,102,o),
(40,68,c),
(113,21,o),
(195,-4,o),
(265,-4,cs),
(412,-4,o),
(489,123,o),
(489,246,cs),
(489,357,o),
(425,465,o),
(291,467,cs),
(258,468,o),
(224,461,o),
(191,447,c),
(188,450,l),
(450,720,l),
(446,728,l),
(425,721,o),
(335,722,o),
(263,722,cs),
(156,722,o),
(110,724,o),
(86,733,c),
(60,579,l),
(68,578,l),
(90,649,o),
(109,658,o),
(222,658,cs),
(350,658,l)
);
}
);
userData = {
com.hugojourdan.ColorFlow = {
"0" = 0;
"1" = 0;
"10" = 0;
"11" = 0;
"2" = 0;
"3" = 0;
"4" = 0;
"5" = 0;
"6" = 0;
"7" = 0;
"8" = 0;
"9" = 0;
};
};
width = 519;
},
{
layerId = m004;
shapes = (
{
closed = 1;
nodes = (
(170,382,l),
(188,367,l),
(210,385,o),
(233,394,o),
(256,394,cs),
(335,394,o),
(379,302,o),
(379,213,cs),
(379,105,o),
(324,55,o),
(263,55,cs),
(184,55,o),
(94,140,o),
(99,293,c),
(75,293,l),
(70,192,o),
(53,124,o),
(10,81,c),
(68,21,o),
(162,-12,o),
(256,-12,cs),
(434,-12,o),
(565,102,o),
(565,276,cs),
(565,422,o),
(478,486,o),
(391,486,cs),
(360,486,o),
(329,478,o),
(302,462,c),
(299,465,l),
(543,714,l),
(535,730,l),
(516,724,o),
(475,722,o),
(315,722,cs),
(203,722,o),
(150,724,o),
(106,737,c),
(55,498,l),
(75,490,l),
(110,558,o),
(157,580,o),
(255,580,cs),
(308,580,l)
);
}
);
userData = {
com.hugojourdan.ColorFlow = {
"0" = 0;
"1" = 0;
"10" = 0;
"11" = 0;
"2" = 0;
"3" = 0;
"4" = 0;
"5" = 0;
"6" = 0;
"7" = 0;
"8" = 0;
"9" = 0;
};
};
width = 595;
},
{
layerId = "D54810B1-F9A5-4F35-A1FF-AED0599B2373";
shapes = (
{
closed = 1;
nodes = (
(174,382,l),
(183,372,l),
(207,392,o),
(232,401,o),
(257,401,cs),
(349,401,o),
(399,297,o),
(399,200,cs),
(399,115,o),
(360,35,o),
(276,35,cs),
(192,35,o),
(99,126,o),
(97,285,c),
(81,285,l),
(73,172,o),
(72,137,o),
(30,86,c),
(69,17,o),
(163,-8,o),
(258,-8,cs),
(451,-8,o),
(547,138,o),
(547,267,cs),
(547,371,o),
(485,465,o),
(361,465,cs),
(332,465,o),
(305,460,o),
(280,451,c),
(277,455,l),
(499,719,l),
(493,729,l),
(468,724,o),
(446,722,o),
(300,722,cs),
(190,722,o),
(143,725,o),
(103,735,c),
(65,535,l),
(79,530,l),
(112,606,o),
(149,628,o),
(245,628,cs),
(345,628,l)
);
}
);
userData = {
com.hugojourdan.ColorFlow = {
"0" = 0;
"1" = 0;
"10" = 0;
"11" = 0;
"2" = 0;
"3" = 0;
"4" = 0;
"5" = 0;
"6" = 0;
"7" = 0;
"8" = 0;
"9" = 0;
};
};
width = 577;
}
);
unicode = 51;
}
{
color = 5;
glyphname = six;
kernLeft = "6";
kernRight = "6";
layers = (
{
layerId = "452AD06C-4D92-427C-8B35-838986F56274";
shapes = (
{
closed = 1;
nodes = (
(440,-12,o),
(526,117,o),
(526,236,cs),
(526,345,o),
(454,446,o),
(288,436,c),
(165,344,l),
(170,337,l),
(206,363,o),
(243,376,o),
(283,376,cs),
(405,376,o),
(464,278,o),
(464,184,cs),
(464,96,o),
(413,11,o),
(314,11,cs),
(207,11,o),
(127,139,o),
(127,312,cs),
(127,479,o),
(207,634,o),
(378,745,c),
(375,752,l),
(166,653,o),
(50,467,o),
(50,277,cs),
(50,108,o),
(152,-12,o),
(295,-12,cs)
);
}
);
userData = {
com.hugojourdan.ColorFlow = {
"0" = 0;
"1" = 0;
"10" = 0;
"11" = 0;
"2" = 0;
"3" = 0;
"4" = 0;
"5" = 0;
"6" = 0;
"7" = 0;
"8" = 0;
"9" = 0;
};
};
width = 576;
},
{
layerId = m004;
shapes = (
{
closed = 1;
nodes = (
(452,-1,o),
(552,147,o),
(552,283,cs),
(552,388,o),
(491,486,o),
(349,500,c),
(192,367,l),
(214,337,l),
(222,346,o),
(251,363,o),
(281,363,cs),
(322,363,o),
(366,332,o),
(366,207,cs),
(366,123,o),
(337,57,o),
(305,57,cs),
(250,57,o),
(231,228,o),
(231,296,cs),
(231,441,o),
(278,620,o),
(435,744,c),
(427,762,l),
(149,646,o),
(30,442,o),
(30,274,cs),
(30,121,o),
(128,-1,o),
(295,-1,cs)
);
}
);
userData = {
com.hugojourdan.ColorFlow = {
"0" = 0;
"1" = 0;
"10" = 0;
"11" = 0;
"2" = 0;
"3" = 0;
"4" = 0;
"5" = 0;
"6" = 0;
"7" = 0;
"8" = 0;
"9" = 0;
};
};
width = 582;
},
{
layerId = "D54810B1-F9A5-4F35-A1FF-AED0599B2373";
shapes = (
{
closed = 1;
nodes = (
(448,-6,o),
(541,133,o),
(541,262,cs),
(541,369,o),
(475,468,o),
(322,471,c),
(181,357,l),
(195,337,l),
(216,354,o),
(248,369,o),
(283,369,cs),
(361,369,o),
(411,308,o),
(411,197,cs),
(411,111,o),
(372,36,o),
(310,36,cs),
(232,36,o),
(185,188,o),
(185,303,cs),
(185,458,o),
(247,626,o),
(410,744,c),
(404,757,l),
(158,649,o),
(40,453,o),
(40,275,cs),
(40,115,o),
(140,-6,o),
(296,-6,cs)
);
}
);
userData = {
com.hugojourdan.ColorFlow = {
"0" = 0;
"1" = 0;
"10" = 0;
"11" = 0;
"2" = 0;
"3" = 0;
"4" = 0;
"5" = 0;
"6" = 0;
"7" = 0;
"8" = 0;
"9" = 0;
};
};
width = 581;
}
);
metricLeft = O;
metricRight = O;
unicode = 54;
}
{
color = 5;
glyphname = seven;
kernLeft = T;
kernRight = "7";
layers = (
{
layerId = "452AD06C-4D92-427C-8B35-838986F56274";
shapes = (
{
closed = 1;
nodes = (
(122,-1,l),
(165,264,o),
(276,421,o),
(388,587,cs),
(422,637,o),
(459,680,o),
(491,718,c),
(486,728,l),
(454,723,o),
(323,722,o),
(251,722,cs),
(132,722,o),
(85,724,o),
(56,733,c),
(30,580,l),
(38,578,l),
(63,649,o),
(77,658,o),
(173,658,cs),
(353,658,l),
(262,509,o),
(147,337,o),
(108,-1,c)
);
}
);
userData = {
com.hugojourdan.ColorFlow = {
"0" = 0;
"1" = 0;
"10" = 0;
"11" = 0;
"2" = 0;
"3" = 0;
"4" = 0;
"5" = 0;
"6" = 0;
"7" = 0;
"8" = 0;
"9" = 0;
};
};
width = 501;
},
{
layerId = m004;
shapes = (
{
closed = 1;
nodes = (
(178,-1,l),
(236,99,o),
(384,396,o),
(478,584,cs),
(506,639,o),
(530,685,o),
(544,714,c),
(532,730,l),
(513,724,o),
(495,722,o),
(288,722,cs),
(185,722,o),
(137,726,o),
(88,737,c),
(15,498,l),
(32,486,l),
(82,553,o),
(140,580,o),
(237,580,cs),
(276,580,l),
(266,477,o),
(220,220,o),
(154,6,c)
);
}
);
userData = {
com.hugojourdan.ColorFlow = {
"0" = 0;
"1" = 0;
"10" = 0;
"11" = 0;
"2" = 0;
"3" = 0;
"4" = 0;
"5" = 0;
"6" = 0;
"7" = 0;
"8" = 0;
"9" = 0;
};
};
width = 576;
},
{
layerId = "D54810B1-F9A5-4F35-A1FF-AED0599B2373";
shapes = (
{
closed = 1;
nodes = (
(178,-1,l),
(205,143,o),
(333,407,o),
(435,585,cs),
(466,638,o),
(496,683,o),
(518,716,c),
(509,729,l),
(484,724,o),
(415,722,o),
(269,722,cs),
(159,722,o),
(112,725,o),
(72,735,c),
(15,535,l),
(28,528,l),
(72,604,o),
(118,628,o),
(214,628,cs),
(319,628,l),
(281,526,o),
(192,302,o),
(158,2,c)
);
}
);
userData = {
com.hugojourdan.ColorFlow = {
"0" = 0;
"1" = 0;
"10" = 0;
"11" = 0;
"2" = 0;
"3" = 0;
"4" = 0;
"5" = 0;
"6" = 0;
"7" = 0;
"8" = 0;
"9" = 0;
};
};
width = 550.17188;
}
);
unicode = 55;
}
{
color = 5;
glyphname = eight;
kernLeft = O;
kernRight = "3";
layers = (
{
layerId = "452AD06C-4D92-427C-8B35-838986F56274";
shapes = (
{
closed = 1;
nodes = (
(422,-17,o),
(547,54,o),
(547,196,cs),
(547,335,o),
(424,405,o),
(300,405,cs),
(175,405,o),
(50,334,o),
(50,192,cs),
(50,53,o),
(173,-17,o),
(297,-17,cs)
);
},
{
closed = 1;
nodes = (
(212,3,o),
(126,68,o),
(126,199,cs),
(126,323,o),
(211,385,o),
(297,385,cs),
(383,385,o),
(470,322,o),
(470,196,cs),
(470,67,o),
(384,3,o),
(299,3,cs)
);
},
{
closed = 1;
nodes = (
(400,385,o),
(503,443,o),
(503,559,cs),
(503,673,o),
(402,731,o),
(300,731,cs),
(197,731,o),
(94,672,o),
(94,556,cs),
(94,443,o),
(195,385,o),
(297,385,cs)
);
},
{
closed = 1;
nodes = (
(228,405,o),
(161,455,o),
(161,563,cs),
(161,664,o),
(227,711,o),
(297,711,cs),
(368,711,o),
(436,663,o),
(436,559,cs),
(436,454,o),
(369,405,o),
(299,405,cs)
);
}
);
userData = {
com.hugojourdan.ColorFlow = {
"0" = 0;
"1" = 0;
"10" = 0;
"11" = 0;
"2" = 0;
"3" = 0;
"4" = 0;
"5" = 0;
"6" = 0;
"7" = 0;
"8" = 0;
"9" = 0;
};
};
width = 597;
},
{
layerId = m004;
shapes = (
{
closed = 1;
nodes = (
(489,-17,o),
(581,95,o),
(581,207,cs),
(581,316,o),
(492,425,o),
(308,425,cs),
(123,425,o),
(30,314,o),
(30,203,cs),
(30,93,o),
(122,-17,o),
(308,-17,cs)
);
},
{
closed = 1;
nodes = (
(275,23,o),
(240,77,o),
(236,199,cs),
(233,325,o),
(271,379,o),
(303,379,cs),
(335,379,o),
(371,329,o),
(375,211,cs),
(376,81,o),
(339,23,o),
(307,23,cs)
);
},
{
closed = 1;
nodes = (
(449,397,o),
(519,479,o),
(519,562,cs),
(519,646,o),
(448,730,o),
(307,730,cs),
(165,730,o),
(92,645,o),
(92,560,cs),
(92,478,o),
(162,397,o),
(307,397,cs)
);
},
{
closed = 1;
nodes = (
(283,427,o),
(256,468,o),
(253,560,cs),
(251,655,o),
(280,695,o),
(304,695,cs),
(328,695,o),
(355,658,o),
(358,569,cs),
(359,471,o),
(331,427,o),
(307,427,cs)
);
}
);
userData = {
com.hugojourdan.ColorFlow = {
"0" = 0;
"1" = 0;
"10" = 0;
"11" = 0;
"2" = 0;
"3" = 0;
"4" = 0;
"5" = 0;
"6" = 0;
"7" = 0;
"8" = 0;
"9" = 0;
};
};
width = 611;
},
{
layerId = "D54810B1-F9A5-4F35-A1FF-AED0599B2373";
shapes = (
{
closed = 1;
nodes = (
(460,-17,o),
(567,76,o),
(567,202,cs),
(567,325,o),
(462,416,o),
(306,416,cs),
(148,416,o),
(40,323,o),
(40,198,cs),
(40,75,o),
(146,-17,o),
(304,-17,cs)
);
},
{
closed = 1;
nodes = (
(248,14,o),
(190,73,o),
(187,199,cs),
(186,324,o),
(245,382,o),
(301,382,cs),
(358,382,o),
(417,326,o),
(419,204,cs),
(420,75,o),
(361,14,o),
(305,14,cs)
);
},
{
closed = 1;
nodes = (
(428,392,o),
(513,463,o),
(513,561,cs),
(513,658,o),
(428,730,o),
(305,730,cs),
(181,730,o),
(94,657,o),
(94,558,cs),
(94,462,o),
(178,392,o),
(304,392,cs)
);
},
{
closed = 1;
nodes = (
(259,417,o),
(214,462,o),
(213,561,cs),
(211,659,o),
(257,702,o),
(302,702,cs),
(347,702,o),
(393,660,o),
(395,564,cs),
(395,463,o),
(349,417,o),
(305,417,cs)
);
}
);
userData = {
com.hugojourdan.ColorFlow = {
"0" = 0;
"1" = 0;
"10" = 0;
"11" = 0;
"2" = 0;
"3" = 0;
"4" = 0;
"5" = 0;
"6" = 0;
"7" = 0;
"8" = 0;
"9" = 0;
};
};
width = 607;
}
);
metricLeft = O;
metricRight = O;
unicode = 56;
}
{
color = 5;
glyphname = nine;
kernRight = O;
layers = (
{
layerId = "452AD06C-4D92-427C-8B35-838986F56274";
shapes = (
{
closed = 1;
nodes = (
(83,-17,l),
(367,114,o),
(482,316,o),
(482,476,cs),
(482,615,o),
(394,723,o),
(255,723,cs),
(139,723,o),
(20,639,o),
(20,489,cs),
(20,385,o),
(94,291,o),
(214,291,c),
(343,391,l),
(338,398,l),
(303,370,o),
(270,355,o),
(231,355,cs),
(155,355,o),
(80,411,o),
(80,532,cs),
(80,642,o),
(153,700,o),
(231,700,cs),
(329,700,o),
(409,596,o),
(409,457,cs),
(409,313,o),
(323,131,o),
(80,-10,c)
);
}
);
userData = {
com.hugojourdan.ColorFlow = {
"0" = 0;
"1" = 0;
"10" = 0;
"11" = 0;
"2" = 0;
"3" = 0;
"4" = 0;
"5" = 0;
"6" = 0;
"7" = 0;
"8" = 0;
"9" = 0;
};
};
width = 532;
},
{
layerId = m004;
shapes = (
{
closed = 1;
nodes = (
(145,-31,l),
(423,85,o),
(542,289,o),
(542,457,cs),
(542,610,o),
(444,732,o),
(277,732,cs),
(126,732,o),
(40,597,o),
(40,471,cs),
(40,358,o),
(109,251,o),
(250,251,c),
(379,353,l),
(358,394,l),
(342,376,o),
(324,368,o),
(305,368,cs),
(245,368,o),
(181,457,o),
(180,574,cs),
(180,639,o),
(205,669,o),
(237,669,cs),
(288,669,o),
(355,591,o),
(355,454,cs),
(355,293,o),
(289,97,o),
(137,-13,c)
);
}
);
userData = {
com.hugojourdan.ColorFlow = {
"0" = 0;
"1" = 0;
"10" = 0;
"11" = 0;
"2" = 0;
"3" = 0;
"4" = 0;
"5" = 0;
"6" = 0;
"7" = 0;
"8" = 0;
"9" = 0;
};
};
width = 572;
},
{
layerId = "D54810B1-F9A5-4F35-A1FF-AED0599B2373";
shapes = (
{
closed = 1;
nodes = (
(117,-25,l),
(398,98,o),
(515,301,o),
(515,466,cs),
(515,612,o),
(421,728,o),
(267,728,cs),
(132,728,o),
(31,616,o),
(31,479,cs),
(31,370,o),
(102,269,o),
(234,269,c),
(363,370,l),
(349,396,l),
(324,373,o),
(300,362,o),
(271,362,cs),
(204,362,o),
(135,436,o),
(135,555,cs),
(135,640,o),
(181,683,o),
(234,683,cs),
(307,683,o),
(379,593,o),
(379,455,cs),
(379,302,o),
(304,112,o),
(111,-12,c)
);
}
);
userData = {
com.hugojourdan.ColorFlow = {
"0" = 0;
"1" = 0;
"10" = 0;
"11" = 0;
"2" = 0;
"3" = 0;
"4" = 0;
"5" = 0;
"6" = 0;
"7" = 0;
"8" = 0;
"9" = 0;
};
};
width = 545;
}
);
unicode = 57;
}
{
glyphname = question;
layers = (
{
layerId = "452AD06C-4D92-427C-8B35-838986F56274";
shapes = (
{
closed = 1;
nodes = (
(42,475,l),
(49,475,l),
(53,636,o),
(133,714,o),
(205,714,cs),
(268,714,o),
(318,661,o),
(318,555,cs),
(318,452,o),
(261,325,o),
(118,284,c),
(118,248,o),
(119,157,o),
(118,133,c),
(154,135,l),
(150,182,o),
(148,243,o),
(148,279,c),
(311,340,o),
(387,473,o),
(385,571,cs),
(383,679,o),
(305,732,o),
(206,732,cs),
(147,732,o),
(82,714,o),
(30,683,c)
);
},
{
closed = 1;
nodes = (
(165,43,o),
(165,72,o),
(184,96,c),
(141,77,o),
(110,78,o),
(86,98,c),
(107,57,o),
(108,27,o),
(87,0,c),
(130,19,o),
(160,19,o),
(185,-2,c)
);
}
);
userData = {
com.hugojourdan.ColorFlow = {
"0" = 0;
"1" = 0;
"10" = 0;
"11" = 0;
"2" = 0;
"3" = 0;
"4" = 0;
"5" = 0;
"6" = 0;
"7" = 0;
"8" = 0;
"9" = 0;
};
};
width = 405;
},
{
layerId = m004;
shapes = (
{
closed = 1;
nodes = (
(56,443,l),
(80,443,l),
(99,597,o),
(163,669,o),
(218,669,cs),
(263,669,o),
(302,619,o),
(302,524,cs),
(302,436,o),
(252,333,o),
(102,292,c),
(102,264,o),
(104,162,o),
(102,134,c),
(204,149,l),
(196,181,o),
(192,233,o),
(192,269,c),
(458,337,o),
(524,442,o),
(524,532,cs),
(524,679,o),
(404,735,o),
(259,735,cs),
(180,735,o),
(95,717,o),
(20,686,c)
);
},
{
closed = 1;
nodes = (
(214,29,o),
(203,90,o),
(218,123,c),
(164,106,o),
(103,94,o),
(71,110,c),
(88,56,o),
(99,-5,o),
(84,-38,c),
(138,-21,o),
(199,-9,o),
(231,-25,c)
);
}
);
userData = {
com.hugojourdan.ColorFlow = {
"0" = 0;
"1" = 0;
"10" = 0;
"11" = 0;
"2" = 0;
"3" = 0;
"4" = 0;
"5" = 0;
"6" = 0;
"7" = 0;
"8" = 0;
"9" = 0;
};
};
width = 537;
},
{
layerId = "D54810B1-F9A5-4F35-A1FF-AED0599B2373";
shapes = (
{
closed = 1;
nodes = (
(58,491,l),
(72,492,l),
(82,635,o),
(142,692,o),
(199,692,cs),
(252,692,o),
(291,649,o),
(291,545,cs),
(291,445,o),
(240,330,o),
(103,292,c),
(103,264,o),
(104,158,o),
(103,134,c),
(177,149,l),
(173,180,o),
(171,240,o),
(171,276,c),
(342,339,o),
(434,463,o),
(434,567,cs),
(434,659,o),
(362,738,o),
(227,738,cs),
(165,738,o),
(96,719,o),
(30,685,c)
);
},
{
closed = 1;
nodes = (
(186,53,o),
(178,98,o),
(194,125,c),
(148,107,o),
(102,100,o),
(73,116,c),
(93,71,o),
(100,25,o),
(85,-5,c),
(131,14,o),
(176,21,o),
(205,5,c)
);
}
);
userData = {
com.hugojourdan.ColorFlow = {
"0" = 0;
"1" = 0;
"10" = 0;
"11" = 0;
"2" = 0;
"3" = 0;
"4" = 0;
"5" = 0;
"6" = 0;
"7" = 0;
"8" = 0;
"9" = 0;
};
};
width = 444;
}
);
unicode = 63;
}
{
glyphname = at;
kernLeft = O;
kernRight = O;
layers = (
{
layerId = "452AD06C-4D92-427C-8B35-838986F56274";
shapes = (
{
closed = 1;
nodes = (
(492,-210,o),
(657,-128,o),
(794,27,c),
(784,37,l),
(669,-90,o),
(513,-143,o),
(384,-143,cs),
(215,-143,o),
(85,-43,o),
(85,178,cs),
(85,390,o),
(321,621,o),
(526,621,cs),
(715,621,o),
(780,468,o),
(774,338,cs),
(767,184,o),
(672,79,o),
(580,71,cs),
(535,67,o),
(516,106,o),
(520,173,cs),
(526,279,o),
(560,411,o),
(599,454,c),
(603,474,o),
(588,497,o),
(577,505,c),
(403,494,o),
(215,348,o),
(215,170,cs),
(215,121,o),
(234,51,o),
(310,-4,c),
(353,28,o),
(418,100,o),
(453,144,c),
(458,143,l),
(453,90,o),
(465,35,o),
(504,-7,c),
(580,12,o),
(791,100,o),
(811,364,cs),
(824,539,o),
(730,679,o),
(568,689,cs),
(418,698,o),
(42,445,o),
(35,136,cs),
(30,-99,o),
(174,-210,o),
(345,-210,cs)
);
},
{
closed = 1;
nodes = (
(285,126,o),
(262,181,o),
(262,230,cs),
(262,330,o),
(372,415,o),
(498,437,c),
(502,434,l),
(479,298,o),
(466,150,o),
(349,69,c)
);
}
);
userData = {
com.hugojourdan.ColorFlow = {
"0" = 0;
"1" = 0;
"10" = 0;
"11" = 0;
"2" = 0;
"3" = 0;
"4" = 0;
"5" = 0;
"6" = 0;
"7" = 0;
"8" = 0;
"9" = 0;
};
};
width = 851;
},
{
layerId = m004;
shapes = (
{
closed = 1;
nodes = (
(434,-265,o),
(764,-41,o),
(871,187,c),
(856,195,l),
(739,13,o),
(560,-85,o),
(411,-85,cs),
(256,-85,o),
(156,32,o),
(156,176,cs),
(156,448,o),
(513,646,o),
(656,652,cs),
(727,655,o),
(773,576,o),
(772,478,cs),
(771,344,o),
(705,181,o),
(644,165,cs),
(610,156,o),
(597,231,o),
(610,327,cs),
(621,414,o),
(630,454,o),
(654,519,c),
(652,532,o),
(636,562,o),
(622,567,c),
(399,495,o),
(243,339,o),
(243,196,cs),
(243,128,o),
(280,63,o),
(360,12,c),
(418,59,o),
(483,148,o),
(534,250,c),
(540,249,l),
(528,193,o),
(499,100,o),
(529,26,c),
(690,56,o),
(938,390,o),
(938,615,cs),
(938,689,o),
(906,764,o),
(849,782,cs),
(755,811,o),
(56,568,o),
(43,45,cs),
(38,-132,o),
(155,-265,o),
(269,-265,cs)
);
},
{
closed = 1;
nodes = (
(370,224,o),
(353,257,o),
(353,300,cs),
(353,367,o),
(417,442,o),
(536,480,c),
(541,476,l),
(529,347,o),
(487,274,o),
(415,200,c)
);
}
);
userData = {
com.hugojourdan.ColorFlow = {
"0" = 0;
"1" = 0;
"10" = 0;
"11" = 0;
"2" = 0;
"3" = 0;
"4" = 0;
"5" = 0;
"6" = 0;
"7" = 0;
"8" = 0;
"9" = 0;
};
};
width = 965;
},
{
layerId = "D54810B1-F9A5-4F35-A1FF-AED0599B2373";
shapes = (
{
closed = 1;
nodes = (
(460,-240,o),
(716,-80,o),
(836,115,c),
(823,123,l),
(707,-34,o),
(539,-111,o),
(399,-111,cs),
(237,-111,o),
(124,-2,o),
(124,177,cs),
(124,422,o),
(426,635,o),
(597,638,cs),
(722,640,o),
(776,527,o),
(773,415,cs),
(769,272,o),
(690,138,o),
(615,122,cs),
(581,115,o),
(561,174,o),
(569,257,cs),
(577,348,o),
(601,435,o),
(635,493,c),
(636,509,o),
(621,536,o),
(608,543,c),
(404,495,o),
(232,344,o),
(232,185,cs),
(232,126,o),
(261,58,o),
(339,6,c),
(390,46,o),
(454,126,o),
(497,202,c),
(502,201,l),
(490,151,o),
(484,71,o),
(518,11,c),
(640,36,o),
(871,259,o),
(880,501,cs),
(886,621,o),
(826,725,o),
(722,740,cs),
(602,760,o),
(50,512,o),
(39,86,cs),
(34,-117,o),
(164,-240,o),
(303,-240,cs)
);
},
{
closed = 1;
nodes = (
(333,181,o),
(312,226,o),
(312,268,cs),
(312,350,o),
(396,427,o),
(506,451,c),
(511,448,l),
(500,325,o),
(477,218,o),
(383,141,c)
);
}
);
userData = {
com.hugojourdan.ColorFlow = {
"0" = 0;
"1" = 0;
"10" = 0;
"11" = 0;
"2" = 0;
"3" = 0;
"4" = 0;
"5" = 0;
"6" = 0;
"7" = 0;
"8" = 0;
"9" = 0;
};
};
width = 913.34375;
}
);
note = at;
unicode = 64;
}
{
color = 5;
glyphname = A;
kernLeft = A;
kernRight = A;
layers = (
{
anchors = (
{
name = bottom;
pos = (338,0);
},
{
name = ogonek;
pos = (624,10);
},
{
name = top;
pos = (338,722);
}
);
layerId = "452AD06C-4D92-427C-8B35-838986F56274";
shapes = (
{
closed = 1;
nodes = (
(652,0,l),
(340,673,ls),
(333,688,o),
(325,706,o),
(322,722,c),
(119,722,l),
(119,716,l),
(161,716,ls),
(236,716,o),
(258,695,o),
(277,654,cs),
(318,565,l),
(114,460,o),
(3,227,o),
(52,-12,c),
(56,-13,l),
(176,109,o),
(296,234,o),
(416,354,c),
(540,84,ls),
(554,54,o),
(563,22,o),
(553,0,c)
);
},
{
closed = 1;
nodes = (
(81,298,o),
(175,469,o),
(327,547,c),
(400,388,l),
(328,290,o),
(230,196,o),
(119,108,c)
);
}
);
userData = {
com.hugojourdan.ColorFlow = {
"0" = 0;
"1" = 0;
"10" = 0;
"11" = 0;
"2" = 0;
"3" = 0;
"4" = 0;
"5" = 0;
"6" = 0;
"7" = 0;
"8" = 0;
"9" = 0;
};
};
width = 662;
},
{
anchors = (
{
name = bottom;
pos = (430,0);
},
{
name = ogonek;
pos = (716,10);
},
{
name = top;
pos = (430,722);
}
);
guides = (
{
angle = -66.2069;
pos = (471,648);
}
);
layerId = m004;
shapes = (
{
closed = 1;
nodes = (
(765,0,l),
(463,673,ls),
(456,688,o),
(448,706,o),
(445,722,c),
(106,722,l),
(106,698,l),
(139,698,ls),
(211,698,o),
(240,674,o),
(257,636,cs),
(324,485,l),
(10,402,o),
(86,56,o),
(20,-45,c),
(31,-57,l),
(203,71,o),
(305,161,o),
(395,325,c),
(504,80,ls),
(516,53,o),
(525,22,o),
(515,0,c)
);
},
{
closed = 1;
nodes = (
(231,311,o),
(273,396,o),
(352,441,c),
(355,436,l),
(346,345,o),
(310,260,o),
(237,193,c)
);
}
);
userData = {
com.hugojourdan.ColorFlow = {
"0" = 0;
"1" = 0;
"10" = 0;
"11" = 0;
"2" = 0;
"3" = 0;
"4" = 0;
"5" = 0;
"6" = 0;
"7" = 0;
"8" = 0;
"9" = 0;
};
};
width = 785;
},
{
anchors = (
{
name = bottom;
pos = (394,0);
},
{
name = ogonek;
pos = (680,10);
},
{
name = top;
pos = (394,722);
}
);
layerId = "D54810B1-F9A5-4F35-A1FF-AED0599B2373";
shapes = (
{
closed = 1;
nodes = (
(728,0,l),
(422,673,ls),
(415,688,o),
(407,706,o),
(404,722,c),
(117,722,l),
(117,706,l),
(154,706,ls),
(228,706,o),
(253,684,o),
(271,644,cs),
(327,521,l),
(66,424,o),
(56,130,o),
(40,-30,c),
(52,-38,l),
(196,106,o),
(312,237,o),
(394,371,c),
(526,80,ls),
(539,53,o),
(547,22,o),
(537,0,c)
);
},
{
closed = 1;
nodes = (
(170,301,o),
(238,423,o),
(346,489,c),
(368,441,l),
(326,339,o),
(268,244,o),
(187,154,c)
);
}
);
userData = {
com.hugojourdan.ColorFlow = {
"0" = 0;
"1" = 0;
"10" = 0;
"11" = 0;
"2" = 0;
"3" = 0;
"4" = 0;
"5" = 0;
"6" = 0;
"7" = 0;
"8" = 0;
"9" = 0;
};
};
width = 748;
}
);
unicode = 65;
}
{
color = 5;
glyphname = B;
kernLeft = D;
kernRight = B;
layers = (
{
anchors = (
{
name = bottom;
pos = (300,0);
},
{
name = top;
pos = (300,722);
}
);
layerId = "452AD06C-4D92-427C-8B35-838986F56274";
shapes = (
{
closed = 1;
nodes = (
(118,-1,o),
(157,-1,o),
(196,2,cs),
(379,16,o),
(567,80,o),
(567,253,cs),
(567,384,o),
(455,469,o),
(282,493,c),
(359,522,o),
(438,581,o),
(438,652,cs),
(438,705,o),
(389,731,o),
(327,731,cs),
(274,731,o),
(211,712,o),
(162,676,c),
(162,722,l),
(20,722,l),
(20,716,l),
(40,716,ls),
(76,716,o),
(92,697,o),
(92,652,cs),
(92,84,ls),
(92,40,o),
(90,24,o),
(82,0,c)
);
},
{
closed = 1;
nodes = (
(162,654,l),
(200,682,o),
(243,696,o),
(280,696,cs),
(327,696,o),
(363,673,o),
(363,625,cs),
(363,568,o),
(310,507,o),
(193,484,c),
(193,478,l),
(354,478,o),
(486,407,o),
(486,253,cs),
(486,92,o),
(345,29,o),
(162,24,c)
);
}
);
userData = {
com.hugojourdan.ColorFlow = {
"0" = 0;
"1" = 0;
"10" = 0;
"11" = 0;
"2" = 0;
"3" = 0;
"4" = 0;
"5" = 0;
"6" = 0;
"7" = 0;
"8" = 0;
"9" = 0;
};
};
width = 597;
},
{
anchors = (
{
name = bottom;
pos = (296,0);
},
{
name = top;
pos = (296,722);
}
);
layerId = m004;
shapes = (
{
closed = 1;
nodes = (
(165,-5,o),
(262,-5,o),
(359,0,cs),
(560,10,o),
(664,128,o),
(664,250,cs),
(664,353,o),
(588,452,o),
(431,464,c),
(536,480,o),
(587,548,o),
(587,610,cs),
(587,684,o),
(523,726,o),
(439,726,cs),
(389,726,o),
(334,713,o),
(288,694,c),
(288,722,l),
(20,722,l),
(20,698,l),
(36,698,ls),
(70,698,o),
(88,676,o),
(88,634,cs),
(88,84,ls),
(88,48,o),
(82,24,o),
(68,0,c)
);
},
{
closed = 1;
nodes = (
(288,639,l),
(303,644,o),
(317,646,o),
(332,646,cs),
(384,646,o),
(416,607,o),
(416,564,cs),
(416,517,o),
(382,476,o),
(288,477,c),
(288,429,l),
(408,434,o),
(449,349,o),
(449,251,cs),
(449,157,o),
(399,63,o),
(288,70,c)
);
}
);
userData = {
com.hugojourdan.ColorFlow = {
"0" = 0;
"1" = 0;
"10" = 0;
"11" = 0;
"2" = 0;
"3" = 0;
"4" = 0;
"5" = 0;
"6" = 0;
"7" = 0;
"8" = 0;
"9" = 0;
};
};
width = 694;
},
{
anchors = (
{
name = bottom;
pos = (302,0);
},
{
name = top;
pos = (302,722);
}
);
layerId = "D54810B1-F9A5-4F35-A1FF-AED0599B2373";
shapes = (
{
closed = 1;
nodes = (
(166,-2,o),
(229,-2,o),
(292,0,cs),
(496,6,o),
(625,114,o),
(625,251,cs),
(625,367,o),
(532,460,o),
(372,477,c),
(459,495,o),
(524,563,o),
(524,629,cs),
(524,691,o),
(470,727,o),
(392,727,cs),
(339,727,o),
(282,712,o),
(235,684,c),
(235,722,l),
(24,722,l),
(24,706,l),
(42,706,ls),
(77,706,o),
(94,686,o),
(94,642,cs),
(94,84,ls),
(94,44,o),
(90,24,o),
(79,0,c)
);
},
{
closed = 1;
nodes = (
(235,648,l),
(259,663,o),
(285,670,o),
(309,670,cs),
(364,670,o),
(397,636,o),
(397,592,cs),
(397,540,o),
(354,490,o),
(235,480,c),
(235,451,l),
(388,454,o),
(470,375,o),
(470,252,cs),
(470,128,o),
(378,45,o),
(235,46,c)
);
}
);
userData = {
com.hugojourdan.ColorFlow = {
"0" = 0;
"1" = 0;
"10" = 0;
"11" = 0;
"2" = 0;
"3" = 0;
"4" = 0;
"5" = 0;
"6" = 0;
"7" = 0;
"8" = 0;
"9" = 0;
};
};
width = 662.20312;
}
);
unicode = 66;
}
{
color = 5;
glyphname = C;
kernLeft = O;
kernRight = C;
layers = (
{
anchors = (
{
name = bottom;
pos = (369,0);
},
{
name = top;
pos = (369,722);
}
);
layerId = "452AD06C-4D92-427C-8B35-838986F56274";
shapes = (
{
closed = 1;
nodes = (
(517,-15,o),
(592,1,o),
(663,48,c),
(701,184,l),
(695,188,l),
(632,58,o),
(537,8,o),
(436,2,cs),
(271,-8,o),
(136,124,o),
(126,359,cs),
(117,580,o),
(257,715,o),
(437,715,cs),
(560,715,o),
(637,651,o),
(668,550,c),
(677,551,l),
(665,690,l),
(596,720,o),
(537,735,o),
(464,735,cs),
(228,735,o),
(39,593,o),
(50,333,cs),
(60,100,o),
(227,-29,o),
(437,-19,cs)
);
}
);
userData = {
com.hugojourdan.ColorFlow = {
"0" = 0;
"1" = 0;
"10" = 0;
"11" = 0;
"2" = 0;
"3" = 0;
"4" = 0;
"5" = 0;
"6" = 0;
"7" = 0;
"8" = 0;
"9" = 0;
};
};
width = 731;
},
{
anchors = (
{
name = bottom;
pos = (350,0);
},
{
name = top;
pos = (408,722);
}
);
layerId = m004;
shapes = (
{
closed = 1;
nodes = (
(504,-15,o),
(590,-1,o),
(674,22,c),
(697,297,l),
(681,300,l),
(642,189,o),
(553,61,o),
(447,60,cs),
(313,59,o),
(249,223,o),
(249,375,cs),
(249,557,o),
(337,667,o),
(432,667,cs),
(534,667,o),
(605,555,o),
(625,443,c),
(640,443,l),
(676,682,l),
(618,717,o),
(529,739,o),
(434,739,cs),
(196,740,o),
(30,603,o),
(30,356,cs),
(30,122,o),
(177,-15,o),
(421,-15,cs)
);
}
);
userData = {
com.hugojourdan.ColorFlow = {
"0" = 0;
"1" = 0;
"10" = 0;
"11" = 0;
"2" = 0;
"3" = 0;
"4" = 0;
"5" = 0;
"6" = 0;
"7" = 0;
"8" = 0;
"9" = 0;
};
};
width = 727;
},
{
anchors = (
{
name = bottom;
pos = (365,0);
},
{
name = top;
pos = (365,722);
}
);
layerId = "D54810B1-F9A5-4F35-A1FF-AED0599B2373";
shapes = (
{
closed = 1;
nodes = (
(516,-15,o),
(597,0,o),
(675,34,c),
(705,246,l),
(693,249,l),
(643,130,o),
(552,37,o),
(448,34,cs),
(300,29,o),
(205,178,o),
(200,368,cs),
(196,567,o),
(307,690,o),
(440,690,cs),
(552,690,o),
(625,599,o),
(650,491,c),
(663,492,l),
(677,686,l),
(614,718,o),
(539,737,o),
(454,737,cs),
(218,738,o),
(35,597,o),
(40,346,cs),
(45,112,o),
(206,-21,o),
(434,-17,cs)
);
}
);
userData = {
com.hugojourdan.ColorFlow = {
"0" = 0;
"1" = 0;
"10" = 0;
"11" = 0;
"2" = 0;
"3" = 0;
"4" = 0;
"5" = 0;
"6" = 0;
"7" = 0;
"8" = 0;
"9" = 0;
};
};
width = 739;
}
);
metricLeft = O;
unicode = 67;
}
{
color = 5;
glyphname = D;
kernLeft = D;
kernRight = O;
layers = (
{
anchors = (
{
name = bottom;
pos = (327,0);
},
{
name = center;
pos = (327,361);
},
{
name = top;
pos = (327,722);
}
);
layerId = "452AD06C-4D92-427C-8B35-838986F56274";
shapes = (
{
closed = 1;
nodes = (
(186,0,ls),
(523,0,o),
(669,165,o),
(668,383,cs),
(667,589,o),
(533,730,o),
(266,725,cs),
(210,724,o),
(180,722,o),
(107,722,cs),
(25,722,l),
(25,716,l),
(45,716,ls),
(81,716,o),
(97,697,o),
(97,652,cs),
(97,84,ls),
(97,40,o),
(95,24,o),
(87,0,c)
);
},
{
closed = 1;
nodes = (
(167,697,l),
(196,701,o),
(221,704,o),
(246,704,cs),
(458,704,o),
(588,577,o),
(589,385,cs),
(590,143,o),
(441,24,o),
(167,24,c)
);
}
);
userData = {
com.hugojourdan.ColorFlow = {
"0" = 0;
"1" = 0;
"10" = 0;
"11" = 0;
"2" = 0;
"3" = 0;
"4" = 0;
"5" = 0;
"6" = 0;
"7" = 0;
"8" = 0;
"9" = 0;
};
};
width = 723;
},
{
anchors = (
{
name = bottom;
pos = (358,0);
},
{
name = center;
pos = (358,361);
},
{
name = top;
pos = (358,722);
}
);
layerId = m004;
shapes = (
{
closed = 1;
nodes = (
(364,0,ls),
(626,0,o),
(763,168,o),
(763,378,cs),
(763,571,o),
(637,722,o),
(372,723,cs),
(269,723,o),
(182,721,o),
(99,722,cs),
(21,723,l),
(20,699,l),
(36,699,ls),
(70,698,o),
(88,676,o),
(88,634,cs),
(88,84,ls),
(88,48,o),
(82,24,o),
(68,0,c)
);
},
{
closed = 1;
nodes = (
(288,660,l),
(322,661,o),
(352,657,o),
(379,647,cs),
(482,612,o),
(533,508,o),
(533,379,cs),
(533,222,o),
(431,59,o),
(288,70,c)
);
}
);
userData = {
com.hugojourdan.ColorFlow = {
"0" = 0;
"1" = 0;
"10" = 0;
"11" = 0;
"2" = 0;
"3" = 0;
"4" = 0;
"5" = 0;
"6" = 0;
"7" = 0;
"8" = 0;
"9" = 0;
};
};
width = 793;
},
{
anchors = (
{
name = bottom;
pos = (348,0);
},
{
name = center;
pos = (348,361);
},
{
name = top;
pos = (348,722);
}
);
layerId = "D54810B1-F9A5-4F35-A1FF-AED0599B2373";
shapes = (
{
closed = 1;
nodes = (
(300,0,ls),
(584,0,o),
(725,167,o),
(724,380,cs),
(724,579,o),
(594,726,o),
(329,724,cs),
(247,723,o),
(185,721,o),
(108,722,cs),
(28,723,l),
(27,707,l),
(45,707,ls),
(80,706,o),
(97,686,o),
(97,642,cs),
(97,84,ls),
(97,44,o),
(93,24,o),
(82,0,c)
);
},
{
closed = 1;
nodes = (
(238,677,l),
(269,679,o),
(297,678,o),
(323,673,c),
(476,654,o),
(562,539,o),
(563,382,cs),
(563,186,o),
(440,43,o),
(238,49,c)
);
}
);
userData = {
com.hugojourdan.ColorFlow = {
"0" = 0;
"1" = 0;
"10" = 0;
"11" = 0;
"2" = 0;
"3" = 0;
"4" = 0;
"5" = 0;
"6" = 0;
"7" = 0;
"8" = 0;
"9" = 0;
};
};
width = 765.8125;
}
);
unicode = 68;
}
{
color = 5;
glyphname = E;
kernLeft = D;
kernRight = E;
layers = (
{
anchors = (
{
name = bottom;
pos = (273,0);
},
{
name = ogonek;
pos = (509,10);
},
{
name = top;
pos = (273,722);
},
{
name = topleft;
pos = (-2,722);
}
);
layerId = "452AD06C-4D92-427C-8B35-838986F56274";
shapes = (
{
closed = 1;
nodes = (
(473,0,l),
(521,162,l),
(514,165,l),
(456,45,o),
(361,24,o),
(162,24,c),
(162,416,l),
(330,416,ls),
(415,416,o),
(445,405,o),
(457,366,c),
(462,367,l),
(462,486,l),
(457,487,l),
(445,452,o),
(415,436,o),
(330,436,cs),
(162,436,l),
(162,698,l),
(265,698,ls),
(373,698,o),
(405,690,o),
(464,587,c),
(470,590,l),
(432,722,l),
(20,722,l),
(20,716,l),
(40,716,ls),
(76,716,o),
(92,697,o),
(92,652,cs),
(92,84,ls),
(92,40,o),
(90,24,o),
(82,0,c)
);
}
);
userData = {
com.hugojourdan.ColorFlow = {
"0" = 0;
"1" = 0;
"10" = 0;
"11" = 0;
"2" = 0;
"3" = 0;
"4" = 0;
"5" = 0;
"6" = 0;
"7" = 0;
"8" = 0;
"9" = 0;
};
};
width = 551;
},
{
anchors = (
{
name = bottom;
pos = (353,0);
},
{
name = ogonek;
pos = (589,10);
},
{
name = top;
pos = (304,722);
},
{
name = topleft;
pos = (78,722);
}
);
layerId = m004;
shapes = (
{
closed = 1;
nodes = (
(599,0,l),
(651,261,l),
(624,269,l),
(586,128,o),
(459,92,o),
(288,90,c),
(288,413,l),
(365,412,ls),
(444,411,o),
(524,406,o),
(539,364,c),
(556,368,l),
(556,529,l),
(539,531,l),
(524,489,o),
(444,484,o),
(365,483,cs),
(288,482,l),
(288,652,l),
(362,652,ls),
(524,652,o),
(577,601,o),
(624,518,c),
(646,527,l),
(602,722,l),
(20,722,l),
(20,698,l),
(36,698,ls),
(70,698,o),
(88,676,o),
(88,634,cs),
(88,84,ls),
(88,48,o),
(82,24,o),
(68,0,c)
);
}
);
userData = {
com.hugojourdan.ColorFlow = {
"0" = 0;
"1" = 0;
"10" = 0;
"11" = 0;
"2" = 0;
"3" = 0;
"4" = 0;
"5" = 0;
"6" = 0;
"7" = 0;
"8" = 0;
"9" = 0;
};
};
width = 684;
},
{
anchors = (
{
name = bottom;
pos = (322,0);
},
{
name = ogonek;
pos = (558,10);
},
{
name = top;
pos = (322,722);
},
{
name = topleft;
pos = (47,722);
}
);
layerId = "D54810B1-F9A5-4F35-A1FF-AED0599B2373";
shapes = (
{
closed = 1;
nodes = (
(547,0,l),
(598,216,l),
(580,222,l),
(533,90,o),
(420,56,o),
(236,55,c),
(236,417,l),
(360,417,ls),
(441,417,o),
(499,406,o),
(512,360,c),
(524,363,l),
(524,513,l),
(512,516,l),
(499,472,o),
(441,459,o),
(360,459,cs),
(236,459,l),
(236,680,l),
(323,680,ls),
(461,680,o),
(505,641,o),
(557,549,c),
(572,556,l),
(530,722,l),
(25,722,l),
(25,706,l),
(43,706,ls),
(78,706,o),
(95,686,o),
(95,642,cs),
(95,84,ls),
(95,44,o),
(91,24,o),
(80,0,c)
);
}
);
userData = {
com.hugojourdan.ColorFlow = {
"0" = 0;
"1" = 0;
"10" = 0;
"11" = 0;
"2" = 0;
"3" = 0;
"4" = 0;
"5" = 0;
"6" = 0;
"7" = 0;
"8" = 0;
"9" = 0;
};
};
width = 627.8125;
}
);
unicode = 69;
}
{
color = 5;
glyphname = F;
kernLeft = D;
kernRight = F;
layers = (
{
anchors = (
{
name = bottom;
pos = (252,0);
},
{
name = top;
pos = (252,722);
}
);
layerId = "452AD06C-4D92-427C-8B35-838986F56274";
shapes = (
{
closed = 1;
nodes = (
(52,-134,l),
(80,-87,o),
(119,0,o),
(162,0,c),
(162,416,l),
(330,416,ls),
(415,416,o),
(445,405,o),
(457,366,c),
(462,367,l),
(462,486,l),
(457,487,l),
(445,452,o),
(415,436,o),
(330,436,cs),
(162,436,l),
(162,698,l),
(265,698,ls),
(373,698,o),
(410,682,o),
(464,587,c),
(471,590,l),
(432,722,l),
(20,722,l),
(20,716,l),
(40,716,ls),
(76,716,o),
(92,697,o),
(92,652,cs),
(92,40,ls),
(92,-21,o),
(84,-61,o),
(44,-130,c)
);
}
);
userData = {
com.hugojourdan.ColorFlow = {
"0" = 0;
"1" = 0;
"10" = 0;
"11" = 0;
"2" = 0;
"3" = 0;
"4" = 0;
"5" = 0;
"6" = 0;
"7" = 0;
"8" = 0;
"9" = 0;
};
};
width = 506;
},
{
anchors = (
{
name = bottom;
pos = (256,0);
},
{
name = top;
pos = (256,722);
}
);
layerId = m004;
shapes = (
{
closed = 1;
nodes = (
(57,-201,l),
(118,-112,o),
(189,-32,o),
(288,-25,c),
(288,413,l),
(365,412,ls),
(444,411,o),
(524,406,o),
(539,364,c),
(556,368,l),
(556,529,l),
(539,531,l),
(524,489,o),
(444,484,o),
(365,483,cs),
(288,482,l),
(288,652,l),
(362,652,ls),
(524,652,o),
(572,597,o),
(628,519,c),
(646,527,l),
(602,722,l),
(20,722,l),
(20,698,l),
(36,698,ls),
(70,698,o),
(88,676,o),
(88,634,cs),
(88,49,ls),
(88,-55,o),
(82,-121,o),
(37,-188,c)
);
}
);
userData = {
com.hugojourdan.ColorFlow = {
"0" = 0;
"1" = 0;
"10" = 0;
"11" = 0;
"2" = 0;
"3" = 0;
"4" = 0;
"5" = 0;
"6" = 0;
"7" = 0;
"8" = 0;
"9" = 0;
};
};
width = 661;
},
{
anchors = (
{
name = bottom;
pos = (260,0);
},
{
name = top;
pos = (260,722);
}
);
layerId = "D54810B1-F9A5-4F35-A1FF-AED0599B2373";
shapes = (
{
closed = 1;
nodes = (
(60,-171,l),
(106,-101,o),
(163,-18,o),
(236,-14,c),
(236,416,l),
(360,416,ls),
(441,416,o),
(499,406,o),
(512,360,c),
(524,363,l),
(524,513,l),
(512,516,l),
(499,472,o),
(441,458,o),
(360,458,cs),
(236,458,l),
(236,680,l),
(323,680,ls),
(461,680,o),
(504,636,o),
(559,550,c),
(572,556,l),
(530,722,l),
(25,722,l),
(25,706,l),
(43,706,ls),
(78,706,o),
(95,686,o),
(95,642,cs),
(95,45,ls),
(95,-40,o),
(88,-94,o),
(46,-162,c)
);
}
);
userData = {
com.hugojourdan.ColorFlow = {
"0" = 0;
"1" = 0;
"10" = 0;
"11" = 0;
"2" = 0;
"3" = 0;
"4" = 0;
"5" = 0;
"6" = 0;
"7" = 0;
"8" = 0;
"9" = 0;
};
};
width = 596.20312;
}
);
unicode = 70;
}
{
color = 5;
glyphname = G;
kernLeft = O;
kernRight = I;
layers = (
{
anchors = (
{
name = bottom;
pos = (383,0);
},
{
name = top;
pos = (383,722);
}
);
guides = (
{
angle = -49.5599;
pos = (685,354);
}
);
layerId = "452AD06C-4D92-427C-8B35-838986F56274";
shapes = (
{
closed = 1;
nodes = (
(543,-14,o),
(621,31,o),
(700,101,c),
(697,119,o),
(696,137,o),
(696,156,cs),
(696,444,l),
(528,444,l),
(528,438,l),
(620,438,o),
(627,427,o),
(627,329,cs),
(627,108,l),
(607,80,o),
(556,11,o),
(421,11,cs),
(259,12,o),
(135,128,o),
(132,333,cs),
(129,540,o),
(239,715,o),
(425,715,cs),
(527,715,o),
(624,658,o),
(657,550,c),
(666,551,l),
(654,690,l),
(587,719,o),
(513,735,o),
(439,735,cs),
(208,735,o),
(48,585,o),
(50,348,cs),
(52,131,o),
(202,-14,o),
(405,-14,cs)
);
}
);
userData = {
com.hugojourdan.ColorFlow = {
"0" = 0;
"1" = 0;
"10" = 0;
"11" = 0;
"2" = 0;
"3" = 0;
"4" = 0;
"5" = 0;
"6" = 0;
"7" = 0;
"8" = 0;
"9" = 0;
};
};
width = 750;
},
{
anchors = (
{
name = bottom;
pos = (372,0);
},
{
name = top;
pos = (433,722);
}
);
guides = (
{
angle = -49.5599;
pos = (674,354);
}
);
layerId = m004;
shapes = (
{
closed = 1;
nodes = (
(560,-15,o),
(684,31,o),
(763,96,c),
(750,118,o),
(749,144,o),
(749,173,cs),
(749,424,l),
(425,424,l),
(425,398,l),
(538,400,o),
(554,386,o),
(554,286,cs),
(554,82,l),
(529,69,o),
(499,61,o),
(472,61,cs),
(333,61,o),
(264,224,o),
(264,382,cs),
(264,574,o),
(359,671,o),
(459,671,cs),
(542,671,o),
(628,606,o),
(669,473,c),
(692,476,l),
(685,686,l),
(630,725,o),
(552,745,o),
(469,745,cs),
(265,745,o),
(30,623,o),
(30,360,cs),
(30,147,o),
(162,-15,o),
(438,-15,cs)
);
}
);
userData = {
com.hugojourdan.ColorFlow = {
"0" = 0;
"1" = 0;
"10" = 0;
"11" = 0;
"2" = 0;
"3" = 0;
"4" = 0;
"5" = 0;
"6" = 0;
"7" = 0;
"8" = 0;
"9" = 0;
};
};
width = 793;
},
{
anchors = (
{
name = bottom;
pos = (378,0);
},
{
name = top;
pos = (378,722);
}
);
layerId = "D54810B1-F9A5-4F35-A1FF-AED0599B2373";
shapes = (
{
closed = 1;
nodes = (
(554,-16,o),
(656,31,o),
(735,98,c),
(727,118,o),
(726,141,o),
(726,165,cs),
(726,433,l),
(473,433,l),
(473,416,l),
(576,417,o),
(588,405,o),
(588,305,cs),
(588,94,l),
(565,74,o),
(525,39,o),
(449,39,cs),
(300,40,o),
(205,181,o),
(205,360,cs),
(205,558,o),
(305,692,o),
(444,692,cs),
(536,692,o),
(627,630,o),
(665,508,c),
(681,510,l),
(672,688,l),
(612,722,o),
(535,740,o),
(456,740,cs),
(242,740,o),
(40,605,o),
(40,355,cs),
(40,140,o),
(182,-16,o),
(425,-16,cs)
);
}
);
userData = {
com.hugojourdan.ColorFlow = {
"0" = 0;
"1" = 0;
"10" = 0;
"11" = 0;
"2" = 0;
"3" = 0;
"4" = 0;
"5" = 0;
"6" = 0;
"7" = 0;
"8" = 0;
"9" = 0;
};
};
width = 765;
}
);
unicode = 71;
}
{
color = 5;
glyphname = H;
kernLeft = D;
kernRight = I;
layers = (
{
anchors = (
{
name = bottom;
pos = (339,0);
},
{
name = top;
pos = (348,722);
}
);
layerId = "452AD06C-4D92-427C-8B35-838986F56274";
shapes = (
{
closed = 1;
nodes = (
(628,0,l),
(622,20,o),
(620,36,o),
(620,76,cs),
(620,608,ls),
(620,668,o),
(621,692,o),
(623,722,c),
(478,722,l),
(478,716,l),
(498,716,ls),
(534,716,o),
(550,697,o),
(550,652,cs),
(550,84,ls),
(550,40,o),
(548,24,o),
(540,0,c)
);
},
{
closed = 1;
nodes = (
(170,0,l),
(164,20,o),
(162,36,o),
(162,76,cs),
(162,608,ls),
(162,668,o),
(163,692,o),
(165,722,c),
(20,722,l),
(20,716,l),
(40,716,ls),
(76,716,o),
(92,697,o),
(92,652,cs),
(92,84,ls),
(92,40,o),
(90,24,o),
(82,0,c)
);
},
{
closed = 1;
nodes = (
(570,416,l),
(570,440,l),
(142,440,l),
(142,416,l)
);
}
);
userData = {
com.hugojourdan.ColorFlow = {
"0" = 0;
"1" = 0;
"10" = 0;
"11" = 0;
"2" = 0;
"3" = 0;
"4" = 0;
"5" = 0;
"6" = 0;
"7" = 0;
"8" = 0;
"9" = 0;
};
};
width = 678;
},
{
anchors = (
{
name = bottom;
pos = (398,0);
},
{
name = top;
pos = (378,722);
}
);
layerId = m004;
shapes = (
{
closed = 1;
nodes = (
(718,0,l),
(705,23,o),
(700,48,o),
(700,84,cs),
(700,596,ls),
(700,650,o),
(702,688,o),
(707,722,c),
(432,722,l),
(432,698,l),
(448,698,ls),
(482,698,o),
(500,676,o),
(500,634,cs),
(500,84,ls),
(500,48,o),
(494,24,o),
(480,0,c)
);
},
{
closed = 1;
nodes = (
(306,0,l),
(293,23,o),
(288,48,o),
(288,84,cs),
(288,596,ls),
(288,650,o),
(290,688,o),
(295,722,c),
(20,722,l),
(20,698,l),
(36,698,ls),
(70,698,o),
(88,676,o),
(88,634,cs),
(88,84,ls),
(88,48,o),
(82,24,o),
(68,0,c)
);
},
{
closed = 1;
nodes = (
(520,413,l),
(520,483,l),
(268,483,l),
(268,413,l)
);
}
);
userData = {
com.hugojourdan.ColorFlow = {
"0" = 0;
"1" = 0;
"10" = 0;
"11" = 0;
"2" = 0;
"3" = 0;
"4" = 0;
"5" = 0;
"6" = 0;
"7" = 0;
"8" = 0;
"9" = 0;
};
};
width = 758;
},
{
anchors = (
{
name = bottom;
pos = (372,0);
},
{
name = top;
pos = (365,722);
}
);
layerId = "D54810B1-F9A5-4F35-A1FF-AED0599B2373";
shapes = (
{
closed = 1;
nodes = (
(678,0,l),
(669,22,o),
(665,43,o),
(665,80,cs),
(665,602,ls),
(665,658,o),
(667,689,o),
(670,722,c),
(453,722,l),
(453,706,l),
(471,706,ls),
(506,706,o),
(523,686,o),
(523,642,cs),
(523,84,ls),
(523,44,o),
(519,24,o),
(508,0,c)
);
},
{
closed = 1;
nodes = (
(245,0,l),
(236,22,o),
(232,43,o),
(232,80,cs),
(232,602,ls),
(232,658,o),
(234,689,o),
(237,722,c),
(20,722,l),
(20,706,l),
(38,706,ls),
(73,706,o),
(90,686,o),
(90,642,cs),
(90,84,ls),
(90,44,o),
(86,24,o),
(75,0,c)
);
},
{
closed = 1;
nodes = (
(543,422,l),
(543,464,l),
(212,464,l),
(212,422,l)
);
}
);
userData = {
com.hugojourdan.ColorFlow = {
"0" = 0;
"1" = 0;
"10" = 0;
"11" = 0;
"2" = 0;
"3" = 0;
"4" = 0;
"5" = 0;
"6" = 0;
"7" = 0;
"8" = 0;
"9" = 0;
};
};
width = 728;
}
);
unicode = 72;
}
{
color = 5;
glyphname = I;
kernLeft = D;
kernRight = I;
layers = (
{
anchors = (
{
name = ogonek;
pos = (164,0);
},
{
name = top;
pos = (128,722);
}
);
layerId = "452AD06C-4D92-427C-8B35-838986F56274";
shapes = (
{
closed = 1;
nodes = (
(170,0,l),
(164,20,o),
(162,36,o),
(162,76,cs),
(162,722,l),
(20,722,l),
(20,716,l),
(40,716,ls),
(76,716,o),
(92,697,o),
(92,652,cs),
(92,84,ls),
(92,40,o),
(90,24,o),
(82,0,c)
);
}
);
userData = {
com.hugojourdan.ColorFlow = {
"0" = 0;
"1" = 0;
"10" = 0;
"11" = 0;
"2" = 0;
"3" = 0;
"4" = 0;
"5" = 0;
"6" = 0;
"7" = 0;
"8" = 0;
"9" = 0;
};
};
width = 220;
},
{
anchors = (
{
name = ogonek;
pos = (288,0);
},
{
name = top;
pos = (146,722);
}
);
layerId = m004;
shapes = (
{
closed = 1;
nodes = (
(296,0,l),
(283,23,o),
(278,48,o),
(278,84,cs),
(278,722,l),
(20,722,l),
(20,698,l),
(36,698,ls),
(70,698,o),
(88,676,o),
(88,634,cs),
(88,84,ls),
(88,48,o),
(82,24,o),
(68,0,c)
);
}
);
userData = {
com.hugojourdan.ColorFlow = {
"0" = 0;
"1" = 0;
"10" = 0;
"11" = 0;
"2" = 0;
"3" = 0;
"4" = 0;
"5" = 0;
"6" = 0;
"7" = 0;
"8" = 0;
"9" = 0;
};
};
width = 336;
},
{
anchors = (
{
name = ogonek;
pos = (232,0);
},
{
name = top;
pos = (145,722);
}
);
layerId = "D54810B1-F9A5-4F35-A1FF-AED0599B2373";
shapes = (
{
closed = 1;
nodes = (
(239,0,l),
(230,22,o),
(226,43,o),
(226,80,cs),
(226,722,l),
(20,722,l),
(20,706,l),
(38,706,ls),
(73,706,o),
(90,686,o),
(90,642,cs),
(90,84,ls),
(90,44,o),
(86,24,o),
(75,0,c)
);
}
);
userData = {
com.hugojourdan.ColorFlow = {
"0" = 0;
"1" = 0;
"10" = 0;
"11" = 0;
"2" = 0;
"3" = 0;
"4" = 0;
"5" = 0;
"6" = 0;
"7" = 0;
"8" = 0;
"9" = 0;
};
};
width = 289;
}
);
metricLeft = H;
metricRight = H;
unicode = 73;
}
{
color = 5;
glyphname = J;
kernLeft = D;
kernRight = J;
layers = (
{
anchors = (
{
name = bottom;
pos = (129,0);
},
{
name = top;
pos = (129,722);
}
);
layerId = "452AD06C-4D92-427C-8B35-838986F56274";
shapes = (
{
closed = 1;
nodes = (
(-51,-169,l),
(60,-119,o),
(173,-63,o),
(173,146,cs),
(173,722,l),
(31,722,l),
(31,716,l),
(51,716,ls),
(87,716,o),
(103,697,o),
(103,652,cs),
(103,146,ls),
(103,-22,o),
(83,-98,o),
(-55,-161,c)
);
}
);
userData = {
com.hugojourdan.ColorFlow = {
"0" = 0;
"1" = 0;
"10" = 0;
"11" = 0;
"2" = 0;
"3" = 0;
"4" = 0;
"5" = 0;
"6" = 0;
"7" = 0;
"8" = 0;
"9" = 0;
};
};
width = 233;
},
{
anchors = (
{
name = bottom;
pos = (139,0);
},
{
name = top;
pos = (150,722);
}
);
layerId = m004;
shapes = (
{
closed = 1;
nodes = (
(30,-314,l),
(203,-157,o),
(293,-85,o),
(293,69,cs),
(293,722,l),
(25,722,l),
(25,698,l),
(41,698,ls),
(75,698,o),
(93,676,o),
(93,634,cs),
(93,87,ls),
(93,-81,o),
(76,-184,o),
(5,-293,c)
);
}
);
userData = {
com.hugojourdan.ColorFlow = {
"0" = 0;
"1" = 0;
"10" = 0;
"11" = 0;
"2" = 0;
"3" = 0;
"4" = 0;
"5" = 0;
"6" = 0;
"7" = 0;
"8" = 0;
"9" = 0;
};
};
width = 335;
},
{
anchors = (
{
name = bottom;
pos = (134,0);
},
{
name = top;
pos = (134,722);
}
);
layerId = "D54810B1-F9A5-4F35-A1FF-AED0599B2373";
shapes = (
{
closed = 1;
nodes = (
(-7,-248,l),
(138,-140,o),
(239,-75,o),
(239,104,cs),
(239,722,l),
(28,722,l),
(28,706,l),
(46,706,ls),
(81,706,o),
(98,686,o),
(98,642,cs),
(98,114,ls),
(98,-54,o),
(79,-145,o),
(-22,-233,c)
);
}
);
userData = {
com.hugojourdan.ColorFlow = {
"0" = 0;
"1" = 0;
"10" = 0;
"11" = 0;
"2" = 0;
"3" = 0;
"4" = 0;
"5" = 0;
"6" = 0;
"7" = 0;
"8" = 0;
"9" = 0;
};
};
width = 288.78125;
}
);
unicode = 74;
}
{
color = 5;
glyphname = M;
kernLeft = M;
kernRight = M;
layers = (
{
anchors = (
{
name = bottom;
pos = (450,0);
},
{
name = top;
pos = (450,722);
}
);
layerId = "452AD06C-4D92-427C-8B35-838986F56274";
shapes = (
{
closed = 1;
nodes = (
(123,0,l),
(102,32,o),
(96,54,o),
(104,110,cs),
(173,624,l),
(429,-10,l),
(433,-10,l),
(670,590,l),
(753,108,ls),
(762,54,o),
(757,36,o),
(743,0,c),
(867,0,l),
(850,26,o),
(832,55,o),
(823,110,cs),
(737,645,ls),
(729,694,o),
(755,715,o),
(802,715,cs),
(828,715,l),
(828,722,l),
(698,722,l),
(454,121,l),
(210,722,l),
(56,722,l),
(56,715,l),
(82,715,ls),
(129,715,o),
(137,692,o),
(158,647,cs),
(149,666,l),
(78,110,ls),
(71,54,o),
(57,26,o),
(40,0,c)
);
}
);
userData = {
com.hugojourdan.ColorFlow = {
"0" = 0;
"1" = 0;
"10" = 0;
"11" = 0;
"2" = 0;
"3" = 0;
"4" = 0;
"5" = 0;
"6" = 0;
"7" = 0;
"8" = 0;
"9" = 0;
};
};
width = 897;
},
{
anchors = (
{
name = bottom;
pos = (409,0);
},
{
name = top;
pos = (409,722);
}
);
layerId = m004;
shapes = (
{
closed = 1;
nodes = (
(149,0,l),
(139,31,o),
(138,54,o),
(143,111,cs),
(175,473,l),
(357,0,l),
(416,0,l),
(594,461,l),
(625,128,ls),
(631,64,o),
(631,36,o),
(622,0,c),
(855,0,l),
(843,26,o),
(840,55,o),
(834,130,cs),
(791,634,ls),
(787,676,o),
(809,698,o),
(846,698,cs),
(864,698,l),
(864,722,l),
(615,722,l),
(460,339,l),
(314,722,l),
(30,722,l),
(30,698,l),
(48,698,ls),
(85,698,o),
(105,676,o),
(105,634,cs),
(105,638,l),
(59,111,ls),
(54,54,o),
(49,28,o),
(35,0,c)
);
}
);
userData = {
com.hugojourdan.ColorFlow = {
"0" = 0;
"1" = 0;
"10" = 0;
"11" = 0;
"2" = 0;
"3" = 0;
"4" = 0;
"5" = 0;
"6" = 0;
"7" = 0;
"8" = 0;
"9" = 0;
};
};
width = 894;
},
{
anchors = (
{
name = bottom;
pos = (425,0);
},
{
name = top;
pos = (425,722);
}
);
layerId = "D54810B1-F9A5-4F35-A1FF-AED0599B2373";
shapes = (
{
closed = 1;
nodes = (
(135,0,l),
(120,31,o),
(117,54,o),
(123,111,cs),
(172,541,l),
(387,-5,l),
(421,-5,l),
(626,519,l),
(681,119,ls),
(688,59,o),
(686,36,o),
(675,0,c),
(858,0,l),
(844,26,o),
(834,55,o),
(827,121,cs),
(764,639,ls),
(759,684,o),
(782,705,o),
(824,705,cs),
(845,705,l),
(845,722,l),
(650,722,l),
(455,240,l),
(265,722,l),
(38,722,l),
(38,705,l),
(60,705,ls),
(102,705,o),
(117,684,o),
(125,639,cs),
(123,651,l),
(65,111,ls),
(59,54,o),
(50,27,o),
(35,0,c)
);
}
);
userData = {
com.hugojourdan.ColorFlow = {
"0" = 0;
"1" = 0;
"10" = 0;
"11" = 0;
"2" = 0;
"3" = 0;
"4" = 0;
"5" = 0;
"6" = 0;
"7" = 0;
"8" = 0;
"9" = 0;
};
};
width = 893.54688;
}
);
unicode = 77;
}
{
color = 5;
glyphname = N;
kernLeft = N;
kernRight = N;
layers = (
{
anchors = (
{
name = bottom;
pos = (395,0);
},
{
name = top;
pos = (395,722);
}
);
layerId = "452AD06C-4D92-427C-8B35-838986F56274";
shapes = (
{
closed = 1;
nodes = (
(259,0,l),
(259,7,l),
(198,18,o),
(189,64,o),
(182,113,cs),
(169,198,o),
(166,358,o),
(162,629,c),
(692,-5,l),
(709,0,l),
(709,588,ls),
(709,658,o),
(710,684,o),
(715,722,c),
(585,722,l),
(585,715,l),
(616,715,o),
(638,713,o),
(653,676,cs),
(677,618,o),
(685,474,o),
(685,114,c),
(177,722,l),
(10,722,l),
(10,715,l),
(80,715,o),
(98,705,o),
(136,660,c),
(136,84,ls),
(136,40,o),
(134,24,o),
(126,0,c)
);
}
);
userData = {
com.hugojourdan.ColorFlow = {
"0" = 0;
"1" = 0;
"10" = 0;
"11" = 0;
"2" = 0;
"3" = 0;
"4" = 0;
"5" = 0;
"6" = 0;
"7" = 0;
"8" = 0;
"9" = 0;
};
};
width = 765;
},
{
anchors = (
{
name = bottom;
pos = (386,0);
},
{
name = top;
pos = (386,722);
}
);
layerId = m004;
shapes = (
{
closed = 1;
nodes = (
(343,0,l),
(343,24,l),
(288,30,o),
(256,56,o),
(235,113,cs),
(205,195,o),
(208,334,o),
(208,517,c),
(640,0,l),
(775,0,l),
(775,588,ls),
(775,645,o),
(780,684,o),
(793,722,c),
(560,722,l),
(560,698,l),
(599,699,o),
(639,687,o),
(666,630,cs),
(695,569,o),
(697,452,o),
(697,245,c),
(299,722,l),
(10,722,l),
(10,698,l),
(52,696,o),
(68,683,o),
(130,608,c),
(119,134,ls),
(118,77,o),
(112,38,o),
(99,0,c)
);
}
);
userData = {
com.hugojourdan.ColorFlow = {
"0" = 0;
"1" = 0;
"10" = 0;
"11" = 0;
"2" = 0;
"3" = 0;
"4" = 0;
"5" = 0;
"6" = 0;
"7" = 0;
"8" = 0;
"9" = 0;
};
};
width = 843;
},
{
anchors = (
{
name = bottom;
pos = (391,0);
},
{
name = top;
pos = (391,722);
}
);
layerId = "D54810B1-F9A5-4F35-A1FF-AED0599B2373";
shapes = (
{
closed = 1;
nodes = (
(305,0,l),
(305,16,l),
(248,24,o),
(226,59,o),
(211,112,cs),
(189,196,o),
(189,348,o),
(188,569,c),
(695,0,l),
(746,0,l),
(746,588,ls),
(746,652,o),
(749,684,o),
(757,722,c),
(572,722,l),
(572,708,l),
(607,708,o),
(639,701,o),
(661,653,cs),
(687,593,o),
(692,495,o),
(692,218,c),
(244,722,l),
(10,722,l),
(10,706,l),
(65,705,o),
(82,693,o),
(133,632,c),
(127,112,ls),
(126,58,o),
(123,32,o),
(112,0,c)
);
}
);
userData = {
com.hugojourdan.ColorFlow = {
"0" = 0;
"1" = 0;
"10" = 0;
"11" = 0;
"2" = 0;
"3" = 0;
"4" = 0;
"5" = 0;
"6" = 0;
"7" = 0;
"8" = 0;
"9" = 0;
};
};
width = 807;
}
);
unicode = 78;
}
{
color = 5;
glyphname = O;
kernLeft = O;
kernRight = O;
layers = (
{
anchors = (
{
name = bottom;
pos = (428,0);
},
{
name = center;
pos = (428,361);
},
{
name = ogonek;
pos = (791,10);
},
{
name = top;
pos = (428,722);
},
{
name = topleft;
pos = (-7,722);
},
{
name = topright;
pos = (862,722);
}
);
layerId = "452AD06C-4D92-427C-8B35-838986F56274";
shapes = (
{
closed = 1;
nodes = (
(679,-17,o),
(805,171,o),
(805,360,cs),
(805,549,o),
(679,738,o),
(428,738,cs),
(241,738,o),
(50,605,o),
(50,360,cs),
(50,109,o),
(231,-17,o),
(429,-17,cs)
);
},
{
closed = 1;
nodes = (
(227,6,o),
(127,190,o),
(127,370,cs),
(127,541,o),
(216,712,o),
(422,712,cs),
(622,712,o),
(726,526,o),
(726,345,cs),
(726,173,o),
(632,6,o),
(437,6,cs)
);
}
);
userData = {
com.hugojourdan.ColorFlow = {
"0" = 0;
"1" = 0;
"10" = 0;
"11" = 0;
"2" = 0;
"3" = 0;
"4" = 0;
"5" = 0;
"6" = 0;
"7" = 0;
"8" = 0;
"9" = 0;
};
};
width = 855;
},
{
anchors = (
{
name = bottom;
pos = (421,0);
},
{
name = center;
pos = (421,361);
},
{
name = ogonek;
pos = (784,10);
},
{
name = top;
pos = (396,722);
},
{
name = topleft;
pos = (-14,722);
},
{
name = topright;
pos = (855,722);
}
);
layerId = m004;
shapes = (
{
closed = 1;
nodes = (
(658,-20,o),
(772,161,o),
(772,356,cs),
(772,537,o),
(662,733,o),
(403,733,cs),
(143,733,o),
(30,537,o),
(30,356,cs),
(30,161,o),
(141,-20,o),
(403,-20,cs)
);
},
{
closed = 1;
nodes = (
(341,61,o),
(267,149,o),
(255,353,cs),
(243,564,o),
(309,652,o),
(387,654,cs),
(464,656,o),
(538,569,o),
(549,372,cs),
(561,154,o),
(487,61,o),
(413,61,cs)
);
}
);
userData = {
com.hugojourdan.ColorFlow = {
"0" = 0;
"1" = 0;
"10" = 0;
"11" = 0;
"2" = 0;
"3" = 0;
"4" = 0;
"5" = 0;
"6" = 0;
"7" = 0;
"8" = 0;
"9" = 0;
};
};
width = 802;
},
{
anchors = (
{
name = bottom;
pos = (428,0);
},
{
name = center;
pos = (428,361);
},
{
name = ogonek;
pos = (791,10);
},
{
name = top;
pos = (428,722);
},
{
name = topleft;
pos = (-7,722);
},
{
name = topright;
pos = (862,722);
}
);
layerId = "D54810B1-F9A5-4F35-A1FF-AED0599B2373";
shapes = (
{
closed = 1;
nodes = (
(673,-19,o),
(792,166,o),
(792,358,cs),
(792,542,o),
(673,735,o),
(418,735,cs),
(191,735,o),
(40,568,o),
(40,358,cs),
(40,137,o),
(181,-19,o),
(419,-19,cs)
);
},
{
closed = 1;
nodes = (
(297,36,o),
(209,168,o),
(203,361,cs),
(196,554,o),
(277,680,o),
(407,680,cs),
(532,680,o),
(621,550,o),
(627,360,cs),
(634,163,o),
(552,36,o),
(428,36,cs)
);
}
);
userData = {
com.hugojourdan.ColorFlow = {
"0" = 0;
"1" = 0;
"10" = 0;
"11" = 0;
"2" = 0;
"3" = 0;
"4" = 0;
"5" = 0;
"6" = 0;
"7" = 0;
"8" = 0;
"9" = 0;
};
};
width = 832;
}
);
unicode = 79;
}
{
color = 5;
glyphname = S;
kernLeft = S;
kernRight = S;
layers = (
{
anchors = (
{
name = bottom;
pos = (286,0);
},
{
name = top;
pos = (286,722);
}
);
layerId = "452AD06C-4D92-427C-8B35-838986F56274";
shapes = (
{
closed = 1;
nodes = (
(85,30,o),
(189,-16,o),
(287,-16,cs),
(413,-16,o),
(537,52,o),
(535,190,cs),
(533,301,o),
(428,356,o),
(322,403,cs),
(210,453,o),
(102,488,o),
(102,597,cs),
(102,658,o),
(153,704,o),
(240,705,cs),
(320,706,o),
(379,676,o),
(423,611,cs),
(447,574,o),
(466,527,o),
(481,467,c),
(489,469,l),
(451,682,l),
(393,713,o),
(327,729,o),
(256,729,cs),
(155,729,o),
(62,677,o),
(62,570,cs),
(62,429,o),
(170,390,o),
(278,343,cs),
(380,299,o),
(479,252,o),
(475,140,cs),
(472,52,o),
(399,9,o),
(313,9,cs),
(217,9,o),
(148,53,o),
(108,121,cs),
(80,168,o),
(63,227,o),
(63,290,c),
(54,291,l),
(40,96,l)
);
}
);
userData = {
com.hugojourdan.ColorFlow = {
"0" = 0;
"1" = 0;
"10" = 0;
"11" = 0;
"2" = 0;
"3" = 0;
"4" = 0;
"5" = 0;
"6" = 0;
"7" = 0;
"8" = 0;
"9" = 0;
};
};
width = 575;
},
{
anchors = (
{
name = bottom;
pos = (311,0);
},
{
name = top;
pos = (331,732);
}
);
layerId = m004;
shapes = (
{
closed = 1;
nodes = (
(117,5,o),
(236,-29,o),
(348,-29,cs),
(521,-29,o),
(676,50,o),
(678,241,cs),
(679,357,o),
(594,411,o),
(483,450,cs),
(358,493,o),
(250,518,o),
(251,587,cs),
(252,633,o),
(304,654,o),
(363,654,cs),
(438,654,o),
(522,617,o),
(522,528,cs),
(522,512,o),
(520,495,o),
(515,475,c),
(541,464,l),
(655,662,l),
(579,714,o),
(476,742,o),
(376,744,cs),
(221,746,o),
(84,685,o),
(84,524,cs),
(84,404,o),
(167,355,o),
(277,318,cs),
(411,273,o),
(494,242,o),
(496,169,cs),
(498,97,o),
(440,63,o),
(371,63,cs),
(291,63,o),
(198,110,o),
(173,200,cs),
(163,238,o),
(166,281,o),
(183,322,c),
(156,337,l),
(30,66,l)
);
}
);
userData = {
com.hugojourdan.ColorFlow = {
"0" = 0;
"1" = 0;
"10" = 0;
"11" = 0;
"2" = 0;
"3" = 0;
"4" = 0;
"5" = 0;
"6" = 0;
"7" = 0;
"8" = 0;
"9" = 0;
};
};
width = 711;
},
{
anchors = (
{
name = bottom;
pos = (300,0);
},
{
name = top;
pos = (300,727);
}
);
layerId = "D54810B1-F9A5-4F35-A1FF-AED0599B2373";
shapes = (
{
closed = 1;
nodes = (
(103,16,o),
(215,-23,o),
(320,-23,cs),
(472,-23,o),
(616,57,o),
(612,215,cs),
(609,331,o),
(524,386,o),
(413,428,cs),
(292,474,o),
(184,502,o),
(183,592,cs),
(182,643,o),
(236,677,o),
(307,677,cs),
(389,678,o),
(441,647,o),
(469,599,cs),
(490,563,o),
(498,518,o),
(497,470,c),
(517,466,l),
(563,671,l),
(495,714,o),
(408,736,o),
(322,737,cs),
(191,738,o),
(68,680,o),
(68,543,cs),
(68,414,o),
(176,369,o),
(285,327,cs),
(401,282,o),
(485,248,o),
(486,156,cs),
(487,77,o),
(421,39,o),
(345,39,cs),
(257,39,o),
(175,84,o),
(144,164,cs),
(125,206,o),
(119,256,o),
(128,310,c),
(110,316,l),
(35,80,l)
);
}
);
userData = {
com.hugojourdan.ColorFlow = {
"0" = 0;
"1" = 0;
"10" = 0;
"11" = 0;
"2" = 0;
"3" = 0;
"4" = 0;
"5" = 0;
"6" = 0;
"7" = 0;
"8" = 0;
"9" = 0;
};
};
width = 647;
}
);
unicode = 83;
}
{
color = 5;
glyphname = U;
kernLeft = U;
kernRight = U;
layers = (
{
anchors = (
{
name = bottom;
pos = (309,0);
},
{
name = ogonek;
pos = (580,10);
},
{
name = top;
pos = (309,722);
},
{
name = topright;
pos = (628,722);
}
);
layerId = "452AD06C-4D92-427C-8B35-838986F56274";
shapes = (
{
closed = 1;
nodes = (
(439,-18,o),
(566,47,o),
(566,273,cs),
(566,638,ls),
(566,682,o),
(568,698,o),
(576,722,c),
(454,722,l),
(454,716,l),
(478,716,ls),
(521,716,o),
(540,697,o),
(540,652,cs),
(540,267,ls),
(540,74,o),
(433,25,o),
(330,25,cs),
(233,25,o),
(135,60,o),
(135,240,cs),
(135,652,ls),
(135,697,o),
(156,716,o),
(203,716,cs),
(229,716,l),
(229,722,l),
(55,722,l),
(63,698,o),
(65,682,o),
(65,638,cs),
(65,251,ls),
(65,39,o),
(193,-18,o),
(314,-18,cs)
);
}
);
userData = {
com.hugojourdan.ColorFlow = {
"0" = 0;
"1" = 0;
"10" = 0;
"11" = 0;
"2" = 0;
"3" = 0;
"4" = 0;
"5" = 0;
"6" = 0;
"7" = 0;
"8" = 0;
"9" = 0;
};
};
width = 637;
},
{
anchors = (
{
name = bottom;
pos = (344,0);
},
{
name = ogonek;
pos = (615,10);
},
{
name = top;
pos = (344,722);
},
{
name = topright;
pos = (663,722);
}
);
layerId = m004;
shapes = (
{
closed = 1;
nodes = (
(558,-30,o),
(659,94,o),
(659,279,cs),
(659,638,ls),
(659,674,o),
(665,698,o),
(679,722,c),
(447,722,l),
(447,698,l),
(467,698,ls),
(507,698,o),
(529,676,o),
(529,634,cs),
(529,217,ls),
(529,138,o),
(480,77,o),
(396,77,cs),
(316,77,o),
(250,112,o),
(250,208,cs),
(250,634,ls),
(250,676,o),
(272,698,o),
(312,698,cs),
(332,698,l),
(332,722,l),
(30,722,l),
(44,698,o),
(50,674,o),
(50,638,cs),
(50,250,ls),
(50,33,o),
(201,-28,o),
(357,-29,cs)
);
}
);
userData = {
com.hugojourdan.ColorFlow = {
"0" = 0;
"1" = 0;
"10" = 0;
"11" = 0;
"2" = 0;
"3" = 0;
"4" = 0;
"5" = 0;
"6" = 0;
"7" = 0;
"8" = 0;
"9" = 0;
};
};
width = 709;
},
{
anchors = (
{
name = bottom;
pos = (328,0);
},
{
name = ogonek;
pos = (599,10);
},
{
name = top;
pos = (328,722);
},
{
name = topright;
pos = (647,722);
}
);
layerId = "D54810B1-F9A5-4F35-A1FF-AED0599B2373";
shapes = (
{
closed = 1;
nodes = (
(504,-25,o),
(617,73,o),
(617,276,cs),
(617,638,ls),
(617,678,o),
(621,698,o),
(632,722,c),
(450,722,l),
(450,706,l),
(472,706,ls),
(514,706,o),
(534,686,o),
(534,642,cs),
(534,240,ls),
(534,109,o),
(459,53,o),
(366,53,cs),
(278,53,o),
(198,88,o),
(198,223,cs),
(198,642,ls),
(198,686,o),
(219,706,o),
(263,706,cs),
(285,706,l),
(285,722,l),
(42,722,l),
(53,698,o),
(57,678,o),
(57,638,cs),
(57,250,ls),
(57,36,o),
(197,-23,o),
(338,-24,cs)
);
}
);
userData = {
com.hugojourdan.ColorFlow = {
"0" = 0;
"1" = 0;
"10" = 0;
"11" = 0;
"2" = 0;
"3" = 0;
"4" = 0;
"5" = 0;
"6" = 0;
"7" = 0;
"8" = 0;
"9" = 0;
};
};
width = 676.375;
}
);
unicode = 85;
}
{
color = 5;
glyphname = V;
kernLeft = V;
kernRight = V;
layers = (
{
anchors = (
{
name = bottom;
pos = (335,0);
},
{
name = top;
pos = (335,722);
}
);
layerId = "452AD06C-4D92-427C-8B35-838986F56274";
shapes = (
{
closed = 1;
nodes = (
(366,-12,l),
(371,-12,l),
(621,653,ls),
(637,695,o),
(640,715,o),
(668,715,cs),
(684,715,l),
(684,722,l),
(580,722,l),
(593,692,o),
(591,659,o),
(570,602,cs),
(455,295,ls),
(402,153,o),
(390,128,o),
(386,114,c),
(379,136,o),
(368,166,o),
(358,190,cs),
(171,635,ls),
(154,676,o),
(147,699,o),
(146,722,c),
(10,722,l),
(10,715,l),
(30,715,ls),
(66,715,o),
(70,689,o),
(91,640,cs)
);
}
);
userData = {
com.hugojourdan.ColorFlow = {
"0" = 0;
"1" = 0;
"10" = 0;
"11" = 0;
"2" = 0;
"3" = 0;
"4" = 0;
"5" = 0;
"6" = 0;
"7" = 0;
"8" = 0;
"9" = 0;
};
};
width = 694;
},
{
anchors = (
{
name = bottom;
pos = (410,0);
},
{
name = top;
pos = (410,722);
}
);
guides = (
{
angle = -66.2069;
pos = (463,337);
},
{
angle = 246.2069;
pos = (697,581);
}
);
layerId = m004;
shapes = (
{
closed = 1;
nodes = (
(374,0,l),
(447,0,l),
(710,635,ls),
(725,674,o),
(737,698,o),
(774,698,cs),
(792,698,l),
(792,722,l),
(626,722,l),
(641,697,o),
(643,655,o),
(615,587,cs),
(525,364,ls),
(500,302,o),
(495,292,o),
(490,274,c),
(485,286,o),
(473,315,o),
(463,337,cs),
(370,549,ls),
(327,646,o),
(319,675,o),
(319,722,c),
(10,722,l),
(10,698,l),
(28,698,ls),
(65,698,o),
(76,674,o),
(93,636,cs)
);
}
);
userData = {
com.hugojourdan.ColorFlow = {
"0" = 0;
"1" = 0;
"10" = 0;
"11" = 0;
"2" = 0;
"3" = 0;
"4" = 0;
"5" = 0;
"6" = 0;
"7" = 0;
"8" = 0;
"9" = 0;
};
};
width = 802;
},
{
anchors = (
{
name = bottom;
pos = (376,0);
},
{
name = top;
pos = (376,722);
}
);
layerId = "D54810B1-F9A5-4F35-A1FF-AED0599B2373";
shapes = (
{
closed = 1;
nodes = (
(370,-5,l),
(412,-5,l),
(669,643,ls),
(685,684,o),
(694,706,o),
(733,706,cs),
(748,706,l),
(748,722,l),
(617,722,l),
(623,695,o),
(618,657,o),
(594,594,cs),
(493,333,ls),
(455,234,o),
(447,218,o),
(443,202,c),
(437,218,o),
(425,247,o),
(415,270,cs),
(279,588,ls),
(248,660,o),
(240,688,o),
(240,722,c),
(10,722,l),
(10,706,l),
(29,706,ls),
(66,706,o),
(73,680,o),
(92,636,cs)
);
}
);
userData = {
com.hugojourdan.ColorFlow = {
"0" = 0;
"1" = 0;
"10" = 0;
"11" = 0;
"2" = 0;
"3" = 0;
"4" = 0;
"5" = 0;
"6" = 0;
"7" = 0;
"8" = 0;
"9" = 0;
};
};
width = 763;
}
);
unicode = 86;
}
{
color = 5;
glyphname = W;
kernLeft = V;
kernRight = V;
layers = (
{
anchors = (
{
name = bottom;
pos = (533,0);
},
{
name = top;
pos = (529,722);
}
);
layerId = "452AD06C-4D92-427C-8B35-838986F56274";
shapes = (
{
closed = 1;
nodes = (
(294,-10,l),
(299,-10,l),
(507,590,l),
(731,-12,l),
(736,-12,l),
(942,653,ls),
(955,696,o),
(961,716,o),
(994,716,cs),
(1012,716,l),
(1012,722,l),
(914,722,l),
(921,700,o),
(922,670,o),
(900,602,cs),
(751,133,l),
(532,722,l),
(400,722,l),
(400,715,l),
(422,715,ls),
(462,715,o),
(466,690,o),
(487,640,cs),
(494,623,l),
(322,136,l),
(153,722,l),
(20,722,l),
(20,716,l),
(40,716,ls),
(76,716,o),
(82,691,o),
(98,639,cs)
);
}
);
userData = {
com.hugojourdan.ColorFlow = {
"0" = 0;
"1" = 0;
"10" = 0;
"11" = 0;
"2" = 0;
"3" = 0;
"4" = 0;
"5" = 0;
"6" = 0;
"7" = 0;
"8" = 0;
"9" = 0;
};
};
width = 1022;
},
{
anchors = (
{
name = bottom;
pos = (618,0);
},
{
name = top;
pos = (530,723);
}
);
layerId = m004;
shapes = (
{
closed = 1;
nodes = (
(332,0,l),
(431,-1,l),
(600,447,l),
(768,0,l),
(872,-1,l),
(1096,635,ls),
(1110,675,o),
(1123,698,o),
(1161,698,cs),
(1178,698,l),
(1179,722,l),
(1022,722,l),
(1029,697,o),
(1032,660,o),
(1006,587,cs),
(895,274,l),
(733,721,l),
(449,722,l),
(449,698,l),
(466,698,ls),
(504,698,o),
(515,675,o),
(530,635,cs),
(563,546,l),
(459,274,l),
(294,721,l),
(10,722,l),
(10,698,l),
(28,698,ls),
(65,698,o),
(79,676,o),
(94,636,cs)
);
}
);
userData = {
com.hugojourdan.ColorFlow = {
"0" = 0;
"1" = 0;
"10" = 0;
"11" = 0;
"2" = 0;
"3" = 0;
"4" = 0;
"5" = 0;
"6" = 0;
"7" = 0;
"8" = 0;
"9" = 0;
};
};
width = 1189;
},
{
anchors = (
{
name = bottom;
pos = (590,0);
},
{
name = top;
pos = (520,723);
}
);
layerId = "D54810B1-F9A5-4F35-A1FF-AED0599B2373";
shapes = (
{
closed = 1;
nodes = (
(326,-5,l),
(382,-5,l),
(569,512,l),
(762,-5,l),
(821,-6,l),
(1038,643,ls),
(1052,685,o),
(1061,706,o),
(1097,706,cs),
(1115,706,l),
(1115,722,l),
(979,722,l),
(991,698,o),
(993,665,o),
(969,594,cs),
(841,210,l),
(653,721,l),
(438,722,l),
(438,705,l),
(458,705,ls),
(496,705,o),
(505,681,o),
(522,636,cs),
(543,581,l),
(408,211,l),
(241,721,l),
(26,722,l),
(25,706,l),
(44,706,ls),
(81,706,o),
(90,681,o),
(106,636,cs)
);
}
);
userData = {
com.hugojourdan.ColorFlow = {
"0" = 0;
"1" = 0;
"10" = 0;
"11" = 0;
"2" = 0;
"3" = 0;
"4" = 0;
"5" = 0;
"6" = 0;
"7" = 0;
"8" = 0;
"9" = 0;
};
};
width = 1120.1875;
}
);
unicode = 87;
}
{
color = 5;
glyphname = Y;
kernLeft = Y;
kernRight = Y;
layers = (
{
anchors = (
{
name = bottom;
pos = (341,0);
},
{
name = top;
pos = (311,722);
},
{
name = topleft;
pos = (36,722);
}
);
layerId = "452AD06C-4D92-427C-8B35-838986F56274";
shapes = (
{
closed = 1;
nodes = (
(237,-134,l),
(264,-86,o),
(303,0,o),
(346,0,c),
(346,378,l),
(488,615,ls),
(532,688,o),
(562,711,o),
(596,715,c),
(596,722,l),
(466,722,l),
(479,681,o),
(472,650,o),
(441,598,cs),
(331,416,l),
(180,670,ls),
(170,686,o),
(160,706,o),
(157,722,c),
(10,722,l),
(10,715,l),
(34,715,ls),
(77,715,o),
(82,690,o),
(107,648,cs),
(276,366,l),
(276,10,ls),
(276,-31,o),
(268,-61,o),
(228,-130,c)
);
}
);
userData = {
com.hugojourdan.ColorFlow = {
"0" = 0;
"1" = 0;
"10" = 0;
"11" = 0;
"2" = 0;
"3" = 0;
"4" = 0;
"5" = 0;
"6" = 0;
"7" = 0;
"8" = 0;
"9" = 0;
};
};
width = 606;
},
{
anchors = (
{
name = bottom;
pos = (335,0);
},
{
name = top;
pos = (335,722);
},
{
name = topleft;
pos = (30,722);
}
);
layerId = m004;
shapes = (
{
closed = 1;
nodes = (
(236,-146,l),
(305,-39,o),
(368,-10,o),
(458,0,c),
(458,371,l),
(558,569,ls),
(607,666,o),
(632,697,o),
(672,698,c),
(672,722,l),
(505,722,l),
(516,693,o),
(524,665,o),
(477,568,cs),
(426,464,l),
(313,656,ls),
(295,687,o),
(287,704,o),
(286,722,c),
(7,722,l),
(7,698,l),
(27,698,ls),
(67,698,o),
(78,673,o),
(99,637,cs),
(258,367,l),
(258,75,ls),
(258,-31,o),
(251,-68,o),
(212,-132,c)
);
}
);
userData = {
com.hugojourdan.ColorFlow = {
"0" = 0;
"1" = 0;
"10" = 0;
"11" = 0;
"2" = 0;
"3" = 0;
"4" = 0;
"5" = 0;
"6" = 0;
"7" = 0;
"8" = 0;
"9" = 0;
};
};
width = 679;
},
{
anchors = (
{
name = bottom;
pos = (341,0);
},
{
name = top;
pos = (341,722);
},
{
name = topleft;
pos = (36,722);
}
);
layerId = "D54810B1-F9A5-4F35-A1FF-AED0599B2373";
shapes = (
{
closed = 1;
nodes = (
(239,-141,l),
(289,-60,o),
(341,-5,o),
(410,0,c),
(410,374,l),
(529,590,ls),
(576,676,o),
(603,704,o),
(640,706,c),
(640,722,l),
(490,722,l),
(502,688,o),
(506,657,o),
(464,582,cs),
(386,442,l),
(256,662,ls),
(241,687,o),
(232,705,o),
(230,722,c),
(12,722,l),
(12,706,l),
(33,706,ls),
(75,706,o),
(82,681,o),
(106,641,cs),
(269,367,l),
(269,46,ls),
(269,-31,o),
(262,-65,o),
(222,-131,c)
);
}
);
userData = {
com.hugojourdan.ColorFlow = {
"0" = 0;
"1" = 0;
"10" = 0;
"11" = 0;
"2" = 0;
"3" = 0;
"4" = 0;
"5" = 0;
"6" = 0;
"7" = 0;
"8" = 0;
"9" = 0;
};
};
width = 652;
}
);
unicode = 89;
}
{
color = 5;
glyphname = Z;
kernLeft = Z;
kernRight = Z;
layers = (
{
anchors = (
{
name = bottom;
pos = (335,0);
},
{
name = center;
pos = (335,361);
},
{
name = top;
pos = (335,722);
}
);
layerId = "452AD06C-4D92-427C-8B35-838986F56274";
shapes = (
{
closed = 1;
nodes = (
(98,53,o),
(160,93,o),
(265,86,cs),
(394,78,o),
(489,-57,o),
(606,6,c),
(606,60,o),
(637,142,o),
(637,190,c),
(629,191,l),
(625,142,o),
(603,64,o),
(531,64,cs),
(447,64,o),
(372,127,o),
(269,127,cs),
(221,127,o),
(166,116,o),
(104,74,c),
(100,78,l),
(649,732,l),
(640,739,l),
(598,721,o),
(553,722,o),
(416,722,cs),
(263,722,o),
(183,718,o),
(124,748,c),
(52,530,l),
(60,527,l),
(110,646,o),
(131,658,o),
(253,658,cs),
(527,658,l),
(10,-3,l),
(31,-17,l)
);
}
);
userData = {
com.hugojourdan.ColorFlow = {
"0" = 0;
"1" = 0;
"10" = 0;
"11" = 0;
"2" = 0;
"3" = 0;
"4" = 0;
"5" = 0;
"6" = 0;
"7" = 0;
"8" = 0;
"9" = 0;
};
};
width = 669;
},
{
anchors = (
{
name = bottom;
pos = (326,0);
},
{
name = center;
pos = (326,361);
},
{
name = top;
pos = (326,722);
}
);
layerId = m004;
shapes = (
{
closed = 1;
nodes = (
(91,-1,o),
(165,2,o),
(237,0,cs),
(349,-3,o),
(482,-3,o),
(607,1,c),
(611,96,o),
(648,221,o),
(654,286,c),
(629,291,l),
(610,215,o),
(580,199,o),
(525,185,cs),
(476,173,o),
(411,170,o),
(333,170,cs),
(278,170,o),
(227,170,o),
(181,167,c),
(177,175,l),
(680,722,l),
(667,742,l),
(618,721,o),
(544,722,o),
(407,722,cs),
(254,722,o),
(175,718,o),
(136,742,c),
(35,444,l),
(61,435,l),
(102,520,o),
(126,548,o),
(218,548,cs),
(406,548,l),
(-6,39,l),
(27,-6,l)
);
}
);
userData = {
com.hugojourdan.ColorFlow = {
"0" = 0;
"1" = 0;
"10" = 0;
"11" = 0;
"2" = 0;
"3" = 0;
"4" = 0;
"5" = 0;
"6" = 0;
"7" = 0;
"8" = 0;
"9" = 0;
};
};
width = 689;
},
{
anchors = (
{
name = bottom;
pos = (339,0);
},
{
name = center;
pos = (339,361);
},
{
name = top;
pos = (339,722);
}
);
layerId = "D54810B1-F9A5-4F35-A1FF-AED0599B2373";
shapes = (
{
closed = 1;
nodes = (
(103,23,o),
(172,43,o),
(259,39,cs),
(378,34,o),
(494,-27,o),
(616,3,c),
(618,80,o),
(652,185,o),
(655,243,c),
(638,246,l),
(626,182,o),
(599,138,o),
(537,130,cs),
(472,124,o),
(402,151,o),
(313,151,cs),
(261,151,o),
(208,146,o),
(155,125,c),
(151,131,l),
(675,727,l),
(664,741,l),
(618,721,o),
(557,722,o),
(420,722,cs),
(267,722,o),
(188,718,o),
(140,745,c),
(52,483,l),
(70,477,l),
(115,577,o),
(137,598,o),
(243,598,cs),
(470,598,l),
(10,20,l),
(38,-11,l)
);
}
);
userData = {
com.hugojourdan.ColorFlow = {
"0" = 0;
"1" = 0;
"10" = 0;
"11" = 0;
"2" = 0;
"3" = 0;
"4" = 0;
"5" = 0;
"6" = 0;
"7" = 0;
"8" = 0;
"9" = 0;
};
};
width = 685;
}
);
unicode = 90;
}
{
glyphname = bracketleft;
layers = (
{
layerId = "452AD06C-4D92-427C-8B35-838986F56274";
shapes = (
{
closed = 1;
nodes = (
(345,-96,l),
(346,-64,o),
(352,-8,o),
(373,56,c),
(364,59,l),
(311,-51,o),
(255,-78,o),
(183,-78,cs),
(146,-78,o),
(142,-65,o),
(142,-15,cs),
(142,802,l),
(165,802,ls),
(237,802,o),
(298,775,o),
(351,665,c),
(360,668,l),
(339,732,o),
(333,788,o),
(332,820,c),
(60,820,l),
(76,793,o),
(80,779,o),
(80,722,cs),
(80,-7,ls),
(80,-52,o),
(75,-69,o),
(60,-96,c)
);
}
);
userData = {
com.hugojourdan.ColorFlow = {
"0" = 0;
"1" = 0;
"10" = 0;
"11" = 0;
"2" = 0;
"3" = 0;
"4" = 0;
"5" = 0;
"6" = 0;
"7" = 0;
"8" = 0;
"9" = 0;
};
};
width = 413;
},
{
layerId = m004;
shapes = (
{
closed = 1;
nodes = (
(433,-96,l),
(434,36,o),
(440,92,o),
(461,156,c),
(437,163,l),
(394,53,o),
(343,-48,o),
(271,-48,cs),
(234,-48,o),
(230,-35,o),
(230,15,cs),
(230,772,l),
(258,772,ls),
(325,772,o),
(358,722,o),
(419,565,c),
(445,576,l),
(424,640,o),
(421,788,o),
(420,820,c),
(60,820,l),
(76,793,o),
(80,779,o),
(80,722,cs),
(80,-7,ls),
(80,-52,o),
(75,-69,o),
(60,-96,c)
);
}
);
userData = {
com.hugojourdan.ColorFlow = {
"0" = 0;
"1" = 0;
"10" = 0;
"11" = 0;
"2" = 0;
"3" = 0;
"4" = 0;
"5" = 0;
"6" = 0;
"7" = 0;
"8" = 0;
"9" = 0;
};
};
width = 501;
},
{
layerId = "D54810B1-F9A5-4F35-A1FF-AED0599B2373";
shapes = (
{
closed = 1;
nodes = (
(393,-96,l),
(394,-9,o),
(400,47,o),
(421,111,c),
(403,116,l),
(356,6,o),
(303,-62,o),
(231,-62,cs),
(194,-62,o),
(190,-49,o),
(190,1,cs),
(190,786,l),
(215,786,ls),
(285,786,o),
(330,746,o),
(388,610,c),
(406,618,l),
(385,682,o),
(381,788,o),
(380,820,c),
(60,820,l),
(76,793,o),
(80,779,o),
(80,722,cs),
(80,-7,ls),
(80,-52,o),
(75,-69,o),
(60,-96,c)
);
}
);
userData = {
com.hugojourdan.ColorFlow = {
"0" = 0;
"1" = 0;
"10" = 0;
"11" = 0;
"2" = 0;
"3" = 0;
"4" = 0;
"5" = 0;
"6" = 0;
"7" = 0;
"8" = 0;
"9" = 0;
};
};
width = 461;
}
);
note = bracketleft;
unicode = 91;
}
{
glyphname = bracketright;
layers = (
{
layerId = "452AD06C-4D92-427C-8B35-838986F56274";
shapes = (
{
closed = 1;
nodes = (
(353,-96,l),
(338,-69,o),
(333,-52,o),
(333,-7,cs),
(333,722,ls),
(333,779,o),
(337,793,o),
(353,820,c),
(81,820,l),
(80,788,o),
(74,732,o),
(53,668,c),
(62,665,l),
(115,775,o),
(176,802,o),
(248,802,cs),
(271,802,l),
(271,-15,ls),
(271,-65,o),
(267,-78,o),
(230,-78,cs),
(158,-78,o),
(102,-51,o),
(49,59,c),
(40,56,l),
(61,-8,o),
(67,-64,o),
(68,-96,c)
);
}
);
userData = {
com.hugojourdan.ColorFlow = {
"0" = 0;
"1" = 0;
"10" = 0;
"11" = 0;
"2" = 0;
"3" = 0;
"4" = 0;
"5" = 0;
"6" = 0;
"7" = 0;
"8" = 0;
"9" = 0;
};
};
width = 413;
},
{
layerId = m004;
shapes = (
{
closed = 1;
nodes = (
(441,-96,l),
(426,-69,o),
(421,-52,o),
(421,-7,cs),
(421,722,ls),
(421,779,o),
(425,793,o),
(441,820,c),
(81,820,l),
(80,788,o),
(77,640,o),
(56,576,c),
(82,565,l),
(133,705,o),
(192,772,o),
(238,772,cs),
(271,772,l),
(271,15,ls),
(271,-35,o),
(267,-48,o),
(230,-48,cs),
(158,-48,o),
(107,53,o),
(64,163,c),
(40,156,l),
(61,92,o),
(67,36,o),
(68,-96,c)
);
}
);
userData = {
com.hugojourdan.ColorFlow = {
"0" = 0;
"1" = 0;
"10" = 0;
"11" = 0;
"2" = 0;
"3" = 0;
"4" = 0;
"5" = 0;
"6" = 0;
"7" = 0;
"8" = 0;
"9" = 0;
};
};
width = 501;
},
{
layerId = "D54810B1-F9A5-4F35-A1FF-AED0599B2373";
shapes = (
{
closed = 1;
nodes = (
(401,-96,l),
(386,-69,o),
(381,-52,o),
(381,-7,cs),
(381,722,ls),
(381,779,o),
(385,793,o),
(401,820,c),
(81,820,l),
(80,788,o),
(75,682,o),
(54,618,c),
(73,610,l),
(125,737,o),
(185,786,o),
(242,786,cs),
(271,786,l),
(271,1,ls),
(271,-49,o),
(267,-62,o),
(230,-62,cs),
(158,-62,o),
(105,6,o),
(57,116,c),
(40,111,l),
(61,47,o),
(67,-9,o),
(68,-96,c)
);
}
);
userData = {
com.hugojourdan.ColorFlow = {
"0" = 0;
"1" = 0;
"10" = 0;
"11" = 0;
"2" = 0;
"3" = 0;
"4" = 0;
"5" = 0;
"6" = 0;
"7" = 0;
"8" = 0;
"9" = 0;
};
};
width = 461;
}
);
note = bracketright;
unicode = 93;
}
{
glyphname = asciicircum;
layers = (
{
layerId = "452AD06C-4D92-427C-8B35-838986F56274";
shapes = (
{
closed = 1;
nodes = (
(177,660,l),
(307,560,l),
(312,565,l),
(177,731,l),
(42,565,l),
(47,560,l)
);
}
);
userData = {
com.hugojourdan.ColorFlow = {
"0" = 0;
"1" = 0;
"10" = 0;
"11" = 0;
"2" = 0;
"3" = 0;
"4" = 0;
"5" = 0;
"6" = 0;
"7" = 0;
"8" = 0;
"9" = 0;
};
};
width = 354;
},
{
layerId = m004;
shapes = (
{
closed = 1;
nodes = (
(231,599,l),
(385,550,l),
(398,585,l),
(231,719,l),
(64,585,l),
(78,550,l)
);
}
);
userData = {
com.hugojourdan.ColorFlow = {
"0" = 0;
"1" = 0;
"10" = 0;
"11" = 0;
"2" = 0;
"3" = 0;
"4" = 0;
"5" = 0;
"6" = 0;
"7" = 0;
"8" = 0;
"9" = 0;
};
};
width = 462;
},
{
layerId = "D54810B1-F9A5-4F35-A1FF-AED0599B2373";
shapes = (
{
closed = 1;
nodes = (
(207,627,l),
(350,555,l),
(359,576,l),
(207,724,l),
(54,576,l),
(64,555,l)
);
}
);
userData = {
com.hugojourdan.ColorFlow = {
"0" = 0;
"1" = 0;
"10" = 0;
"11" = 0;
"2" = 0;
"3" = 0;
"4" = 0;
"5" = 0;
"6" = 0;
"7" = 0;
"8" = 0;
"9" = 0;
};
};
width = 413.0625;
}
);
unicode = 94;
}
{
color = 5;
glyphname = grave;
layers = (
{
layerId = "452AD06C-4D92-427C-8B35-838986F56274";
shapes = (
{
closed = 1;
nodes = (
(226,512,l),
(104,674,l),
(19,674,l),
(220,506,l)
);
}
);
userData = {
com.hugojourdan.ColorFlow = {
"0" = 0;
"1" = 0;
"10" = 0;
"11" = 0;
"2" = 0;
"3" = 0;
"4" = 0;
"5" = 0;
"6" = 0;
"7" = 0;
"8" = 0;
"9" = 0;
};
};
width = 281;
},
{
layerId = m004;
shapes = (
{
closed = 1;
nodes = (
(240,588,l),
(168,823,l),
(10,823,l),
(210,578,l)
);
}
);
userData = {
com.hugojourdan.ColorFlow = {
"0" = 0;
"1" = 0;
"10" = 0;
"11" = 0;
"2" = 0;
"3" = 0;
"4" = 0;
"5" = 0;
"6" = 0;
"7" = 0;
"8" = 0;
"9" = 0;
};
};
width = 281;
},
{
layerId = "D54810B1-F9A5-4F35-A1FF-AED0599B2373";
shapes = (
{
closed = 1;
nodes = (
(234,554,l),
(139,755,l),
(14,755,l),
(215,545,l)
);
}
);
userData = {
com.hugojourdan.ColorFlow = {
"0" = 0;
"1" = 0;
"10" = 0;
"11" = 0;
"2" = 0;
"3" = 0;
"4" = 0;
"5" = 0;
"6" = 0;
"7" = 0;
"8" = 0;
"9" = 0;
};
};
width = 281;
}
);
unicode = 96;
}
{
color = 5;
glyphname = a;
kernLeft = a;
kernRight = a;
layers = (
{
anchors = (
{
name = ogonek;
pos = (494,0);
},
{
name = top;
pos = (198,500);
}
);
guides = (
{
angle = -65.1519;
pos = (270,458);
}
);
layerId = "452AD06C-4D92-427C-8B35-838986F56274";
shapes = (
{
closed = 1;
nodes = (
(492,0,l),
(278,461,ls),
(269,481,o),
(267,488,o),
(268,500,c),
(101,500,l),
(101,493,l),
(133,493,ls),
(191,493,o),
(204,470,o),
(225,425,cs),
(393,63,ls),
(408,31,o),
(410,19,o),
(406,0,c)
);
},
{
closed = 1;
nodes = (
(278,-12,o),
(354,48,o),
(374,132,c),
(366,144,l),
(342,76,o),
(281,32,o),
(212,32,cs),
(137,32,o),
(86,83,o),
(86,162,cs),
(86,263,o),
(163,331,o),
(282,336,c),
(278,352,l),
(133,352,o),
(30,268,o),
(30,150,cs),
(30,55,o),
(96,-12,o),
(190,-12,cs)
);
}
);
userData = {
com.hugojourdan.ColorFlow = {
"0" = 0;
"1" = 0;
"10" = 0;
"11" = 0;
"2" = 0;
"3" = 0;
"4" = 0;
"5" = 0;
"6" = 0;
"7" = 0;
"8" = 0;
"9" = 0;
};
};
width = 502;
},
{
anchors = (
{
name = ogonek;
pos = (619,0);
},
{
name = top;
pos = (297,500);
}
);
guides = (
{
angle = -65.1519;
pos = (289,458);
},
{
angle = -66.0375;
pos = (400,44);
}
);
layerId = m004;
shapes = (
{
closed = 1;
nodes = (
(619,0,l),
(415,460,ls),
(407,477,o),
(405,488,o),
(408,500,c),
(64,500,l),
(64,476,l),
(103,476,ls),
(184,476,o),
(218,452,o),
(236,414,cs),
(393,64,ls),
(404,37,o),
(406,19,o),
(398,0,c)
);
},
{
closed = 1;
nodes = (
(291,-12,o),
(366,51,o),
(377,140,c),
(353,200,l),
(342,154,o),
(308,124,o),
(265,124,cs),
(219,124,o),
(189,158,o),
(189,212,cs),
(189,279,o),
(234,324,o),
(305,328,c),
(281,360,l),
(131,360,o),
(25,275,o),
(25,156,cs),
(25,58,o),
(96,-12,o),
(197,-12,cs)
);
}
);
userData = {
com.hugojourdan.ColorFlow = {
"0" = 0;
"1" = 0;
"10" = 0;
"11" = 0;
"2" = 0;
"3" = 0;
"4" = 0;
"5" = 0;
"6" = 0;
"7" = 0;
"8" = 0;
"9" = 0;
};
};
width = 634;
},
{
anchors = (
{
name = ogonek;
pos = (565,0);
},
{
name = top;
pos = (255,500);
}
);
layerId = "D54810B1-F9A5-4F35-A1FF-AED0599B2373";
shapes = (
{
closed = 1;
nodes = (
(564,0,l),
(356,460,ls),
(348,479,o),
(346,488,o),
(348,500,c),
(85,500,l),
(85,482,l),
(112,482,ls),
(191,482,o),
(211,470,o),
(240,405,cs),
(395,63,ls),
(408,34,o),
(411,19,o),
(404,0,c)
);
},
{
closed = 1;
nodes = (
(288,-12,o),
(363,50,o),
(378,136,c),
(362,175,l),
(345,119,o),
(298,82,o),
(244,82,cs),
(185,82,o),
(145,124,o),
(145,189,cs),
(145,272,o),
(205,327,o),
(297,332,c),
(282,356,l),
(135,356,o),
(30,272,o),
(30,153,cs),
(30,57,o),
(99,-12,o),
(197,-12,cs)
);
}
);
userData = {
com.hugojourdan.ColorFlow = {
"0" = 0;
"1" = 0;
"10" = 0;
"11" = 0;
"2" = 0;
"3" = 0;
"4" = 0;
"5" = 0;
"6" = 0;
"7" = 0;
"8" = 0;
"9" = 0;
};
};
width = 584;
}
);
unicode = 97;
}
{
color = 5;
glyphname = c;
kernLeft = o;
kernRight = c;
layers = (
{
anchors = (
{
name = bottom;
pos = (257,0);
},
{
name = top;
pos = (281,500);
}
);
layerId = "452AD06C-4D92-427C-8B35-838986F56274";
shapes = (
{
closed = 1;
nodes = (
(359,-7,o),
(448,39,o),
(497,140,c),
(490,144,l),
(452,71,o),
(382,35,o),
(311,35,cs),
(171,35,o),
(95,161,o),
(95,279,cs),
(95,382,o),
(154,477,o),
(281,480,cs),
(371,482,o),
(428,438,o),
(413,347,c),
(421,344,l),
(464,464,l),
(421,491,o),
(364,505,o),
(305,505,cs),
(117,505,o),
(30,376,o),
(30,247,cs),
(30,120,o),
(115,-7,o),
(272,-7,cs)
);
}
);
userData = {
com.hugojourdan.ColorFlow = {
"0" = 0;
"1" = 0;
"10" = 0;
"11" = 0;
"2" = 0;
"3" = 0;
"4" = 0;
"5" = 0;
"6" = 0;
"7" = 0;
"8" = 0;
"9" = 0;
};
};
width = 517;
},
{
anchors = (
{
name = bottom;
pos = (267,0);
},
{
name = top;
pos = (267,500);
}
);
layerId = m004;
shapes = (
{
closed = 1;
nodes = (
(372,-12,o),
(472,44,o),
(518,168,c),
(502,176,l),
(480,141,o),
(433,120,o),
(382,120,cs),
(300,120,o),
(211,173,o),
(211,307,cs),
(211,400,o),
(276,447,o),
(332,447,cs),
(416,447,o),
(420,363,o),
(412,314,c),
(431,310,l),
(496,475,l),
(447,499,o),
(386,513,o),
(325,513,cs),
(177,513,o),
(25,435,o),
(25,239,cs),
(25,80,o),
(148,-12,o),
(273,-12,cs)
);
}
);
userData = {
com.hugojourdan.ColorFlow = {
"0" = 0;
"1" = 0;
"10" = 0;
"11" = 0;
"2" = 0;
"3" = 0;
"4" = 0;
"5" = 0;
"6" = 0;
"7" = 0;
"8" = 0;
"9" = 0;
};
};
width = 535;
},
{
anchors = (
{
name = bottom;
pos = (265,0);
},
{
name = top;
pos = (265,500);
}
);
layerId = "D54810B1-F9A5-4F35-A1FF-AED0599B2373";
shapes = (
{
closed = 1;
nodes = (
(369,-10,o),
(464,42,o),
(512,155,c),
(500,162,l),
(471,110,o),
(413,81,o),
(353,81,cs),
(245,81,o),
(161,168,o),
(161,294,cs),
(161,392,o),
(224,462,o),
(312,462,cs),
(400,462,o),
(425,397,o),
(410,330,c),
(424,327,l),
(485,470,l),
(438,495,o),
(379,509,o),
(319,509,cs),
(153,509,o),
(30,408,o),
(30,243,cs),
(30,98,o),
(136,-10,o),
(276,-10,cs)
);
}
);
userData = {
com.hugojourdan.ColorFlow = {
"0" = 0;
"1" = 0;
"10" = 0;
"11" = 0;
"2" = 0;
"3" = 0;
"4" = 0;
"5" = 0;
"6" = 0;
"7" = 0;
"8" = 0;
"9" = 0;
};
};
width = 530;
}
);
metricLeft = o;
unicode = 99;
}
{
color = 5;
glyphname = d;
kernLeft = o;
kernRight = d;
layers = (
{
anchors = (
{
name = bottom;
pos = (313,0);
},
{
name = center;
pos = (313,250);
},
{
name = top;
pos = (313,800);
},
{
name = topright;
pos = (556,539);
}
);
layerId = "452AD06C-4D92-427C-8B35-838986F56274";
shapes = (
{
closed = 1;
nodes = (
(410,510,l),
(374,517,o),
(339,520,o),
(305,520,cs),
(150,520,o),
(30,444,o),
(30,256,cs),
(30,125,o),
(112,-5,o),
(268,-5,cs),
(322,-5,o),
(372,9,o),
(413,33,c),
(415,21,o),
(417,10,o),
(420,0,c),
(480,0,l),
(474,20,o),
(472,36,o),
(472,76,cs),
(472,599,ls),
(472,635,o),
(474,655,o),
(487,678,c),
(487,682,l),
(394,827,l),
(389,824,l),
(405,788,o),
(410,748,o),
(410,685,cs)
);
},
{
closed = 1;
nodes = (
(99,422,o),
(172,484,o),
(262,487,cs),
(314,489,o),
(367,475,o),
(410,443,c),
(410,85,l),
(376,40,o),
(331,18,o),
(286,18,cs),
(162,18,o),
(99,146,o),
(99,268,cs)
);
}
);
userData = {
com.hugojourdan.ColorFlow = {
"0" = 0;
"1" = 0;
"10" = 0;
"11" = 0;
"2" = 0;
"3" = 0;
"4" = 0;
"5" = 0;
"6" = 0;
"7" = 0;
"8" = 0;
"9" = 0;
};
};
width = 547;
},
{
anchors = (
{
name = bottom;
pos = (313,0);
},
{
name = center;
pos = (313,250);
},
{
name = top;
pos = (313,800);
},
{
name = topright;
pos = (574,500);
}
);
layerId = m004;
shapes = (
{
closed = 1;
nodes = (
(351,505,l),
(333,507,o),
(316,509,o),
(300,509,cs),
(113,509,o),
(25,357,o),
(25,214,cs),
(25,47,o),
(129,-20,o),
(230,-20,cs),
(281,-20,o),
(330,-3,o),
(365,26,c),
(369,16,o),
(374,6,o),
(377,0,c),
(553,0,l),
(540,23,o),
(535,48,o),
(535,84,cs),
(535,568,ls),
(535,611,o),
(543,638,o),
(561,656,c),
(561,668,l),
(345,828,l),
(333,820,l),
(349,771,o),
(351,745,o),
(351,656,cs)
);
},
{
closed = 1;
nodes = (
(219,344,o),
(256,439,o),
(325,439,cs),
(333,439,o),
(342,438,o),
(351,435,c),
(351,106,ls),
(351,79,o),
(332,63,o),
(309,63,cs),
(243,63,o),
(219,155,o),
(219,253,cs)
);
}
);
userData = {
com.hugojourdan.ColorFlow = {
"0" = 0;
"1" = 0;
"10" = 0;
"11" = 0;
"2" = 0;
"3" = 0;
"4" = 0;
"5" = 0;
"6" = 0;
"7" = 0;
"8" = 0;
"9" = 0;
};
};
width = 611;
},
{
anchors = (
{
name = bottom;
pos = (316,0);
},
{
name = center;
pos = (316,250);
},
{
name = top;
pos = (316,800);
},
{
name = topright;
pos = (571,500);
}
);
layerId = "D54810B1-F9A5-4F35-A1FF-AED0599B2373";
shapes = (
{
closed = 1;
nodes = (
(381,507,l),
(355,512,o),
(329,514,o),
(305,514,cs),
(133,514,o),
(30,396,o),
(30,233,cs),
(30,82,o),
(124,-13,o),
(250,-13,cs),
(303,-13,o),
(352,2,o),
(390,29,c),
(393,18,o),
(396,8,o),
(399,0,c),
(522,0,l),
(513,22,o),
(509,43,o),
(509,80,cs),
(509,572,l),
(511,612,o),
(517,636,o),
(533,657,c),
(533,665,l),
(369,817,l),
(360,811,l),
(375,767,o),
(380,731,o),
(380,680,cs)
);
},
{
closed = 1;
nodes = (
(168,379,o),
(221,459,o),
(299,461,cs),
(327,462,o),
(356,455,o),
(381,439,c),
(381,96,l),
(365,61,o),
(335,43,o),
(302,43,cs),
(209,43,o),
(168,151,o),
(168,260,cs)
);
}
);
userData = {
com.hugojourdan.ColorFlow = {
"0" = 0;
"1" = 0;
"10" = 0;
"11" = 0;
"2" = 0;
"3" = 0;
"4" = 0;
"5" = 0;
"6" = 0;
"7" = 0;
"8" = 0;
"9" = 0;
};
};
width = 583;
}
);
metricLeft = o;
metricRight = l;
unicode = 100;
}
{
color = 5;
glyphname = e;
kernLeft = o;
kernRight = e;
layers = (
{
anchors = (
{
name = bottom;
pos = (255,0);
},
{
name = ogonek;
pos = (453,10);
},
{
name = top;
pos = (251,500);
}
);
layerId = "452AD06C-4D92-427C-8B35-838986F56274";
shapes = (
{
closed = 1;
nodes = (
(351,-13,o),
(438,36,o),
(473,133,c),
(467,136,l),
(435,68,o),
(367,32,o),
(298,32,cs),
(197,32,o),
(92,110,o),
(92,280,cs),
(92,386,o),
(145,482,o),
(247,482,cs),
(314,482,o),
(380,433,o),
(382,329,c),
(83,329,l),
(83,302,l),
(444,302,l),
(452,316,l),
(444,456,o),
(358,505,o),
(272,505,cs),
(123,505,o),
(30,392,o),
(30,243,cs),
(30,71,o),
(147,-13,o),
(262,-13,cs)
);
}
);
userData = {
com.hugojourdan.ColorFlow = {
"0" = 0;
"1" = 0;
"10" = 0;
"11" = 0;
"2" = 0;
"3" = 0;
"4" = 0;
"5" = 0;
"6" = 0;
"7" = 0;
"8" = 0;
"9" = 0;
};
};
width = 503;
},
{
anchors = (
{
name = bottom;
pos = (267,0);
},
{
name = ogonek;
pos = (469,10);
},
{
name = top;
pos = (267,500);
}
);
layerId = m004;
shapes = (
{
closed = 1;
nodes = (
(385,-12,o),
(474,58,o),
(508,168,c),
(490,178,l),
(473,142,o),
(426,119,o),
(374,119,cs),
(295,119,o),
(209,175,o),
(209,324,cs),
(209,400,o),
(232,447,o),
(264,447,cs),
(296,447,o),
(315,391,o),
(313,334,c),
(187,334,l),
(187,282,l),
(471,282,l),
(481,312,l),
(483,409,o),
(412,507,o),
(282,507,cs),
(114,507,o),
(25,372,o),
(25,239,cs),
(25,112,o),
(107,-12,o),
(273,-12,cs)
);
}
);
userData = {
com.hugojourdan.ColorFlow = {
"0" = 0;
"1" = 0;
"10" = 0;
"11" = 0;
"2" = 0;
"3" = 0;
"4" = 0;
"5" = 0;
"6" = 0;
"7" = 0;
"8" = 0;
"9" = 0;
};
};
width = 528;
},
{
anchors = (
{
name = bottom;
pos = (265,0);
},
{
name = ogonek;
pos = (465,10);
},
{
name = top;
pos = (263,500);
}
);
layerId = "D54810B1-F9A5-4F35-A1FF-AED0599B2373";
shapes = (
{
closed = 1;
nodes = (
(373,-12,o),
(464,48,o),
(500,152,c),
(489,158,l),
(464,108,o),
(406,80,o),
(344,80,cs),
(243,80,o),
(159,159,o),
(159,304,cs),
(159,391,o),
(196,463,o),
(259,463,cs),
(307,463,o),
(349,407,o),
(347,332,c),
(143,332,l),
(143,291,l),
(462,291,l),
(471,317,l),
(476,426,o),
(393,506,o),
(283,506,cs),
(132,506,o),
(30,395,o),
(30,244,cs),
(30,84,o),
(140,-12,o),
(271,-12,cs)
);
}
);
userData = {
com.hugojourdan.ColorFlow = {
"0" = 0;
"1" = 0;
"10" = 0;
"11" = 0;
"2" = 0;
"3" = 0;
"4" = 0;
"5" = 0;
"6" = 0;
"7" = 0;
"8" = 0;
"9" = 0;
};
};
width = 520;
}
);
metricLeft = o;
unicode = 101;
}
{
color = 5;
glyphname = f;
kernLeft = f;
kernRight = f;
layers = (
{
guides = (
{
angle = 249.0151;
pos = (318,626);
}
);
layerId = "452AD06C-4D92-427C-8B35-838986F56274";
shapes = (
{
closed = 1;
nodes = (
(20,-181,l),
(69,-99,o),
(106,-40,o),
(142,0,c),
(142,624,ls),
(142,725,o),
(179,784,o),
(242,784,cs),
(304,784,o),
(334,733,o),
(312,628,c),
(318,626,l),
(378,719,l),
(343,779,o),
(296,803,o),
(239,803,cs),
(158,803,o),
(78,739,o),
(78,608,cs),
(78,52,ls),
(78,-23,o),
(55,-92,o),
(10,-176,c)
);
},
{
closed = 1;
nodes = (
(78,500,l),
(55,478,l),
(57,470,l),
(258,470,l),
(274,511,l),
(266,514,l),
(258,501,o),
(243,500,o),
(211,500,cs)
);
}
);
userData = {
com.hugojourdan.ColorFlow = {
"0" = 0;
"1" = 0;
"10" = 0;
"11" = 0;
"2" = 0;
"3" = 0;
"4" = 0;
"5" = 0;
"6" = 0;
"7" = 0;
"8" = 0;
"9" = 0;
};
};
width = 318;
},
{
layerId = m004;
shapes = (
{
closed = 1;
nodes = (
(62,-184,l),
(130,-100,o),
(190,-48,o),
(286,0,c),
(286,634,ls),
(286,707,o),
(307,746,o),
(355,746,cs),
(405,746,o),
(438,679,o),
(433,579,c),
(450,574,l),
(540,713,l),
(497,767,o),
(439,804,o),
(336,804,cs),
(188,804,o),
(102,721,o),
(102,592,cs),
(102,52,ls),
(102,-41,o),
(86,-108,o),
(48,-174,c)
);
},
{
closed = 1;
nodes = (
(102,500,l),
(42,448,l),
(45,430,l),
(412,430,l),
(432,522,l),
(414,526,l),
(402,505,o),
(390,500,o),
(352,500,cs)
);
}
);
userData = {
com.hugojourdan.ColorFlow = {
"0" = 0;
"1" = 0;
"10" = 0;
"11" = 0;
"2" = 0;
"3" = 0;
"4" = 0;
"5" = 0;
"6" = 0;
"7" = 0;
"8" = 0;
"9" = 0;
};
};
width = 459;
},
{
layerId = "D54810B1-F9A5-4F35-A1FF-AED0599B2373";
shapes = (
{
closed = 1;
nodes = (
(32,-183,l),
(91,-100,o),
(141,-44,o),
(210,0,c),
(210,629,ls),
(210,715,o),
(238,763,o),
(293,763,cs),
(348,763,o),
(380,703,o),
(367,601,c),
(379,598,l),
(456,716,l),
(416,772,o),
(363,804,o),
(281,804,cs),
(163,804,o),
(80,729,o),
(80,599,cs),
(80,52,ls),
(80,-33,o),
(61,-101,o),
(20,-175,c)
);
},
{
closed = 1;
nodes = (
(80,500,l),
(38,462,l),
(39,450,l),
(331,450,l),
(349,517,l),
(336,521,l),
(326,503,o),
(312,500,o),
(277,500,cs)
);
}
);
userData = {
com.hugojourdan.ColorFlow = {
"0" = 0;
"1" = 0;
"10" = 0;
"11" = 0;
"2" = 0;
"3" = 0;
"4" = 0;
"5" = 0;
"6" = 0;
"7" = 0;
"8" = 0;
"9" = 0;
};
};
width = 384;
}
);
unicode = 102;
}
{
color = 5;
glyphname = g;
kernLeft = g;
kernRight = g;
layers = (
{
anchors = (
{
name = bottom;
pos = (260,-200);
},
{
name = top;
pos = (260,500);
}
);
layerId = "452AD06C-4D92-427C-8B35-838986F56274";
shapes = (
{
closed = 1;
nodes = (
(20,-143,l),
(50,-233,o),
(155,-274,o),
(245,-276,cs),
(410,-277,o),
(503,-161,o),
(507,-69,cs),
(512,36,o),
(446,55,o),
(337,46,cs),
(245,40,o),
(136,36,o),
(122,86,c),
(155,98,o),
(210,118,o),
(284,154,cs),
(393,207,o),
(458,279,o),
(458,352,cs),
(458,395,o),
(437,437,o),
(389,470,c),
(436,488,o),
(496,493,o),
(536,493,c),
(536,500,l),
(500,502,o),
(478,513,o),
(465,535,c),
(366,484,l),
(337,496,o),
(313,501,o),
(284,501,cs),
(170,501,o),
(100,416,o),
(100,324,cs),
(100,259,o),
(135,192,o),
(212,147,c),
(177,124,o),
(115,101,o),
(52,80,c),
(55,38,o),
(82,14,o),
(121,1,c)
);
},
{
closed = 1;
nodes = (
(185,-15,o),
(250,-19,o),
(306,-16,cs),
(412,-10,o),
(470,-22,o),
(465,-112,cs),
(462,-187,o),
(368,-248,o),
(277,-245,cs),
(146,-240,o),
(91,-178,o),
(92,-109,cs),
(93,-74,o),
(107,-36,o),
(132,-3,c)
);
},
{
closed = 1;
nodes = (
(147,446,o),
(211,479,o),
(266,477,cs),
(340,474,o),
(395,415,o),
(395,345,cs),
(395,290,o),
(362,229,o),
(280,181,c),
(196,213,o),
(150,294,o),
(148,361,cs)
);
}
);
userData = {
com.hugojourdan.ColorFlow = {
"0" = 0;
"1" = 0;
"10" = 0;
"11" = 0;
"2" = 0;
"3" = 0;
"4" = 0;
"5" = 0;
"6" = 0;
"7" = 0;
"8" = 0;
"9" = 0;
};
};
width = 546;
},
{
anchors = (
{
name = bottom;
pos = (334,-200);
},
{
name = top;
pos = (335,515);
}
);
layerId = m004;
shapes = (
{
closed = 1;
nodes = (
(20,-184,l),
(51,-277,o),
(136,-317,o),
(231,-322,cs),
(386,-330,o),
(575,-234,o),
(578,-49,cs),
(579,25,o),
(534,47,o),
(461,53,cs),
(372,60,o),
(235,53,o),
(209,96,c),
(280,117,o),
(344,137,o),
(415,166,cs),
(504,202,o),
(560,261,o),
(560,328,cs),
(560,377,o),
(534,426,o),
(479,464,c),
(529,472,o),
(577,476,o),
(633,476,c),
(633,500,l),
(587,503,o),
(557,524,o),
(535,557,c),
(396,502,l),
(382,504,o),
(364,506,o),
(333,506,cs),
(221,506,o),
(78,453,o),
(78,317,cs),
(78,251,o),
(116,186,o),
(189,144,c),
(146,125,o),
(91,108,o),
(32,94,c),
(38,34,o),
(76,-8,o),
(121,-32,c)
);
},
{
closed = 1;
nodes = (
(241,-92,o),
(325,-91,o),
(380,-103,cs),
(415,-110,o),
(440,-122,o),
(444,-152,cs),
(452,-200,o),
(409,-223,o),
(354,-223,cs),
(286,-223,o),
(199,-187,o),
(170,-119,cs),
(161,-99,o),
(158,-76,o),
(162,-52,c)
);
},
{
closed = 1;
nodes = (
(255,417,o),
(285,445,o),
(315,443,cs),
(352,441,o),
(388,395,o),
(390,321,cs),
(391,275,o),
(376,230,o),
(342,199,c),
(280,237,o),
(253,302,o),
(254,356,cs)
);
}
);
userData = {
com.hugojourdan.ColorFlow = {
"0" = 0;
"1" = 0;
"10" = 0;
"11" = 0;
"2" = 0;
"3" = 0;
"4" = 0;
"5" = 0;
"6" = 0;
"7" = 0;
"8" = 0;
"9" = 0;
};
};
width = 653;
},
{
anchors = (
{
name = bottom;
pos = (305,-200);
},
{
name = top;
pos = (306,508);
}
);
layerId = "D54810B1-F9A5-4F35-A1FF-AED0599B2373";
shapes = (
{
closed = 1;
nodes = (
(25,-165,l),
(55,-257,o),
(150,-298,o),
(242,-301,cs),
(402,-306,o),
(547,-201,o),
(551,-58,cs),
(554,30,o),
(499,51,o),
(410,50,cs),
(319,51,o),
(195,45,o),
(175,91,c),
(228,108,o),
(288,128,o),
(361,161,cs),
(459,204,o),
(519,269,o),
(519,339,cs),
(519,385,o),
(495,431,o),
(443,467,c),
(495,482,o),
(546,484,o),
(594,484,c),
(594,500,l),
(553,503,o),
(526,519,o),
(508,547,c),
(357,500,l),
(342,502,o),
(328,503,o),
(313,503,cs),
(200,503,o),
(90,442,o),
(93,320,cs),
(94,255,o),
(130,189,o),
(204,145,c),
(165,125,o),
(107,105,o),
(46,88,c),
(51,36,o),
(84,2,o),
(126,-17,c)
);
},
{
closed = 1;
nodes = (
(221,-57,o),
(296,-61,o),
(351,-64,cs),
(419,-68,o),
(458,-77,o),
(458,-134,cs),
(458,-194,o),
(395,-234,o),
(324,-233,cs),
(227,-231,o),
(155,-183,o),
(140,-114,cs),
(135,-88,o),
(140,-58,o),
(153,-30,c)
);
},
{
closed = 1;
nodes = (
(211,427,o),
(250,460,o),
(293,460,cs),
(342,460,o),
(396,415,o),
(397,332,cs),
(398,282,o),
(375,230,o),
(319,191,c),
(247,226,o),
(211,298,o),
(211,358,cs)
);
}
);
userData = {
com.hugojourdan.ColorFlow = {
"0" = 0;
"1" = 0;
"10" = 0;
"11" = 0;
"2" = 0;
"3" = 0;
"4" = 0;
"5" = 0;
"6" = 0;
"7" = 0;
"8" = 0;
"9" = 0;
};
};
width = 608.53125;
}
);
unicode = 103;
}
{
color = 5;
glyphname = h;
kernLeft = l;
kernRight = n;
layers = (
{
anchors = (
{
name = bottom;
pos = (253,0);
},
{
name = center;
pos = (253,400);
},
{
name = top;
pos = (274,770);
}
);
layerId = "452AD06C-4D92-427C-8B35-838986F56274";
shapes = (
{
closed = 1;
nodes = (
(266,-76,l),
(389,28,o),
(476,189,o),
(476,312,cs),
(476,441,o),
(391,507,o),
(288,507,cs),
(231,507,o),
(169,487,o),
(112,446,c),
(122,366,l),
(145,440,o),
(212,486,o),
(280,486,cs),
(363,486,o),
(408,412,o),
(408,300,cs),
(408,172,o),
(349,22,o),
(257,-70,c)
);
},
{
ref = l;
}
);
userData = {
com.hugojourdan.ColorFlow = {
"0" = 0;
"1" = 0;
"10" = 0;
"11" = 0;
"2" = 0;
"3" = 0;
"4" = 0;
"5" = 0;
"6" = 0;
"7" = 0;
"8" = 0;
"9" = 0;
};
};
width = 506;
},
{
anchors = (
{
name = bottom;
pos = (299,0);
},
{
name = center;
pos = (299,400);
},
{
name = top;
pos = (349,789);
}
);
layerId = m004;
shapes = (
{
closed = 1;
nodes = (
(312,-85,l),
(468,-1,o),
(578,162,o),
(578,308,cs),
(578,425,o),
(503,508,o),
(398,508,cs),
(338,508,o),
(270,481,o),
(236,444,c),
(236,392,l),
(252,404,o),
(272,412,o),
(290,412,cs),
(350,412,o),
(388,337,o),
(388,220,cs),
(388,103,o),
(355,-12,o),
(303,-75,c)
);
},
{
ref = l;
}
);
userData = {
com.hugojourdan.ColorFlow = {
"0" = 0;
"1" = 0;
"10" = 0;
"11" = 0;
"2" = 0;
"3" = 0;
"4" = 0;
"5" = 0;
"6" = 0;
"7" = 0;
"8" = 0;
"9" = 0;
};
};
width = 598;
},
{
anchors = (
{
name = bottom;
pos = (281,0);
},
{
name = center;
pos = (281,400);
},
{
name = top;
pos = (318,786);
}
);
layerId = "D54810B1-F9A5-4F35-A1FF-AED0599B2373";
shapes = (
{
closed = 1;
nodes = (
(291,-81,l),
(432,12,o),
(532,174,o),
(532,310,cs),
(532,432,o),
(452,508,o),
(348,508,cs),
(290,508,o),
(224,484,o),
(180,445,c),
(184,380,l),
(204,420,o),
(245,446,o),
(285,446,cs),
(356,446,o),
(397,371,o),
(397,256,cs),
(397,134,o),
(352,3,o),
(282,-73,c)
);
},
{
alignment = -1;
ref = l;
}
);
userData = {
com.hugojourdan.ColorFlow = {
"0" = 0;
"1" = 0;
"10" = 0;
"11" = 0;
"2" = 0;
"3" = 0;
"4" = 0;
"5" = 0;
"6" = 0;
"7" = 0;
"8" = 0;
"9" = 0;
};
};
width = 562;
}
);
metricLeft = l;
metricRight = n;
unicode = 104;
}
{
color = 5;
glyphname = i;
kernLeft = i;
kernRight = i;
layers = (
{
layerId = "452AD06C-4D92-427C-8B35-838986F56274";
shapes = (
{
alignment = -1;
ref = idotless;
},
{
closed = 1;
nodes = (
(137,568,o),
(157,588,o),
(157,612,cs),
(157,636,o),
(137,656,o),
(113,656,cs),
(89,656,o),
(69,636,o),
(69,612,cs),
(69,588,o),
(89,568,o),
(113,568,cs)
);
}
);
userData = {
com.hugojourdan.ColorFlow = {
"0" = 0;
"1" = 0;
"10" = 0;
"11" = 0;
"2" = 0;
"3" = 0;
"4" = 0;
"5" = 0;
"6" = 0;
"7" = 0;
"8" = 0;
"9" = 0;
};
};
width = 216;
},
{
layerId = m004;
shapes = (
{
ref = idotless;
},
{
closed = 1;
nodes = (
(218,563,o),
(252,597,o),
(252,640,cs),
(252,682,o),
(218,716,o),
(176,716,cs),
(133,716,o),
(99,682,o),
(99,640,cs),
(99,597,o),
(133,563,o),
(176,563,cs)
);
}
);
userData = {
com.hugojourdan.ColorFlow = {
"0" = 0;
"1" = 0;
"10" = 0;
"11" = 0;
"2" = 0;
"3" = 0;
"4" = 0;
"5" = 0;
"6" = 0;
"7" = 0;
"8" = 0;
"9" = 0;
};
};
width = 330;
},
{
layerId = "D54810B1-F9A5-4F35-A1FF-AED0599B2373";
shapes = (
{
alignment = -1;
ref = idotless;
},
{
closed = 1;
nodes = (
(172,577,o),
(198,603,o),
(198,635,cs),
(198,667,o),
(172,693,o),
(140,693,cs),
(108,693,o),
(82,667,o),
(82,635,cs),
(82,603,o),
(108,577,o),
(140,577,cs)
);
}
);
userData = {
com.hugojourdan.ColorFlow = {
"0" = 0;
"1" = 0;
"10" = 0;
"11" = 0;
"2" = 0;
"3" = 0;
"4" = 0;
"5" = 0;
"6" = 0;
"7" = 0;
"8" = 0;
"9" = 0;
};
};
width = 267;
}
);
metricLeft = idotless;
metricRight = idotless;
unicode = 105;
}
{
color = 5;
glyphname = j;
kernLeft = j;
kernRight = j;
layers = (
{
layerId = "452AD06C-4D92-427C-8B35-838986F56274";
shapes = (
{
ref = jdotless;
},
{
closed = 1;
nodes = (
(125,568,o),
(145,588,o),
(145,612,cs),
(145,636,o),
(125,656,o),
(101,656,cs),
(77,656,o),
(57,636,o),
(57,612,cs),
(57,588,o),
(77,568,o),
(101,568,cs)
);
}
);
userData = {
com.hugojourdan.ColorFlow = {
"0" = 0;
"1" = 0;
"10" = 0;
"11" = 0;
"2" = 0;
"3" = 0;
"4" = 0;
"5" = 0;
"6" = 0;
"7" = 0;
"8" = 0;
"9" = 0;
};
};
width = 212;
},
{
layerId = m004;
shapes = (
{
ref = jdotless;
},
{
closed = 1;
nodes = (
(205,563,o),
(239,597,o),
(239,640,cs),
(239,682,o),
(205,716,o),
(163,716,cs),
(120,716,o),
(86,682,o),
(86,640,cs),
(86,597,o),
(120,563,o),
(163,563,cs)
);
}
);
userData = {
com.hugojourdan.ColorFlow = {
"0" = 0;
"1" = 0;
"10" = 0;
"11" = 0;
"2" = 0;
"3" = 0;
"4" = 0;
"5" = 0;
"6" = 0;
"7" = 0;
"8" = 0;
"9" = 0;
};
};
width = 316;
},
{
layerId = "D54810B1-F9A5-4F35-A1FF-AED0599B2373";
shapes = (
{
alignment = -1;
pos = (8,0);
ref = jdotless;
},
{
closed = 1;
nodes = (
(173,577,o),
(199,603,o),
(199,635,cs),
(199,667,o),
(173,693,o),
(141,693,cs),
(109,693,o),
(83,667,o),
(83,635,cs),
(83,603,o),
(109,577,o),
(141,577,cs)
);
}
);
userData = {
com.hugojourdan.ColorFlow = {
"0" = 0;
"1" = 0;
"10" = 0;
"11" = 0;
"2" = 0;
"3" = 0;
"4" = 0;
"5" = 0;
"6" = 0;
"7" = 0;
"8" = 0;
"9" = 0;
};
};
width = 276.1875;
}
);
unicode = 106;
}
{
color = 5;
glyphname = k;
kernLeft = l;
kernRight = k;
layers = (
{
anchors = (
{
name = bottom;
pos = (282,0);
},
{
name = top;
pos = (282,800);
}
);
layerId = "452AD06C-4D92-427C-8B35-838986F56274";
shapes = (
{
closed = 1;
nodes = (
(297,458,o),
(272,419,o),
(193,344,cs),
(130,284,l),
(138,259,l),
(152,272,l),
(265,100,ls),
(311,29,o),
(320,21,o),
(326,0,c),
(459,0,l),
(459,7,l),
(411,12,o),
(391,26,o),
(334,112,cs),
(204,310,l),
(257,363,ls),
(325,431,o),
(390,487,o),
(432,493,c),
(432,500,l),
(304,500,l)
);
},
{
ref = l;
}
);
userData = {
com.hugojourdan.ColorFlow = {
"0" = 0;
"1" = 0;
"10" = 0;
"11" = 0;
"2" = 0;
"3" = 0;
"4" = 0;
"5" = 0;
"6" = 0;
"7" = 0;
"8" = 0;
"9" = 0;
};
};
width = 489;
},
{
anchors = (
{
name = bottom;
pos = (284,0);
},
{
name = top;
pos = (284,800);
}
);
layerId = m004;
shapes = (
{
closed = 1;
nodes = (
(416,466,o),
(406,446,o),
(354,394,cs),
(245,285,l),
(245,244,l),
(257,244,l),
(362,54,ls),
(374,32,o),
(378,17,o),
(377,0,c),
(617,0,l),
(617,21,l),
(581,27,o),
(567,42,o),
(530,110,cs),
(413,322,l),
(450,362,ls),
(522,439,o),
(547,470,o),
(573,476,c),
(573,500,l),
(420,500,l)
);
},
{
ref = l;
}
);
userData = {
com.hugojourdan.ColorFlow = {
"0" = 0;
"1" = 0;
"10" = 0;
"11" = 0;
"2" = 0;
"3" = 0;
"4" = 0;
"5" = 0;
"6" = 0;
"7" = 0;
"8" = 0;
"9" = 0;
};
};
width = 627;
},
{
anchors = (
{
name = bottom;
pos = (283,0);
},
{
name = top;
pos = (283,800);
}
);
guides = (
{
angle = 122.7212;
pos = (439,108);
}
);
layerId = "D54810B1-F9A5-4F35-A1FF-AED0599B2373";
shapes = (
{
closed = 1;
nodes = (
(352,462,o),
(331,428,o),
(267,366,cs),
(173,276,l),
(176,251,l),
(189,251,l),
(306,69,ls),
(330,31,o),
(336,19,o),
(336,0,c),
(520,0,l),
(520,15,l),
(482,20,o),
(467,39,o),
(423,108,cs),
(290,315,l),
(341,366,ls),
(413,438,o),
(466,478,o),
(499,484,c),
(499,500,l),
(357,500,l)
);
},
{
alignment = -1;
ref = l;
}
);
userData = {
com.hugojourdan.ColorFlow = {
"0" = 0;
"1" = 0;
"10" = 0;
"11" = 0;
"2" = 0;
"3" = 0;
"4" = 0;
"5" = 0;
"6" = 0;
"7" = 0;
"8" = 0;
"9" = 0;
};
};
width = 540;
}
);
metricLeft = l;
unicode = 107;
}
{
color = 5;
glyphname = l;
kernLeft = l;
kernRight = l;
layers = (
{
anchors = (
{
name = bottom;
pos = (112,0);
},
{
name = top;
pos = (110,800);
}
);
layerId = "452AD06C-4D92-427C-8B35-838986F56274";
shapes = (
{
closed = 1;
nodes = (
(152,0,l),
(146,20,o),
(144,36,o),
(144,76,cs),
(144,678,ls),
(143,716,o),
(149,758,o),
(162,795,c),
(157,798,l),
(60,653,l),
(60,649,l),
(74,625,o),
(80,605,o),
(80,569,cs),
(80,84,ls),
(80,40,o),
(78,24,o),
(70,0,c)
);
}
);
userData = {
com.hugojourdan.ColorFlow = {
"0" = 0;
"1" = 0;
"10" = 0;
"11" = 0;
"2" = 0;
"3" = 0;
"4" = 0;
"5" = 0;
"6" = 0;
"7" = 0;
"8" = 0;
"9" = 0;
};
};
width = 222;
},
{
anchors = (
{
name = bottom;
pos = (168,0);
},
{
name = top;
pos = (166,800);
}
);
layerId = m004;
shapes = (
{
closed = 1;
nodes = (
(278,0,l),
(265,23,o),
(260,48,o),
(260,84,cs),
(260,656,ls),
(260,745,o),
(262,771,o),
(278,820,c),
(266,828,l),
(50,668,l),
(50,656,l),
(68,638,o),
(76,611,o),
(76,568,cs),
(76,84,ls),
(76,48,o),
(70,24,o),
(56,0,c)
);
}
);
userData = {
com.hugojourdan.ColorFlow = {
"0" = 0;
"1" = 0;
"10" = 0;
"11" = 0;
"2" = 0;
"3" = 0;
"4" = 0;
"5" = 0;
"6" = 0;
"7" = 0;
"8" = 0;
"9" = 0;
};
};
width = 328;
},
{
anchors = (
{
name = bottom;
pos = (128,0);
},
{
name = top;
pos = (129,765);
}
);
layerId = "D54810B1-F9A5-4F35-A1FF-AED0599B2373";
shapes = (
{
closed = 1;
nodes = (
(205,0,l),
(196,22,o),
(192,43,o),
(192,80,cs),
(193,666,ls),
(194,717,o),
(198,753,o),
(214,797,c),
(205,803,l),
(40,652,l),
(40,644,l),
(56,623,o),
(61,599,o),
(63,559,c),
(63,84,ls),
(63,44,o),
(59,24,o),
(48,0,c)
);
}
);
userData = {
com.hugojourdan.ColorFlow = {
"0" = 0;
"1" = 0;
"10" = 0;
"11" = 0;
"2" = 0;
"3" = 0;
"4" = 0;
"5" = 0;
"6" = 0;
"7" = 0;
"8" = 0;
"9" = 0;
};
};
width = 264;
}
);
unicode = 108;
}
{
color = 5;
glyphname = m;
kernLeft = i;
kernRight = n;
layers = (
{
anchors = (
{
name = bottom;
pos = (409,0);
},
{
name = top;
pos = (409,500);
}
);
layerId = "452AD06C-4D92-427C-8B35-838986F56274";
shapes = (
{
closed = 1;
nodes = (
(550,-76,l),
(673,28,o),
(750,189,o),
(750,312,cs),
(750,427,o),
(686,508,o),
(576,508,cs),
(509,508,o),
(443,480,o),
(406,436,c),
(406,370,l),
(426,434,o),
(488,484,o),
(556,484,cs),
(639,484,o),
(682,412,o),
(682,300,cs),
(682,172,o),
(633,22,o),
(541,-70,c)
);
},
{
closed = 1;
nodes = (
(156,0,l),
(148,25,o),
(146,45,o),
(146,95,cs),
(146,430,ls),
(146,454,o),
(144,481,o),
(140,500,c),
(10,500,l),
(10,493,l),
(30,493,ls),
(66,493,o),
(82,470,o),
(82,416,cs),
(82,105,ls),
(82,50,o),
(80,30,o),
(70,0,c)
);
},
{
closed = 1;
nodes = (
(260,-76,l),
(383,28,o),
(460,189,o),
(460,312,cs),
(460,427,o),
(396,508,o),
(286,508,cs),
(219,508,o),
(153,475,o),
(116,421,c),
(116,351,l),
(136,425,o),
(198,484,o),
(266,484,cs),
(349,484,o),
(392,412,o),
(392,300,cs),
(392,172,o),
(343,22,o),
(251,-70,c)
);
}
);
userData = {
com.hugojourdan.ColorFlow = {
"0" = 0;
"1" = 0;
"10" = 0;
"11" = 0;
"2" = 0;
"3" = 0;
"4" = 0;
"5" = 0;
"6" = 0;
"7" = 0;
"8" = 0;
"9" = 0;
};
};
width = 780;
},
{
anchors = (
{
name = bottom;
pos = (417,0);
},
{
name = top;
pos = (417,500);
}
);
layerId = m004;
shapes = (
{
closed = 1;
nodes = (
(592,-49,l),
(807,46,o),
(892,196,o),
(892,315,cs),
(892,424,o),
(822,508,o),
(721,508,cs),
(661,508,o),
(590,481,o),
(545,435,c),
(559,392,l),
(578,407,o),
(596,413,o),
(613,413,cs),
(666,413,o),
(702,344,o),
(702,261,cs),
(702,148,o),
(662,23,o),
(581,-28,c)
);
},
{
closed = 1;
nodes = (
(290,0,l),
(277,23,o),
(272,48,o),
(272,84,cs),
(272,430,ls),
(272,453,o),
(270,477,o),
(265,500,c),
(20,500,l),
(20,476,l),
(36,476,ls),
(70,476,o),
(88,454,o),
(88,412,cs),
(88,84,ls),
(88,48,o),
(82,24,o),
(68,0,c)
);
},
{
closed = 1;
nodes = (
(342,-74,l),
(504,9,o),
(594,162,o),
(594,308,cs),
(594,425,o),
(519,508,o),
(414,508,cs),
(354,508,o),
(296,481,o),
(252,444,c),
(252,392,l),
(268,404,o),
(288,412,o),
(306,412,cs),
(375,412,o),
(407,323,o),
(407,222,cs),
(407,109,o),
(379,-14,o),
(329,-55,c)
);
}
);
userData = {
com.hugojourdan.ColorFlow = {
"0" = 0;
"1" = 0;
"10" = 0;
"11" = 0;
"2" = 0;
"3" = 0;
"4" = 0;
"5" = 0;
"6" = 0;
"7" = 0;
"8" = 0;
"9" = 0;
};
};
width = 912;
},
{
anchors = (
{
name = bottom;
pos = (408,0);
},
{
name = top;
pos = (408,500);
}
);
layerId = "D54810B1-F9A5-4F35-A1FF-AED0599B2373";
shapes = (
{
closed = 1;
nodes = (
(567,-61,l),
(741,38,o),
(822,193,o),
(822,314,cs),
(822,425,o),
(755,508,o),
(650,508,cs),
(586,508,o),
(518,481,o),
(476,435,c),
(484,382,l),
(503,419,o),
(541,445,o),
(581,445,cs),
(648,445,o),
(687,375,o),
(687,279,cs),
(687,159,o),
(643,23,o),
(557,-47,c)
);
},
{
closed = 1;
nodes = (
(223,0,l),
(213,24,o),
(209,48,o),
(209,89,cs),
(209,430,ls),
(209,453,o),
(207,479,o),
(203,500,c),
(10,500,l),
(10,483,l),
(28,483,ls),
(63,483,o),
(80,461,o),
(80,413,cs),
(80,94,ls),
(80,49,o),
(76,27,o),
(64,0,c)
);
},
{
closed = 1;
nodes = (
(299,-75,l),
(443,18,o),
(528,174,o),
(528,310,cs),
(528,426,o),
(458,508,o),
(350,508,cs),
(287,508,o),
(225,478,o),
(185,434,c),
(185,373,l),
(202,414,o),
(241,445,o),
(282,445,cs),
(357,445,o),
(394,363,o),
(394,257,cs),
(394,138,o),
(357,2,o),
(288,-62,c)
);
}
);
userData = {
com.hugojourdan.ColorFlow = {
"0" = 0;
"1" = 0;
"10" = 0;
"11" = 0;
"2" = 0;
"3" = 0;
"4" = 0;
"5" = 0;
"6" = 0;
"7" = 0;
"8" = 0;
"9" = 0;
};
};
width = 852;
}
);
metricLeft = n;
metricRight = n;
unicode = 109;
}
{
color = 5;
glyphname = n;
kernLeft = i;
kernRight = n;
layers = (
{
anchors = (
{
name = bottom;
pos = (256,0);
},
{
name = top;
pos = (276,500);
}
);
layerId = "452AD06C-4D92-427C-8B35-838986F56274";
shapes = (
{
closed = 1;
nodes = (
(266,-76,l),
(389,28,o),
(480,189,o),
(480,312,cs),
(480,441,o),
(395,507,o),
(292,507,cs),
(235,507,o),
(173,487,o),
(116,446,c),
(126,366,l),
(149,440,o),
(216,486,o),
(284,486,cs),
(367,486,o),
(412,412,o),
(412,300,cs),
(412,172,o),
(353,22,o),
(261,-70,c)
);
},
{
closed = 1;
nodes = (
(156,0,l),
(148,25,o),
(146,45,o),
(146,95,cs),
(146,434,ls),
(146,453,o),
(146,481,o),
(140,500,c),
(10,500,l),
(10,493,l),
(30,493,ls),
(66,493,o),
(82,470,o),
(82,416,cs),
(82,105,ls),
(82,50,o),
(80,30,o),
(70,0,c)
);
}
);
userData = {
com.hugojourdan.ColorFlow = {
"0" = 0;
"1" = 0;
"10" = 0;
"11" = 0;
"2" = 0;
"3" = 0;
"4" = 0;
"5" = 0;
"6" = 0;
"7" = 0;
"8" = 0;
"9" = 0;
};
};
width = 510;
},
{
anchors = (
{
name = bottom;
pos = (257,0);
},
{
name = top;
pos = (257,500);
}
);
layerId = m004;
shapes = (
{
closed = 1;
nodes = (
(334,-92,l),
(484,-1,o),
(594,162,o),
(594,308,cs),
(594,425,o),
(519,508,o),
(414,508,cs),
(354,508,o),
(291,481,o),
(252,444,c),
(252,392,l),
(268,404,o),
(288,412,o),
(306,412,cs),
(366,412,o),
(404,337,o),
(404,220,cs),
(404,103,o),
(371,-12,o),
(319,-75,c)
);
},
{
closed = 1;
nodes = (
(290,0,l),
(277,23,o),
(272,48,o),
(272,84,cs),
(272,430,ls),
(272,453,o),
(272,481,o),
(265,500,c),
(20,500,l),
(20,476,l),
(36,476,ls),
(70,476,o),
(88,454,o),
(88,412,cs),
(88,84,ls),
(88,48,o),
(82,24,o),
(68,0,c)
);
}
);
userData = {
com.hugojourdan.ColorFlow = {
"0" = 0;
"1" = 0;
"10" = 0;
"11" = 0;
"2" = 0;
"3" = 0;
"4" = 0;
"5" = 0;
"6" = 0;
"7" = 0;
"8" = 0;
"9" = 0;
};
};
width = 614;
},
{
anchors = (
{
name = bottom;
pos = (251,0);
},
{
name = top;
pos = (260,500);
}
);
layerId = "D54810B1-F9A5-4F35-A1FF-AED0599B2373";
shapes = (
{
closed = 1;
nodes = (
(296,-81,l),
(437,12,o),
(537,174,o),
(537,310,cs),
(537,432,o),
(457,508,o),
(353,508,cs),
(294,508,o),
(232,484,o),
(185,445,c),
(189,380,l),
(208,420,o),
(250,446,o),
(290,446,cs),
(361,446,o),
(402,371,o),
(402,256,cs),
(402,134,o),
(357,3,o),
(287,-73,c)
);
},
{
closed = 1;
nodes = (
(223,0,l),
(213,24,o),
(209,48,o),
(209,89,cs),
(209,432,ls),
(209,453,o),
(209,481,o),
(203,500,c),
(10,500,l),
(10,483,l),
(28,483,ls),
(63,483,o),
(80,461,o),
(80,413,cs),
(80,94,ls),
(80,49,o),
(76,27,o),
(64,0,c)
);
}
);
userData = {
com.hugojourdan.ColorFlow = {
"0" = 0;
"1" = 0;
"10" = 0;
"11" = 0;
"2" = 0;
"3" = 0;
"4" = 0;
"5" = 0;
"6" = 0;
"7" = 0;
"8" = 0;
"9" = 0;
};
};
width = 567;
}
);
metricLeft = i;
metricRight = n;
unicode = 110;
}
{
color = 5;
glyphname = p;
kernLeft = i;
kernRight = o;
layers = (
{
anchors = (
{
name = bottom;
pos = (293,0);
},
{
name = top;
pos = (293,500);
}
);
layerId = "452AD06C-4D92-427C-8B35-838986F56274";
shapes = (
{
closed = 1;
nodes = (
(144,14,l),
(186,-8,o),
(229,-18,o),
(272,-18,cs),
(440,-18,o),
(521,113,o),
(521,244,cs),
(521,374,o),
(440,505,o),
(286,505,cs),
(232,505,o),
(179,491,o),
(139,467,c),
(133,500,l),
(10,500,l),
(10,493,l),
(30,493,ls),
(66,493,o),
(82,470,o),
(82,416,cs),
(82,-119,ls),
(82,-155,o),
(76,-175,o),
(61,-198,c),
(61,-202,l),
(155,-350,l),
(160,-347,l),
(147,-309,o),
(143,-267,o),
(144,-229,cs)
);
},
{
closed = 1;
nodes = (
(453,116,o),
(400,10,o),
(293,10,cs),
(247,10,o),
(196,33,o),
(144,86,c),
(144,416,l),
(178,461,o),
(223,482,o),
(268,482,cs),
(389,482,o),
(453,352,o),
(453,228,cs)
);
}
);
userData = {
com.hugojourdan.ColorFlow = {
"0" = 0;
"1" = 0;
"10" = 0;
"11" = 0;
"2" = 0;
"3" = 0;
"4" = 0;
"5" = 0;
"6" = 0;
"7" = 0;
"8" = 0;
"9" = 0;
};
};
width = 551;
},
{
anchors = (
{
name = bottom;
pos = (275,0);
},
{
name = top;
pos = (275,500);
}
);
layerId = m004;
shapes = (
{
closed = 1;
nodes = (
(267,-6,l),
(306,-12,o),
(342,-12,o),
(375,-7,cs),
(507,16,o),
(588,132,o),
(588,299,cs),
(588,437,o),
(503,516,o),
(398,516,cs),
(351,516,o),
(300,500,o),
(251,466,c),
(240,500,l),
(15,500,l),
(15,476,l),
(31,476,ls),
(65,476,o),
(83,454,o),
(83,412,cs),
(83,-66,ls),
(83,-109,o),
(75,-136,o),
(57,-154,c),
(57,-166,l),
(273,-326,l),
(285,-318,l),
(269,-269,o),
(267,-243,o),
(267,-154,cs)
);
},
{
closed = 1;
nodes = (
(396,156,o),
(367,71,o),
(304,57,cs),
(291,55,o),
(278,55,o),
(263,58,c),
(263,400,l),
(267,422,o),
(285,436,o),
(308,436,cs),
(360,436,o),
(396,359,o),
(396,246,cs)
);
}
);
userData = {
com.hugojourdan.ColorFlow = {
"0" = 0;
"1" = 0;
"10" = 0;
"11" = 0;
"2" = 0;
"3" = 0;
"4" = 0;
"5" = 0;
"6" = 0;
"7" = 0;
"8" = 0;
"9" = 0;
};
};
width = 613;
},
{
anchors = (
{
name = bottom;
pos = (271,0);
},
{
name = top;
pos = (271,500);
}
);
layerId = "D54810B1-F9A5-4F35-A1FF-AED0599B2373";
shapes = (
{
closed = 1;
nodes = (
(199,3,l),
(239,-10,o),
(279,-15,o),
(316,-12,cs),
(464,1,o),
(545,123,o),
(545,274,cs),
(545,408,o),
(462,511,o),
(335,511,cs),
(285,511,o),
(233,496,o),
(188,466,c),
(179,500,l),
(0,500,l),
(0,483,l),
(18,483,ls),
(53,483,o),
(70,461,o),
(70,413,cs),
(70,-66,l),
(68,-106,o),
(62,-130,o),
(46,-151,c),
(46,-159,l),
(210,-311,l),
(219,-305,l),
(204,-261,o),
(200,-225,o),
(199,-174,cs)
);
},
{
closed = 1;
nodes = (
(410,138,o),
(370,43,o),
(287,36,cs),
(259,35,o),
(229,45,o),
(197,71,c),
(197,407,l),
(215,440,o),
(245,457,o),
(278,457,cs),
(361,457,o),
(410,356,o),
(410,238,cs)
);
}
);
userData = {
com.hugojourdan.ColorFlow = {
"0" = 0;
"1" = 0;
"10" = 0;
"11" = 0;
"2" = 0;
"3" = 0;
"4" = 0;
"5" = 0;
"6" = 0;
"7" = 0;
"8" = 0;
"9" = 0;
};
};
width = 575;
}
);
metricRight = o;
unicode = 112;
}
{
color = 5;
glyphname = q;
kernLeft = o;
kernRight = q;
layers = (
{
anchors = (
{
name = bottom;
pos = (294,0);
},
{
name = top;
pos = (294,500);
}
);
layerId = "452AD06C-4D92-427C-8B35-838986F56274";
shapes = (
{
closed = 1;
nodes = (
(415,-150,ls),
(415,-243,o),
(393,-283,o),
(346,-343,c),
(354,-350,l),
(415,-280,o),
(433,-243,o),
(479,-198,c),
(479,351,ls),
(479,376,o),
(484,401,o),
(502,422,c),
(429,484,o),
(356,511,o),
(275,510,cs),
(142,508,o),
(30,419,o),
(30,248,cs),
(30,109,o),
(137,-12,o),
(290,-12,cs),
(329,-12,o),
(371,-4,o),
(415,13,c)
);
},
{
closed = 1;
nodes = (
(415,77,l),
(359,31,o),
(307,15,o),
(262,18,cs),
(164,25,o),
(101,112,o),
(101,251,cs),
(101,415,o),
(194,487,o),
(279,487,cs),
(350,487,o),
(415,441,o),
(415,336,cs)
);
}
);
userData = {
com.hugojourdan.ColorFlow = {
"0" = 0;
"1" = 0;
"10" = 0;
"11" = 0;
"2" = 0;
"3" = 0;
"4" = 0;
"5" = 0;
"6" = 0;
"7" = 0;
"8" = 0;
"9" = 0;
};
};
width = 529;
},
{
anchors = (
{
name = bottom;
pos = (289,0);
},
{
name = top;
pos = (289,500);
}
);
layerId = m004;
shapes = (
{
closed = 1;
nodes = (
(356,-73,ls),
(356,-175,o),
(336,-243,o),
(262,-303,c),
(276,-323,l),
(354,-276,o),
(453,-197,o),
(540,-167,c),
(540,327,ls),
(540,350,o),
(549,367,o),
(569,382,c),
(530,462,o),
(424,508,o),
(316,508,cs),
(121,508,o),
(25,369,o),
(25,235,cs),
(25,110,o),
(108,-10,o),
(271,-10,cs),
(302,-10,o),
(332,-5,o),
(356,4,c)
);
},
{
closed = 1;
nodes = (
(356,73,l),
(335,64,o),
(317,60,o),
(301,60,cs),
(240,60,o),
(222,127,o),
(222,237,cs),
(222,374,o),
(252,447,o),
(307,447,cs),
(342,447,o),
(356,422,o),
(356,371,cs)
);
}
);
userData = {
com.hugojourdan.ColorFlow = {
"0" = 0;
"1" = 0;
"10" = 0;
"11" = 0;
"2" = 0;
"3" = 0;
"4" = 0;
"5" = 0;
"6" = 0;
"7" = 0;
"8" = 0;
"9" = 0;
};
};
width = 594;
},
{
anchors = (
{
name = bottom;
pos = (294,0);
},
{
name = top;
pos = (294,500);
}
);
layerId = "D54810B1-F9A5-4F35-A1FF-AED0599B2373";
shapes = (
{
closed = 1;
nodes = (
(386,-99,ls),
(386,-197,o),
(359,-264,o),
(311,-323,c),
(325,-335,l),
(385,-278,o),
(457,-213,o),
(515,-176,c),
(515,338,ls),
(515,362,o),
(523,382,o),
(542,400,c),
(487,472,o),
(396,509,o),
(300,509,cs),
(134,508,o),
(30,392,o),
(30,241,cs),
(30,110,o),
(124,-11,o),
(283,-11,cs),
(317,-11,o),
(353,-5,o),
(386,8,c)
);
},
{
closed = 1;
nodes = (
(386,75,l),
(349,49,o),
(315,40,o),
(286,41,cs),
(209,44,o),
(170,120,o),
(170,243,cs),
(170,393,o),
(229,465,o),
(297,465,cs),
(349,465,o),
(386,431,o),
(386,355,cs)
);
}
);
userData = {
com.hugojourdan.ColorFlow = {
"0" = 0;
"1" = 0;
"10" = 0;
"11" = 0;
"2" = 0;
"3" = 0;
"4" = 0;
"5" = 0;
"6" = 0;
"7" = 0;
"8" = 0;
"9" = 0;
};
};
width = 568;
}
);
metricLeft = o;
unicode = 113;
}
{
color = 5;
glyphname = r;
kernLeft = i;
kernRight = r;
layers = (
{
anchors = (
{
name = bottom;
pos = (120,0);
},
{
name = top;
pos = (219,500);
}
);
layerId = "452AD06C-4D92-427C-8B35-838986F56274";
shapes = (
{
closed = 1;
nodes = (
(156,0,l),
(148,25,o),
(146,45,o),
(146,95,cs),
(146,411,l),
(168,427,o),
(195,436,o),
(220,436,cs),
(255,436,o),
(287,421,o),
(309,400,c),
(333,412,o),
(364,450,o),
(370,494,c),
(364,496,l),
(355,476,o),
(336,467,o),
(317,467,cs),
(293,467,o),
(268,482,o),
(264,507,c),
(146,433,l),
(146,457,o),
(146,482,o),
(140,500,c),
(10,500,l),
(10,493,l),
(30,493,ls),
(66,493,o),
(82,470,o),
(82,416,cs),
(82,105,ls),
(82,50,o),
(80,30,o),
(70,0,c)
);
}
);
userData = {
com.hugojourdan.ColorFlow = {
"0" = 0;
"1" = 0;
"10" = 0;
"11" = 0;
"2" = 0;
"3" = 0;
"4" = 0;
"5" = 0;
"6" = 0;
"7" = 0;
"8" = 0;
"9" = 0;
};
};
width = 390;
},
{
anchors = (
{
name = bottom;
pos = (188,0);
},
{
name = top;
pos = (328,500);
}
);
layerId = m004;
shapes = (
{
closed = 1;
nodes = (
(290,0,l),
(277,23,o),
(272,48,o),
(272,84,cs),
(272,344,l),
(285,347,o),
(297,348,o),
(309,348,cs),
(351,348,o),
(387,334,o),
(421,305,c),
(484,359,o),
(521,438,o),
(516,508,c),
(496,510,l),
(490,485,o),
(466,472,o),
(442,472,cs),
(414,472,o),
(386,486,o),
(378,512,c),
(267,413,l),
(267,453,o),
(267,481,o),
(262,500,c),
(20,500,l),
(20,476,l),
(36,476,ls),
(70,476,o),
(88,454,o),
(88,412,cs),
(88,84,ls),
(88,48,o),
(82,24,o),
(68,0,c)
);
}
);
userData = {
com.hugojourdan.ColorFlow = {
"0" = 0;
"1" = 0;
"10" = 0;
"11" = 0;
"2" = 0;
"3" = 0;
"4" = 0;
"5" = 0;
"6" = 0;
"7" = 0;
"8" = 0;
"9" = 0;
};
};
width = 526;
},
{
anchors = (
{
name = bottom;
pos = (151,0);
},
{
name = top;
pos = (272,500);
}
);
layerId = "D54810B1-F9A5-4F35-A1FF-AED0599B2373";
shapes = (
{
closed = 1;
nodes = (
(222,0,l),
(212,24,o),
(208,48,o),
(208,89,cs),
(208,376,l),
(226,385,o),
(246,389,o),
(265,389,cs),
(301,389,o),
(336,374,o),
(364,348,c),
(409,383,o),
(440,445,o),
(440,502,c),
(428,503,l),
(420,482,o),
(400,471,o),
(379,471,cs),
(355,471,o),
(330,485,o),
(320,510,c),
(206,423,l),
(206,455,o),
(206,481,o),
(200,500,c),
(10,500,l),
(10,483,l),
(28,483,ls),
(63,483,o),
(80,461,o),
(80,413,cs),
(80,94,ls),
(80,49,o),
(76,27,o),
(64,0,c)
);
}
);
userData = {
com.hugojourdan.ColorFlow = {
"0" = 0;
"1" = 0;
"10" = 0;
"11" = 0;
"2" = 0;
"3" = 0;
"4" = 0;
"5" = 0;
"6" = 0;
"7" = 0;
"8" = 0;
"9" = 0;
};
};
width = 460;
}
);
metricLeft = n;
unicode = 114;
}
{
color = 5;
glyphname = s;
kernLeft = s;
kernRight = s;
layers = (
{
anchors = (
{
name = bottom;
pos = (186,0);
},
{
name = top;
pos = (186,500);
}
);
layerId = "452AD06C-4D92-427C-8B35-838986F56274";
shapes = (
{
closed = 1;
nodes = (
(319,-10,o),
(382,72,o),
(382,147,cs),
(383,312,o),
(104,289,o),
(104,416,cs),
(104,467,o),
(148,484,o),
(185,484,cs),
(261,484,o),
(306,430,o),
(306,374,cs),
(306,357,o),
(303,340,o),
(295,324,c),
(301,321,l),
(358,421,l),
(332,476,o),
(271,508,o),
(208,508,cs),
(131,508,o),
(55,465,o),
(56,380,cs),
(57,242,o),
(330,258,o),
(330,110,cs),
(330,59,o),
(287,12,o),
(220,12,cs),
(117,12,o),
(68,126,o),
(66,229,c),
(60,229,l),
(60,179,o),
(43,135,o),
(20,105,c),
(57,28,o),
(123,-10,o),
(210,-10,cs)
);
}
);
userData = {
com.hugojourdan.ColorFlow = {
"0" = 0;
"1" = 0;
"10" = 0;
"11" = 0;
"2" = 0;
"3" = 0;
"4" = 0;
"5" = 0;
"6" = 0;
"7" = 0;
"8" = 0;
"9" = 0;
};
};
width = 412;
},
{
anchors = (
{
name = bottom;
pos = (229,0);
},
{
name = top;
pos = (229,500);
}
);
layerId = m004;
shapes = (
{
closed = 1;
nodes = (
(382,-21,o),
(500,32,o),
(500,154,cs),
(500,350,o),
(213,292,o),
(214,397,cs),
(214,436,o),
(251,455,o),
(290,455,cs),
(360,455,o),
(383,410,o),
(383,364,cs),
(383,352,o),
(381,339,o),
(378,328,c),
(400,320,l),
(481,447,l),
(429,497,o),
(351,520,o),
(275,520,cs),
(164,520,o),
(60,468,o),
(60,362,cs),
(61,166,o),
(345,218,o),
(345,104,cs),
(345,62,o),
(309,42,o),
(272,42,cs),
(191,42,o),
(119,120,o),
(104,212,c),
(82,211,l),
(80,137,o),
(53,96,o),
(20,55,c),
(58,9,o),
(160,-21,o),
(259,-21,cs)
);
}
);
userData = {
com.hugojourdan.ColorFlow = {
"0" = 0;
"1" = 0;
"10" = 0;
"11" = 0;
"2" = 0;
"3" = 0;
"4" = 0;
"5" = 0;
"6" = 0;
"7" = 0;
"8" = 0;
"9" = 0;
};
};
width = 520;
},
{
anchors = (
{
name = bottom;
pos = (210,0);
},
{
name = top;
pos = (210,500);
}
);
layerId = "D54810B1-F9A5-4F35-A1FF-AED0599B2373";
shapes = (
{
closed = 1;
nodes = (
(354,-16,o),
(447,50,o),
(447,151,cs),
(447,333,o),
(164,291,o),
(164,406,cs),
(164,450,o),
(205,468,o),
(243,468,cs),
(315,468,o),
(348,419,o),
(348,369,cs),
(348,354,o),
(345,339,o),
(340,326,c),
(356,320,l),
(426,435,l),
(385,487,o),
(315,515,o),
(245,515,cs),
(149,515,o),
(58,467,o),
(58,370,cs),
(59,200,o),
(338,236,o),
(338,107,cs),
(338,61,o),
(299,28,o),
(249,28,cs),
(158,28,o),
(97,123,o),
(88,220,c),
(72,219,l),
(71,156,o),
(49,114,o),
(20,78,c),
(58,18,o),
(144,-16,o),
(237,-16,cs)
);
}
);
userData = {
com.hugojourdan.ColorFlow = {
"0" = 0;
"1" = 0;
"10" = 0;
"11" = 0;
"2" = 0;
"3" = 0;
"4" = 0;
"5" = 0;
"6" = 0;
"7" = 0;
"8" = 0;
"9" = 0;
};
};
width = 477;
}
);
unicode = 115;
}
{
color = 5;
glyphname = t;
kernLeft = t;
kernRight = t;
layers = (
{
anchors = (
{
name = bottom;
pos = (84,0);
},
{
name = center;
pos = (86,250);
},
{
name = top;
pos = (86,500);
},
{
name = topright;
pos = (145,514);
}
);
layerId = "452AD06C-4D92-427C-8B35-838986F56274";
shapes = (
{
closed = 1;
nodes = (
(124,0,l),
(118,20,o),
(116,36,o),
(116,76,cs),
(116,572,ls),
(116,610,o),
(122,652,o),
(136,689,c),
(131,692,l),
(32,548,l),
(32,544,l),
(46,520,o),
(52,500,o),
(52,464,cs),
(52,84,ls),
(52,40,o),
(50,24,o),
(42,0,c)
);
},
{
closed = 1;
nodes = (
(52,500,l),
(20,478,l),
(22,470,l),
(188,470,l),
(204,511,l),
(198,514,l),
(190,501,o),
(173,500,o),
(141,500,cs)
);
}
);
userData = {
com.hugojourdan.ColorFlow = {
"0" = 0;
"1" = 0;
"10" = 0;
"11" = 0;
"2" = 0;
"3" = 0;
"4" = 0;
"5" = 0;
"6" = 0;
"7" = 0;
"8" = 0;
"9" = 0;
};
};
width = 224;
},
{
anchors = (
{
name = bottom;
pos = (177,0);
},
{
name = center;
pos = (177,250);
},
{
name = top;
pos = (177,500);
},
{
name = topright;
pos = (305,554);
}
);
layerId = m004;
shapes = (
{
closed = 1;
nodes = (
(281,0,l),
(268,23,o),
(263,48,o),
(263,84,cs),
(263,589,ls),
(263,678,o),
(265,702,o),
(281,751,c),
(269,759,l),
(53,599,l),
(53,587,l),
(71,569,o),
(79,542,o),
(79,499,cs),
(79,84,ls),
(79,48,o),
(73,24,o),
(59,0,c)
);
},
{
closed = 1;
nodes = (
(80,500,l),
(20,448,l),
(24,430,l),
(349,430,l),
(369,522,l),
(351,526,l),
(339,505,o),
(327,500,o),
(289,500,cs)
);
}
);
userData = {
com.hugojourdan.ColorFlow = {
"0" = 0;
"1" = 0;
"10" = 0;
"11" = 0;
"2" = 0;
"3" = 0;
"4" = 0;
"5" = 0;
"6" = 0;
"7" = 0;
"8" = 0;
"9" = 0;
};
};
width = 389;
},
{
anchors = (
{
name = bottom;
pos = (135,0);
},
{
name = center;
pos = (136,250);
},
{
name = top;
pos = (136,500);
},
{
name = topright;
pos = (244,664);
}
);
layerId = "D54810B1-F9A5-4F35-A1FF-AED0599B2373";
shapes = (
{
closed = 1;
nodes = (
(210,0,l),
(201,22,o),
(197,43,o),
(197,80,cs),
(197,584,ls),
(197,635,o),
(202,671,o),
(218,715,c),
(209,721,l),
(44,570,l),
(44,562,l),
(60,541,o),
(65,517,o),
(67,477,c),
(67,84,ls),
(67,44,o),
(63,24,o),
(52,0,c)
);
},
{
closed = 1;
nodes = (
(74,500,l),
(20,470,l),
(23,458,l),
(276,458,l),
(295,517,l),
(281,521,l),
(271,503,o),
(258,500,o),
(222,500,cs)
);
}
);
userData = {
com.hugojourdan.ColorFlow = {
"0" = 0;
"1" = 0;
"10" = 0;
"11" = 0;
"2" = 0;
"3" = 0;
"4" = 0;
"5" = 0;
"6" = 0;
"7" = 0;
"8" = 0;
"9" = 0;
};
};
width = 315;
}
);
unicode = 116;
}
{
color = 5;
glyphname = u;
kernLeft = u;
kernRight = l;
layers = (
{
anchors = (
{
name = ogonek;
pos = (466,0);
},
{
name = top;
pos = (264,500);
}
);
layerId = "452AD06C-4D92-427C-8B35-838986F56274";
shapes = (
{
closed = 1;
nodes = (
(315,-14,o),
(389,25,o),
(430,109,c),
(416,123,l),
(390,56,o),
(330,22,o),
(260,26,cs),
(182,30,o),
(132,86,o),
(132,180,cs),
(132,416,ls),
(132,460,o),
(134,476,o),
(142,500,c),
(10,500,l),
(10,493,l),
(26,493,ls),
(55,493,o),
(68,473,o),
(68,423,cs),
(68,172,ls),
(68,64,o),
(139,-9,o),
(240,-12,cs)
);
},
{
closed = 1;
nodes = (
(474,0,l),
(468,20,o),
(466,36,o),
(466,76,cs),
(466,416,ls),
(466,460,o),
(468,476,o),
(476,500,c),
(330,500,l),
(330,493,l),
(350,493,ls),
(386,493,o),
(402,470,o),
(402,416,cs),
(402,76,ls),
(402,46,o),
(404,19,o),
(408,0,c)
);
}
);
userData = {
com.hugojourdan.ColorFlow = {
"0" = 0;
"1" = 0;
"10" = 0;
"11" = 0;
"2" = 0;
"3" = 0;
"4" = 0;
"5" = 0;
"6" = 0;
"7" = 0;
"8" = 0;
"9" = 0;
};
};
width = 526;
},
{
anchors = (
{
name = ogonek;
pos = (567,0);
},
{
name = top;
pos = (331,500);
}
);
layerId = m004;
shapes = (
{
closed = 1;
nodes = (
(275,-19,o),
(369,35,o),
(403,78,c),
(403,136,l),
(381,109,o),
(343,90,o),
(310,92,cs),
(278,94,o),
(261,112,o),
(261,164,cs),
(261,416,ls),
(261,452,o),
(265,476,o),
(275,500,c),
(20,500,l),
(20,476,l),
(33,476,ls),
(62,476,o),
(77,454,o),
(77,412,cs),
(77,134,ls),
(77,22,o),
(129,-19,o),
(201,-19,cs)
);
},
{
closed = 1;
nodes = (
(591,0,l),
(578,23,o),
(573,48,o),
(573,84,cs),
(573,416,ls),
(573,452,o),
(578,476,o),
(589,500,c),
(335,500,l),
(335,478,l),
(347,478,ls),
(375,478,o),
(389,459,o),
(389,421,cs),
(389,93,ls),
(389,59,o),
(392,17,o),
(397,0,c)
);
}
);
userData = {
com.hugojourdan.ColorFlow = {
"0" = 0;
"1" = 0;
"10" = 0;
"11" = 0;
"2" = 0;
"3" = 0;
"4" = 0;
"5" = 0;
"6" = 0;
"7" = 0;
"8" = 0;
"9" = 0;
};
};
width = 631;
},
{
anchors = (
{
name = ogonek;
pos = (521,0);
},
{
name = top;
pos = (301,500);
}
);
layerId = "D54810B1-F9A5-4F35-A1FF-AED0599B2373";
shapes = (
{
closed = 1;
nodes = (
(293,-17,o),
(378,30,o),
(415,92,c),
(409,130,l),
(385,85,o),
(337,59,o),
(287,62,cs),
(235,65,o),
(203,100,o),
(203,171,cs),
(203,416,ls),
(203,456,o),
(206,476,o),
(216,500,c),
(15,500,l),
(15,483,l),
(30,483,ls),
(59,483,o),
(73,462,o),
(73,416,cs),
(73,151,ls),
(73,41,o),
(134,-14,o),
(219,-16,cs)
);
},
{
closed = 1;
nodes = (
(538,0,l),
(529,22,o),
(525,43,o),
(525,80,cs),
(525,416,ls),
(525,456,o),
(529,476,o),
(538,500,c),
(333,500,l),
(333,483,l),
(349,483,ls),
(380,483,o),
(395,463,o),
(395,417,cs),
(395,85,ls),
(395,53,o),
(398,18,o),
(401,0,c)
);
}
);
userData = {
com.hugojourdan.ColorFlow = {
"0" = 0;
"1" = 0;
"10" = 0;
"11" = 0;
"2" = 0;
"3" = 0;
"4" = 0;
"5" = 0;
"6" = 0;
"7" = 0;
"8" = 0;
"9" = 0;
};
};
width = 578;
}
);
metricRight = idotless;
unicode = 117;
}
{
color = 5;
glyphname = w;
kernLeft = w;
kernRight = i;
layers = (
{
anchors = (
{
name = bottom;
pos = (357,0);
},
{
name = top;
pos = (417,542);
}
);
layerId = "452AD06C-4D92-427C-8B35-838986F56274";
shapes = (
{
closed = 1;
nodes = (
(259,-11,o),
(314,14,o),
(359,59,c),
(388,17,o),
(434,-11,o),
(499,-11,cs),
(546,-11,o),
(595,8,o),
(638,43,c),
(638,28,o),
(638,17,o),
(642,0,c),
(710,0,l),
(704,20,o),
(702,36,o),
(702,76,cs),
(702,424,ls),
(702,464,o),
(704,480,o),
(710,500,c),
(566,500,l),
(566,493,l),
(622,493,o),
(638,475,o),
(638,421,cs),
(638,88,l),
(601,37,o),
(553,12,o),
(511,12,cs),
(421,12,o),
(389,119,o),
(389,219,cs),
(389,319,o),
(419,455,o),
(508,560,c),
(500,566,l),
(380,442,o),
(319,324,o),
(319,199,cs),
(319,160,o),
(326,121,o),
(342,88,c),
(305,37,o),
(259,12,o),
(218,12,cs),
(147,12,o),
(100,87,o),
(100,188,cs),
(100,299,o),
(158,442,o),
(304,549,c),
(297,557,l),
(101,423,o),
(30,285,o),
(30,179,cs),
(30,66,o),
(109,-11,o),
(206,-11,cs)
);
}
);
userData = {
com.hugojourdan.ColorFlow = {
"0" = 0;
"1" = 0;
"10" = 0;
"11" = 0;
"2" = 0;
"3" = 0;
"4" = 0;
"5" = 0;
"6" = 0;
"7" = 0;
"8" = 0;
"9" = 0;
};
};
width = 740;
},
{
anchors = (
{
name = bottom;
pos = (375,0);
},
{
name = top;
pos = (435,542);
}
);
layerId = m004;
shapes = (
{
closed = 1;
nodes = (
(258,-10,o),
(315,16,o),
(365,58,c),
(396,16,o),
(444,-10,o),
(504,-10,cs),
(565,-10,o),
(628,16,o),
(679,71,c),
(679,47,o),
(680,24,o),
(685,0,c),
(867,0,l),
(854,23,o),
(849,48,o),
(849,84,cs),
(849,416,ls),
(849,452,o),
(853,477,o),
(863,500,c),
(615,500,l),
(615,478,l),
(655,478,o),
(669,463,o),
(669,425,cs),
(669,149,l),
(649,121,o),
(621,107,o),
(594,107,cs),
(548,107,o),
(502,150,o),
(492,256,cs),
(483,360,o),
(513,490,o),
(592,552,c),
(578,568,l),
(378,479,o),
(306,306,o),
(323,171,cs),
(326,151,o),
(330,132,o),
(336,115,c),
(315,106,o),
(297,101,o),
(281,101,cs),
(222,101,o),
(195,161,o),
(196,256,cs),
(197,360,o),
(241,464,o),
(337,519,c),
(328,537,l),
(117,477,o),
(20,322,o),
(18,188,cs),
(15,48,o),
(98,-10,o),
(185,-10,cs)
);
}
);
userData = {
com.hugojourdan.ColorFlow = {
"0" = 0;
"1" = 0;
"10" = 0;
"11" = 0;
"2" = 0;
"3" = 0;
"4" = 0;
"5" = 0;
"6" = 0;
"7" = 0;
"8" = 0;
"9" = 0;
};
};
width = 884;
},
{
anchors = (
{
name = bottom;
pos = (367,0);
},
{
name = top;
pos = (427,542);
}
);
layerId = "D54810B1-F9A5-4F35-A1FF-AED0599B2373";
shapes = (
{
closed = 1;
nodes = (
(258,-10,o),
(315,15,o),
(362,58,c),
(392,16,o),
(439,-10,o),
(502,-10,cs),
(556,-10,o),
(613,12,o),
(660,58,c),
(660,38,o),
(661,21,o),
(666,0,c),
(795,0,l),
(786,22,o),
(782,43,o),
(782,80,cs),
(782,420,ls),
(782,457,o),
(785,478,o),
(794,500,c),
(593,500,l),
(593,485,l),
(640,485,o),
(655,468,o),
(655,423,cs),
(655,121,l),
(627,83,o),
(590,64,o),
(556,64,cs),
(490,64,o),
(451,136,o),
(445,239,cs),
(440,341,o),
(470,474,o),
(554,556,c),
(543,567,l),
(379,462,o),
(312,314,o),
(321,184,cs),
(323,155,o),
(328,127,o),
(339,103,c),
(310,75,o),
(280,61,o),
(252,61,cs),
(188,61,o),
(152,127,o),
(153,225,cs),
(153,332,o),
(203,454,o),
(322,533,c),
(314,546,l),
(110,453,o),
(25,305,o),
(23,184,cs),
(22,56,o),
(103,-10,o),
(195,-10,cs)
);
}
);
userData = {
com.hugojourdan.ColorFlow = {
"0" = 0;
"1" = 0;
"10" = 0;
"11" = 0;
"2" = 0;
"3" = 0;
"4" = 0;
"5" = 0;
"6" = 0;
"7" = 0;
"8" = 0;
"9" = 0;
};
};
width = 818.75;
}
);
unicode = 119;
}
{
color = 5;
glyphname = x;
kernLeft = x;
kernRight = x;
layers = (
{
anchors = (
{
name = bottom;
pos = (254,0);
},
{
name = top;
pos = (254,500);
}
);
layerId = "452AD06C-4D92-427C-8B35-838986F56274";
shapes = (
{
closed = 1;
nodes = (
(500,0,l),
(500,7,l),
(441,15,o),
(429,40,o),
(392,98,cs),
(278,278,l),
(374,409,ls),
(408,456,o),
(429,484,o),
(449,492,c),
(449,500,l),
(366,500,l),
(371,480,o),
(362,447,o),
(319,383,cs),
(263,300,l),
(178,432,ls),
(156,466,o),
(152,480,o),
(158,500,c),
(16,500,l),
(16,493,l),
(66,491,o),
(83,472,o),
(121,413,cs),
(224,254,l),
(112,104,ls),
(78,59,o),
(55,27,o),
(32,0,c),
(140,0,l),
(140,7,l),
(97,25,o),
(130,71,o),
(158,111,cs),
(239,229,l),
(337,78,ls),
(365,34,o),
(369,20,o),
(365,0,c)
);
}
);
userData = {
com.hugojourdan.ColorFlow = {
"0" = 0;
"1" = 0;
"10" = 0;
"11" = 0;
"2" = 0;
"3" = 0;
"4" = 0;
"5" = 0;
"6" = 0;
"7" = 0;
"8" = 0;
"9" = 0;
};
};
width = 506;
},
{
anchors = (
{
name = bottom;
pos = (248,0);
},
{
name = top;
pos = (248,500);
}
);
layerId = m004;
shapes = (
{
closed = 1;
nodes = (
(605,0,l),
(605,19,l),
(569,26,o),
(556,41,o),
(534,74,cs),
(405,266,l),
(495,396,ls),
(534,452,o),
(559,474,o),
(587,478,c),
(587,500,l),
(431,500,l),
(430,467,o),
(413,425,o),
(380,373,cs),
(357,337,l),
(298,425,ls),
(278,455,o),
(275,476,o),
(289,500,c),
(17,500,l),
(17,480,l),
(50,478,o),
(64,458,o),
(96,411,cs),
(193,267,l),
(143,194,ls),
(77,98,o),
(51,56,o),
(10,0,c),
(214,0,l),
(214,21,l),
(154,38,o),
(165,81,o),
(200,134,cs),
(241,195,l),
(313,88,ls),
(342,45,o),
(345,24,o),
(331,0,c)
);
}
);
userData = {
com.hugojourdan.ColorFlow = {
"0" = 0;
"1" = 0;
"10" = 0;
"11" = 0;
"2" = 0;
"3" = 0;
"4" = 0;
"5" = 0;
"6" = 0;
"7" = 0;
"8" = 0;
"9" = 0;
};
};
width = 625;
},
{
anchors = (
{
name = bottom;
pos = (251,0);
},
{
name = top;
pos = (251,500);
}
);
layerId = "D54810B1-F9A5-4F35-A1FF-AED0599B2373";
shapes = (
{
closed = 1;
nodes = (
(557,0,l),
(557,14,l),
(511,21,o),
(499,41,o),
(470,85,cs),
(347,271,l),
(440,402,ls),
(477,454,o),
(500,479,o),
(524,484,c),
(524,500,l),
(402,500,l),
(403,473,o),
(390,435,o),
(352,378,cs),
(314,320,l),
(244,428,ls),
(223,460,o),
(219,478,o),
(230,500,c),
(17,500,l),
(17,484,l),
(57,482,o),
(73,464,o),
(107,412,cs),
(207,261,l),
(129,153,ls),
(77,80,o),
(53,43,o),
(20,0,c),
(180,0,l),
(180,15,l),
(128,32,o),
(148,76,o),
(181,124,cs),
(240,210,l),
(324,83,ls),
(352,40,o),
(356,22,o),
(346,0,c)
);
}
);
userData = {
com.hugojourdan.ColorFlow = {
"0" = 0;
"1" = 0;
"10" = 0;
"11" = 0;
"2" = 0;
"3" = 0;
"4" = 0;
"5" = 0;
"6" = 0;
"7" = 0;
"8" = 0;
"9" = 0;
};
};
width = 571.07812;
}
);
unicode = 120;
}
{
color = 5;
glyphname = y;
kernLeft = v;
kernRight = v;
layers = (
{
anchors = (
{
name = bottom;
pos = (235,0);
},
{
name = top;
pos = (216,500);
}
);
guides = (
{
angle = 68.9797;
pos = (235,55);
}
);
layerId = "452AD06C-4D92-427C-8B35-838986F56274";
shapes = (
{
closed = 1;
nodes = (
(146,-230,o),
(182,-206,o),
(202,-199,c),
(203,-132,o),
(212,-98,o),
(270,50,cs),
(399,380,ls),
(431,461,o),
(445,483,o),
(470,493,c),
(470,500,l),
(394,500,l),
(395,480,o),
(390,455,o),
(362,383,cs),
(252,98,l),
(145,383,ls),
(121,448,o),
(113,479,o),
(113,500,c),
(10,500,l),
(10,493,l),
(31,487,o),
(42,476,o),
(60,428,cs),
(216,14,l),
(109,-258,l),
(117,-263,l)
);
}
);
userData = {
com.hugojourdan.ColorFlow = {
"0" = 0;
"1" = 0;
"10" = 0;
"11" = 0;
"2" = 0;
"3" = 0;
"4" = 0;
"5" = 0;
"6" = 0;
"7" = 0;
"8" = 0;
"9" = 0;
};
};
width = 480;
},
{
anchors = (
{
name = bottom;
pos = (317,0);
},
{
name = top;
pos = (295,500);
}
);
layerId = m004;
shapes = (
{
closed = 1;
nodes = (
(211,-273,o),
(281,-250,o),
(357,-234,c),
(355,-108,o),
(367,-22,o),
(425,110,cs),
(552,399,ls),
(571,441,o),
(588,474,o),
(613,480,c),
(613,500,l),
(465,500,l),
(479,469,o),
(479,438,o),
(461,395,cs),
(376,194,l),
(285,397,ls),
(266,440,o),
(263,469,o),
(277,500,c),
(20,500,l),
(20,480,l),
(52,471,o),
(71,435,o),
(106,358,cs),
(267,0,l),
(131,-284,l),
(145,-300,l)
);
}
);
userData = {
com.hugojourdan.ColorFlow = {
"0" = 0;
"1" = 0;
"10" = 0;
"11" = 0;
"2" = 0;
"3" = 0;
"4" = 0;
"5" = 0;
"6" = 0;
"7" = 0;
"8" = 0;
"9" = 0;
};
};
width = 633;
},
{
anchors = (
{
name = bottom;
pos = (280,0);
},
{
name = top;
pos = (271,500);
}
);
layerId = "D54810B1-F9A5-4F35-A1FF-AED0599B2373";
shapes = (
{
closed = 1;
nodes = (
(182,-254,o),
(236,-230,o),
(287,-218,c),
(286,-119,o),
(297,-56,o),
(355,83,cs),
(483,390,ls),
(508,450,o),
(523,477,o),
(548,486,c),
(548,500,l),
(433,500,l),
(441,474,o),
(438,446,o),
(415,390,cs),
(316,143,l),
(216,391,ls),
(195,443,o),
(189,474,o),
(197,500,c),
(15,500,l),
(15,486,l),
(42,478,o),
(58,454,o),
(85,390,cs),
(244,6,l),
(121,-272,l),
(132,-283,l)
);
}
);
userData = {
com.hugojourdan.ColorFlow = {
"0" = 0;
"1" = 0;
"10" = 0;
"11" = 0;
"2" = 0;
"3" = 0;
"4" = 0;
"5" = 0;
"6" = 0;
"7" = 0;
"8" = 0;
"9" = 0;
};
};
width = 563;
}
);
unicode = 121;
}
{
color = 8;
glyphname = braceleft;
layers = (
{
layerId = "452AD06C-4D92-427C-8B35-838986F56274";
shapes = (
{
closed = 1;
nodes = (
(423,0,l),
(424,32,o),
(430,88,o),
(451,152,c),
(442,155,l),
(389,45,o),
(333,18,o),
(261,18,cs),
(232,18,o),
(216,27,o),
(216,53,cs),
(216,84,o),
(252,152,o),
(252,247,cs),
(252,356,o),
(183,409,o),
(87,424,c),
(87,429,l),
(179,456,o),
(240,495,o),
(240,594,cs),
(240,696,o),
(187,787,o),
(187,796,cs),
(187,801,o),
(189,802,o),
(203,802,cs),
(289,802,o),
(356,775,o),
(409,665,c),
(418,668,l),
(397,732,o),
(391,788,o),
(390,820,c),
(108,820,l),
(157,769,o),
(181,652,o),
(181,593,cs),
(181,490,o),
(117,449,o),
(20,422,c),
(20,416,l),
(112,409,o),
(190,373,o),
(190,246,cs),
(190,183,o),
(165,51,o),
(118,0,c)
);
}
);
userData = {
com.hugojourdan.ColorFlow = {
"0" = 0;
"1" = 0;
"10" = 0;
"11" = 0;
"2" = 0;
"3" = 0;
"4" = 0;
"5" = 0;
"6" = 0;
"7" = 0;
"8" = 0;
"9" = 0;
};
};
width = 477;
},
{
layerId = m004;
shapes = (
{
closed = 1;
nodes = (
(523,0,l),
(524,32,o),
(530,88,o),
(551,152,c),
(542,155,l),
(489,45,o),
(433,18,o),
(361,18,cs),
(333,18,o),
(312,29,o),
(312,52,cs),
(312,101,o),
(361,159,o),
(361,235,cs),
(361,347,o),
(273,398,o),
(120,394,c),
(120,403,l),
(292,442,o),
(346,526,o),
(346,611,cs),
(346,677,o),
(303,739,o),
(303,767,cs),
(303,777,o),
(309,781,o),
(322,781,cs),
(381,781,o),
(457,754,o),
(510,644,c),
(519,647,l),
(498,711,o),
(492,767,o),
(491,799,c),
(99,799,l),
(133,764,o),
(181,689,o),
(181,608,cs),
(181,529,o),
(155,455,o),
(36,403,c),
(36,387,l),
(152,313,o),
(180,228,o),
(180,171,cs),
(180,97,o),
(136,41,o),
(98,0,c)
);
}
);
userData = {
com.hugojourdan.ColorFlow = {
"0" = 0;
"1" = 0;
"10" = 0;
"11" = 0;
"2" = 0;
"3" = 0;
"4" = 0;
"5" = 0;
"6" = 0;
"7" = 0;
"8" = 0;
"9" = 0;
};
};
width = 587;
},
{
layerId = "D54810B1-F9A5-4F35-A1FF-AED0599B2373";
shapes = (
{
closed = 1;
nodes = (
(479,0,l),
(480,32,o),
(486,88,o),
(507,152,c),
(498,155,l),
(445,45,o),
(389,18,o),
(317,18,cs),
(289,18,o),
(270,26,o),
(270,44,cs),
(270,81,o),
(310,155,o),
(310,239,cs),
(310,351,o),
(232,402,o),
(108,408,c),
(108,418,l),
(236,450,o),
(300,514,o),
(300,608,cs),
(300,681,o),
(256,741,o),
(256,775,cs),
(256,787,o),
(262,792,o),
(280,792,cs),
(346,792,o),
(412,764,o),
(465,654,c),
(474,657,l),
(453,721,o),
(447,777,o),
(446,809,c),
(104,809,l),
(145,766,o),
(182,672,o),
(182,601,cs),
(182,511,o),
(139,452,o),
(30,412,c),
(30,400,l),
(135,357,o),
(186,294,o),
(186,205,cs),
(186,136,o),
(150,46,o),
(108,0,c)
);
}
);
userData = {
com.hugojourdan.ColorFlow = {
"0" = 0;
"1" = 0;
"10" = 0;
"11" = 0;
"2" = 0;
"3" = 0;
"4" = 0;
"5" = 0;
"6" = 0;
"7" = 0;
"8" = 0;
"9" = 0;
};
};
width = 537;
}
);
note = braceleft;
unicode = 123;
}
{
glyphname = bar;
layers = (
{
layerId = "452AD06C-4D92-427C-8B35-838986F56274";
shapes = (
{
closed = 1;
nodes = (
(32,-223,l),
(32,722,l),
(0,722,l),
(0,-223,l)
);
}
);
userData = {
com.hugojourdan.ColorFlow = {
"0" = 0;
"1" = 0;
"10" = 0;
"11" = 0;
"2" = 0;
"3" = 0;
"4" = 0;
"5" = 0;
"6" = 0;
"7" = 0;
"8" = 0;
"9" = 0;
};
};
width = 32;
},
{
layerId = m004;
shapes = (
{
closed = 1;
nodes = (
(192,-219,l),
(192,742,l),
(0,742,l),
(0,-219,l)
);
}
);
userData = {
com.hugojourdan.ColorFlow = {
"0" = 0;
"1" = 0;
"10" = 0;
"11" = 0;
"2" = 0;
"3" = 0;
"4" = 0;
"5" = 0;
"6" = 0;
"7" = 0;
"8" = 0;
"9" = 0;
};
};
width = 192;
},
{
layerId = "D54810B1-F9A5-4F35-A1FF-AED0599B2373";
shapes = (
{
closed = 1;
nodes = (
(120,-221,l),
(120,733,l),
(0,733,l),
(0,-221,l)
);
}
);
userData = {
com.hugojourdan.ColorFlow = {
"0" = 0;
"1" = 0;
"10" = 0;
"11" = 0;
"2" = 0;
"3" = 0;
"4" = 0;
"5" = 0;
"6" = 0;
"7" = 0;
"8" = 0;
"9" = 0;
};
};
width = 119.5;
}
);
unicode = 124;
}
{
glyphname = asciitilde;
layers = (
{
layerId = "452AD06C-4D92-427C-8B35-838986F56274";
shapes = (
{
closed = 1;
nodes = (
(60,252,l),
(77,308,o),
(109,307,o),
(137,305,cs),
(195,299,o),
(274,264,o),
(329,260,cs),
(368,257,o),
(420,281,o),
(440,355,c),
(431,359,l),
(407,298,o),
(375,302,o),
(355,303,cs),
(306,307,o),
(213,347,o),
(152,349,cs),
(115,350,o),
(70,335,o),
(49,256,c)
);
}
);
userData = {
com.hugojourdan.ColorFlow = {
"0" = 0;
"1" = 0;
"10" = 0;
"11" = 0;
"2" = 0;
"3" = 0;
"4" = 0;
"5" = 0;
"6" = 0;
"7" = 0;
"8" = 0;
"9" = 0;
};
};
width = 500;
},
{
layerId = m004;
shapes = (
{
closed = 1;
nodes = (
(84,298,l),
(93,362,o),
(134,369,o),
(183,360,cs),
(253,347,o),
(330,307,o),
(397,314,cs),
(449,319,o),
(493,364,o),
(514,472,c),
(493,479,l),
(477,423,o),
(443,424,o),
(401,431,cs),
(340,440,o),
(265,476,o),
(202,472,cs),
(121,467,o),
(61,419,o),
(61,298,c)
);
}
);
userData = {
com.hugojourdan.ColorFlow = {
"0" = 0;
"1" = 0;
"10" = 0;
"11" = 0;
"2" = 0;
"3" = 0;
"4" = 0;
"5" = 0;
"6" = 0;
"7" = 0;
"8" = 0;
"9" = 0;
};
};
width = 580;
},
{
layerId = "D54810B1-F9A5-4F35-A1FF-AED0599B2373";
shapes = (
{
closed = 1;
nodes = (
(73,277,l),
(86,338,o),
(123,341,o),
(162,335,cs),
(227,325,o),
(305,288,o),
(366,290,cs),
(412,291,o),
(460,326,o),
(480,419,c),
(465,425,l),
(445,366,o),
(412,369,o),
(380,373,cs),
(325,380,o),
(241,418,o),
(179,416,cs),
(118,414,o),
(65,381,o),
(56,279,c)
);
}
);
userData = {
com.hugojourdan.ColorFlow = {
"0" = 0;
"1" = 0;
"10" = 0;
"11" = 0;
"2" = 0;
"3" = 0;
"4" = 0;
"5" = 0;
"6" = 0;
"7" = 0;
"8" = 0;
"9" = 0;
};
};
width = 543.75;
}
);
unicode = 126;
}
{
glyphname = exclamdown;
layers = (
{
anchors = (
{
name = _bottom;
pos = (123.572,768.43);
}
);
layerId = "452AD06C-4D92-427C-8B35-838986F56274";
shapes = (
{
closed = 1;
nodes = (
(161,3,o),
(154,49,o),
(150,138,cs),
(133,506,l),
(113,506,l),
(95,173,ls),
(87,29,o),
(86,5,o),
(69,-72,c),
(95,-35,o),
(126,-20,o),
(166,-15,c)
);
},
{
pos = (49,592);
ref = period;
}
);
userData = {
com.hugojourdan.ColorFlow = {
"0" = 0;
"1" = 0;
"10" = 0;
"11" = 0;
"2" = 0;
"3" = 0;
"4" = 0;
"5" = 0;
"6" = 0;
"7" = 0;
"8" = 0;
"9" = 0;
};
};
width = 262;
},
{
anchors = (
{
name = _bottom;
pos = (334.805,831.545);
}
);
layerId = m004;
shapes = (
{
closed = 1;
nodes = (
(271,12,o),
(255,111,o),
(230,324,cs),
(205,537,l),
(144,537,l),
(88,168,ls),
(73,70,o),
(60,34,o),
(30,6,c),
(163,-18,o),
(251,-78,o),
(316,-83,c)
);
},
{
pos = (59,622);
ref = period;
}
);
userData = {
com.hugojourdan.ColorFlow = {
"0" = 0;
"1" = 0;
"10" = 0;
"11" = 0;
"2" = 0;
"3" = 0;
"4" = 0;
"5" = 0;
"6" = 0;
"7" = 0;
"8" = 0;
"9" = 0;
};
};
width = 343;
},
{
anchors = (
{
name = _bottom;
pos = (239,803);
}
);
layerId = "D54810B1-F9A5-4F35-A1FF-AED0599B2373";
shapes = (
{
closed = 1;
nodes = (
(221,8,o),
(209,83,o),
(194,240,cs),
(172,523,l),
(130,523,l),
(91,170,ls),
(79,51,o),
(72,21,o),
(48,-29,c),
(132,-26,o),
(194,-52,o),
(248,-52,c)
);
},
{
alignment = -1;
pos = (54,608);
ref = period;
}
);
userData = {
com.hugojourdan.ColorFlow = {
"0" = 0;
"1" = 0;
"10" = 0;
"11" = 0;
"2" = 0;
"3" = 0;
"4" = 0;
"5" = 0;
"6" = 0;
"7" = 0;
"8" = 0;
"9" = 0;
};
};
width = 306.29688;
}
);
unicode = 161;
}
{
glyphname = currency;
layers = (
{
layerId = "452AD06C-4D92-427C-8B35-838986F56274";
shapes = (
{
closed = 1;
nodes = (
(398,60,o),
(447,74,o),
(487,102,c),
(635,-11,l),
(640,-7,l),
(525,138,l),
(555,175,o),
(574,225,o),
(574,289,cs),
(574,355,o),
(554,406,o),
(522,444,c),
(640,591,l),
(635,595,l),
(483,479,l),
(444,506,o),
(396,519,o),
(346,519,cs),
(300,519,o),
(254,506,o),
(215,480,c),
(65,595,l),
(60,591,l),
(175,447,l),
(140,408,o),
(117,355,o),
(117,289,cs),
(117,222,o),
(138,170,o),
(171,133,c),
(60,-7,l),
(65,-11,l),
(209,100,l),
(248,73,o),
(296,60,o),
(346,60,cs)
);
},
{
closed = 1;
nodes = (
(180,393,o),
(230,492,o),
(344,492,cs),
(459,492,o),
(515,384,o),
(515,280,cs),
(515,181,o),
(465,84,o),
(353,84,cs),
(237,84,o),
(180,190,o),
(180,294,cs)
);
}
);
userData = {
com.hugojourdan.ColorFlow = {
"0" = 0;
"1" = 0;
"10" = 0;
"11" = 0;
"2" = 0;
"3" = 0;
"4" = 0;
"5" = 0;
"6" = 0;
"7" = 0;
"8" = 0;
"9" = 0;
};
};
width = 700;
},
{
layerId = m004;
shapes = (
{
closed = 1;
nodes = (
(447,66,o),
(484,74,o),
(517,88,c),
(723,-57,l),
(765,-20,l),
(631,180,l),
(662,223,o),
(680,276,o),
(680,333,cs),
(680,392,o),
(661,446,o),
(629,491,c),
(765,694,l),
(723,731,l),
(512,582,l),
(480,595,o),
(445,602,o),
(409,602,cs),
(377,602,o),
(346,596,o),
(317,586,c),
(112,731,l),
(70,694,l),
(199,502,l),
(161,456,o),
(139,397,o),
(139,333,cs),
(139,271,o),
(161,214,o),
(197,168,c),
(70,-21,l),
(112,-58,l),
(312,84,l),
(342,72,o),
(375,66,o),
(409,66,cs)
);
},
{
closed = 1;
nodes = (
(346,472,o),
(374,561,o),
(408,561,cs),
(444,561,o),
(471,472,o),
(471,337,cs),
(471,202,o),
(444,113,o),
(408,113,cs),
(374,113,o),
(346,202,o),
(346,336,cs)
);
}
);
userData = {
com.hugojourdan.ColorFlow = {
"0" = 0;
"1" = 0;
"10" = 0;
"11" = 0;
"2" = 0;
"3" = 0;
"4" = 0;
"5" = 0;
"6" = 0;
"7" = 0;
"8" = 0;
"9" = 0;
};
};
width = 835;
},
{
layerId = "D54810B1-F9A5-4F35-A1FF-AED0599B2373";
shapes = (
{
closed = 1;
nodes = (
(425,63,o),
(467,74,o),
(503,94,c),
(683,-36,l),
(708,-14,l),
(583,161,l),
(614,201,o),
(632,253,o),
(632,313,cs),
(632,375,o),
(613,428,o),
(581,470,c),
(708,647,l),
(683,669,l),
(499,535,l),
(464,555,o),
(423,564,o),
(380,564,cs),
(342,564,o),
(304,555,o),
(271,538,c),
(91,669,l),
(65,647,l),
(188,477,l),
(151,434,o),
(129,378,o),
(129,313,cs),
(129,249,o),
(151,194,o),
(185,152,c),
(65,-15,l),
(91,-37,l),
(265,91,l),
(299,72,o),
(339,63,o),
(380,63,cs)
);
},
{
closed = 1;
nodes = (
(271,436,o),
(309,530,o),
(379,530,cs),
(451,530,o),
(491,432,o),
(491,311,cs),
(491,192,o),
(454,100,o),
(383,100,cs),
(312,100,o),
(271,197,o),
(271,317,cs)
);
}
);
userData = {
com.hugojourdan.ColorFlow = {
"0" = 0;
"1" = 0;
"10" = 0;
"11" = 0;
"2" = 0;
"3" = 0;
"4" = 0;
"5" = 0;
"6" = 0;
"7" = 0;
"8" = 0;
"9" = 0;
};
};
width = 773.82812;
}
);
note = currency;
unicode = 164;
}
{
color = 5;
glyphname = yen;
layers = (
{
layerId = "452AD06C-4D92-427C-8B35-838986F56274";
shapes = (
{
closed = 1;
nodes = (
(531,337,l),
(536,379,l),
(90,379,l),
(97,337,l)
);
},
{
closed = 1;
nodes = (
(497,180,l),
(501,222,l),
(123,222,l),
(128,180,l)
);
},
{
ref = Y;
}
);
userData = {
com.hugojourdan.ColorFlow = {
"0" = 0;
"1" = 0;
"10" = 0;
"11" = 0;
"2" = 0;
"3" = 0;
"4" = 0;
"5" = 0;
"6" = 0;
"7" = 0;
"8" = 0;
"9" = 0;
};
};
width = 606;
},
{
layerId = m004;
shapes = (
{
closed = 1;
nodes = (
(591,287,l),
(601,379,l),
(126,379,l),
(136,287,l)
);
},
{
closed = 1;
nodes = (
(562,130,l),
(569,222,l),
(151,222,l),
(162,130,l)
);
},
{
ref = Y;
}
);
userData = {
com.hugojourdan.ColorFlow = {
"0" = 0;
"1" = 0;
"10" = 0;
"11" = 0;
"2" = 0;
"3" = 0;
"4" = 0;
"5" = 0;
"6" = 0;
"7" = 0;
"8" = 0;
"9" = 0;
};
};
width = 679;
},
{
layerId = "D54810B1-F9A5-4F35-A1FF-AED0599B2373";
shapes = (
{
closed = 1;
nodes = (
(564,310,l),
(572,379,l),
(110,379,l),
(118,310,l)
);
},
{
closed = 1;
nodes = (
(533,153,l),
(538,222,l),
(138,222,l),
(147,153,l)
);
},
{
alignment = -1;
ref = Y;
}
);
userData = {
com.hugojourdan.ColorFlow = {
"0" = 0;
"1" = 0;
"10" = 0;
"11" = 0;
"2" = 0;
"3" = 0;
"4" = 0;
"5" = 0;
"6" = 0;
"7" = 0;
"8" = 0;
"9" = 0;
};
};
width = 652;
}
);
metricRight = Y;
unicode = 165;
}
{
glyphname = brokenbar;
layers = (
{
layerId = "452AD06C-4D92-427C-8B35-838986F56274";
shapes = (
{
closed = 1;
nodes = (
(32,345,l),
(32,722,l),
(0,722,l),
(0,393,l)
);
},
{
closed = 1;
nodes = (
(0,266,l),
(0,-223,l),
(32,-223,l),
(32,222,l)
);
}
);
userData = {
com.hugojourdan.ColorFlow = {
"0" = 0;
"1" = 0;
"10" = 0;
"11" = 0;
"2" = 0;
"3" = 0;
"4" = 0;
"5" = 0;
"6" = 0;
"7" = 0;
"8" = 0;
"9" = 0;
};
};
width = 32;
},
{
layerId = m004;
shapes = (
{
closed = 1;
nodes = (
(192,276,l),
(192,742,l),
(0,742,l),
(0,416,l)
);
},
{
closed = 1;
nodes = (
(0,331,l),
(0,-220,l),
(192,-220,l),
(192,190,l)
);
}
);
userData = {
com.hugojourdan.ColorFlow = {
"0" = 0;
"1" = 0;
"10" = 0;
"11" = 0;
"2" = 0;
"3" = 0;
"4" = 0;
"5" = 0;
"6" = 0;
"7" = 0;
"8" = 0;
"9" = 0;
};
};
width = 192;
},
{
layerId = "D54810B1-F9A5-4F35-A1FF-AED0599B2373";
shapes = (
{
closed = 1;
nodes = (
(120,307,l),
(120,733,l),
(0,733,l),
(0,406,l)
);
},
{
closed = 1;
nodes = (
(0,302,l),
(0,-221,l),
(120,-221,l),
(120,205,l)
);
}
);
userData = {
com.hugojourdan.ColorFlow = {
"0" = 0;
"1" = 0;
"10" = 0;
"11" = 0;
"2" = 0;
"3" = 0;
"4" = 0;
"5" = 0;
"6" = 0;
"7" = 0;
"8" = 0;
"9" = 0;
};
};
width = 120;
}
);
metricRight = "=|";
unicode = 166;
}
{
color = 5;
glyphname = dieresis;
layers = (
{
layerId = "452AD06C-4D92-427C-8B35-838986F56274";
shapes = (
{
closed = 1;
nodes = (
(164,590,o),
(178,606,o),
(198,610,c),
(230,598,o),
(244,582,o),
(248,558,c),
(261,593,o),
(277,609,o),
(300,612,c),
(267,625,o),
(251,642,o),
(248,666,c),
(236,634,o),
(222,618,o),
(202,614,c),
(170,626,o),
(156,642,o),
(152,666,c),
(142,632,o),
(126,616,o),
(100,612,c),
(133,599,o),
(149,583,o),
(152,558,c)
);
}
);
userData = {
com.hugojourdan.ColorFlow = {
"0" = 0;
"1" = 0;
"10" = 0;
"11" = 0;
"2" = 0;
"3" = 0;
"4" = 0;
"5" = 0;
"6" = 0;
"7" = 0;
"8" = 0;
"9" = 0;
};
};
width = 405;
},
{
layerId = m004;
shapes = (
{
closed = 1;
nodes = (
(143,576,o),
(174,608,o),
(198,620,c),
(238,596,o),
(273,568,o),
(281,536,c),
(305,580,o),
(340,617,o),
(370,624,c),
(326,648,o),
(288,682,o),
(281,712,c),
(257,672,o),
(226,640,o),
(202,628,c),
(162,652,o),
(127,680,o),
(119,712,c),
(95,668,o),
(60,631,o),
(30,624,c),
(74,600,o),
(112,566,o),
(119,536,c)
);
}
);
userData = {
com.hugojourdan.ColorFlow = {
"0" = 0;
"1" = 0;
"10" = 0;
"11" = 0;
"2" = 0;
"3" = 0;
"4" = 0;
"5" = 0;
"6" = 0;
"7" = 0;
"8" = 0;
"9" = 0;
};
};
width = 405;
},
{
layerId = "D54810B1-F9A5-4F35-A1FF-AED0599B2373";
shapes = (
{
closed = 1;
nodes = (
(153,582,o),
(176,607,o),
(198,615,c),
(234,597,o),
(260,574,o),
(266,546,c),
(285,586,o),
(311,613,o),
(338,619,c),
(299,638,o),
(271,664,o),
(266,691,c),
(247,655,o),
(224,630,o),
(202,622,c),
(166,640,o),
(140,663,o),
(134,691,c),
(116,652,o),
(90,624,o),
(62,619,c),
(101,600,o),
(129,574,o),
(134,546,c)
);
}
);
userData = {
com.hugojourdan.ColorFlow = {
"0" = 0;
"1" = 0;
"10" = 0;
"11" = 0;
"2" = 0;
"3" = 0;
"4" = 0;
"5" = 0;
"6" = 0;
"7" = 0;
"8" = 0;
"9" = 0;
};
};
width = 405;
}
);
unicode = 168;
}
{
glyphname = guillemetleft;
layers = (
{
layerId = "452AD06C-4D92-427C-8B35-838986F56274";
shapes = (
{
closed = 1;
nodes = (
(360,8,l),
(323,16,o),
(299,46,o),
(275,72,c),
(223,138,o),
(162,235,o),
(117,266,c),
(244,425,ls),
(280,470,o),
(279,491,o),
(338,491,cs),
(368,491,o),
(381,486,o),
(381,468,cs),
(381,453,o),
(368,432,o),
(352,412,cs),
(256,295,ls),
(242,278,o),
(227,261,o),
(214,252,c),
(214,249,l),
(251,221,o),
(318,122,o),
(371,57,cs),
(403,18,o),
(442,8,o),
(524,0,c),
(527,8,l),
(488,16,o),
(465,46,o),
(442,72,cs),
(390,138,o),
(329,235,o),
(285,266,c),
(409,425,l),
(450,473,o),
(466,491,o),
(514,493,c),
(514,497,l),
(187,497,l),
(187,493,l),
(225,479,o),
(217,447,o),
(187,412,cs),
(88,295,l),
(76,278,o),
(60,261,o),
(46,252,c),
(46,249,l),
(85,221,o),
(152,122,o),
(204,57,cs),
(237,18,o),
(275,8,o),
(357,0,c)
);
}
);
userData = {
com.hugojourdan.ColorFlow = {
"0" = 0;
"1" = 0;
"10" = 0;
"11" = 0;
"2" = 0;
"3" = 0;
"4" = 0;
"5" = 0;
"6" = 0;
"7" = 0;
"8" = 0;
"9" = 0;
};
};
width = 560;
},
{
layerId = m004;
shapes = (
{
closed = 1;
nodes = (
(400,29,l),
(368,37,o),
(347,62,o),
(326,85,c),
(281,142,o),
(229,258,o),
(190,285,c),
(294,412,ls),
(322,446,o),
(354,459,o),
(400,459,cs),
(418,459,o),
(425,457,o),
(425,452,cs),
(425,441,o),
(397,404,o),
(372,373,cs),
(321,310,ls),
(309,296,o),
(296,281,o),
(285,273,c),
(285,259,l),
(316,235,o),
(372,129,o),
(418,73,cs),
(468,14,o),
(528,-16,o),
(643,10,c),
(644,28,l),
(610,35,o),
(590,61,o),
(571,84,cs),
(526,141,o),
(473,258,o),
(435,285,c),
(542,422,ls),
(576,466,o),
(591,479,o),
(633,481,c),
(633,500,l),
(175,500,l),
(165,481,l),
(187,458,o),
(178,442,o),
(153,411,cs),
(79,321,ls),
(67,307,o),
(55,292,o),
(42,284,c),
(42,270,l),
(75,246,o),
(116,135,o),
(178,61,cs),
(207,27,o),
(251,-15,o),
(399,11,c)
);
}
);
userData = {
com.hugojourdan.ColorFlow = {
"0" = 0;
"1" = 0;
"10" = 0;
"11" = 0;
"2" = 0;
"3" = 0;
"4" = 0;
"5" = 0;
"6" = 0;
"7" = 0;
"8" = 0;
"9" = 0;
};
};
width = 686;
},
{
layerId = "D54810B1-F9A5-4F35-A1FF-AED0599B2373";
shapes = (
{
closed = 1;
nodes = (
(382,19,l),
(348,27,o),
(325,55,o),
(303,79,c),
(255,140,o),
(199,248,o),
(157,276,c),
(271,418,ls),
(303,457,o),
(323,474,o),
(372,474,cs),
(389,474,o),
(405,472,o),
(405,459,cs),
(405,447,o),
(397,433,o),
(363,391,cs),
(292,303,ls),
(280,288,o),
(265,272,o),
(253,263,c),
(253,254,l),
(287,229,o),
(348,126,o),
(397,66,cs),
(439,16,o),
(489,-5,o),
(589,5,c),
(591,19,l),
(555,26,o),
(533,54,o),
(513,79,cs),
(464,140,o),
(408,248,o),
(367,276,c),
(482,423,ls),
(518,469,o),
(534,484,o),
(579,486,c),
(579,499,l),
(180,499,l),
(175,486,l),
(204,468,o),
(196,444,o),
(168,411,cs),
(83,309,ls),
(71,294,o),
(57,278,o),
(44,270,c),
(44,260,l),
(80,235,o),
(132,129,o),
(190,59,cs),
(221,23,o),
(262,-5,o),
(380,6,c)
);
}
);
userData = {
com.hugojourdan.ColorFlow = {
"0" = 0;
"1" = 0;
"10" = 0;
"11" = 0;
"2" = 0;
"3" = 0;
"4" = 0;
"5" = 0;
"6" = 0;
"7" = 0;
"8" = 0;
"9" = 0;
};
};
width = 628.90625;
}
);
note = guillemotleft;
unicode = 171;
}
{
glyphname = degree;
layers = (
{
layerId = "452AD06C-4D92-427C-8B35-838986F56274";
shapes = (
{
closed = 1;
nodes = (
(221,513,o),
(257,537,o),
(257,585,cs),
(257,623,o),
(231,667,o),
(182,667,cs),
(132,667,o),
(107,625,o),
(107,587,cs),
(107,549,o),
(132,513,o),
(182,513,cs)
);
},
{
closed = 1;
nodes = (
(155,541,o),
(128,558,o),
(128,593,cs),
(128,623,o),
(154,637,o),
(182,637,cs),
(211,637,o),
(237,624,o),
(237,592,cs),
(237,559,o),
(212,541,o),
(183,541,cs)
);
}
);
userData = {
com.hugojourdan.ColorFlow = {
"0" = 0;
"1" = 0;
"10" = 0;
"11" = 0;
"2" = 0;
"3" = 0;
"4" = 0;
"5" = 0;
"6" = 0;
"7" = 0;
"8" = 0;
"9" = 0;
};
};
width = 364;
},
{
layerId = m004;
shapes = (
{
closed = 1;
nodes = (
(226,491,o),
(270,524,o),
(270,585,cs),
(270,633,o),
(238,682,o),
(182,682,cs),
(125,682,o),
(94,635,o),
(94,587,cs),
(94,539,o),
(125,491,o),
(182,491,cs)
);
},
{
closed = 1;
nodes = (
(158,557,o),
(141,570,o),
(141,593,cs),
(141,612,o),
(157,627,o),
(182,627,cs),
(208,627,o),
(224,613,o),
(224,592,cs),
(224,570,o),
(209,557,o),
(183,557,cs)
);
}
);
userData = {
com.hugojourdan.ColorFlow = {
"0" = 0;
"1" = 0;
"10" = 0;
"11" = 0;
"2" = 0;
"3" = 0;
"4" = 0;
"5" = 0;
"6" = 0;
"7" = 0;
"8" = 0;
"9" = 0;
};
};
width = 364;
},
{
layerId = "D54810B1-F9A5-4F35-A1FF-AED0599B2373";
shapes = (
{
closed = 1;
nodes = (
(224,501,o),
(264,530,o),
(264,585,cs),
(264,628,o),
(235,675,o),
(182,675,cs),
(128,675,o),
(100,630,o),
(100,587,cs),
(100,544,o),
(128,501,o),
(182,501,cs)
);
},
{
closed = 1;
nodes = (
(157,550,o),
(135,565,o),
(135,593,cs),
(135,617,o),
(156,632,o),
(182,632,cs),
(209,632,o),
(230,618,o),
(230,592,cs),
(230,565,o),
(210,550,o),
(183,550,cs)
);
}
);
userData = {
com.hugojourdan.ColorFlow = {
"0" = 0;
"1" = 0;
"10" = 0;
"11" = 0;
"2" = 0;
"3" = 0;
"4" = 0;
"5" = 0;
"6" = 0;
"7" = 0;
"8" = 0;
"9" = 0;
};
};
width = 364;
}
);
unicode = 176;
}
{
color = 7;
glyphname = plusminus;
layers = (
{
layerId = "452AD06C-4D92-427C-8B35-838986F56274";
shapes = (
{
closed = 1;
nodes = (
(532,0,l),
(532,70,l),
(296,46,l),
(48,59,l),
(48,0,l)
);
},
{
closed = 1;
nodes = (
(345,191,l),
(314,435,l),
(549,407,l),
(549,477,l),
(314,442,l),
(345,682,l),
(269,682,l),
(305,442,l),
(65,466,l),
(65,407,l),
(305,435,l),
(269,191,l)
);
}
);
userData = {
com.hugojourdan.ColorFlow = {
"0" = 0;
"1" = 0;
"10" = 0;
"11" = 0;
"2" = 0;
"3" = 0;
"4" = 0;
"5" = 0;
"6" = 0;
"7" = 0;
"8" = 0;
"9" = 0;
};
};
width = 600;
},
{
layerId = m004;
shapes = (
{
closed = 1;
nodes = (
(575,0,l),
(575,126,l),
(299,117,l),
(24,126,l),
(24,0,l)
);
},
{
closed = 1;
nodes = (
(382,199,l),
(352,421,l),
(582,390,l),
(582,544,l),
(352,505,l),
(383,722,l),
(231,722,l),
(266,503,l),
(32,529,l),
(32,390,l),
(266,421,l),
(231,199,l)
);
}
);
userData = {
com.hugojourdan.ColorFlow = {
"0" = 0;
"1" = 0;
"10" = 0;
"11" = 0;
"2" = 0;
"3" = 0;
"4" = 0;
"5" = 0;
"6" = 0;
"7" = 0;
"8" = 0;
"9" = 0;
};
};
width = 610;
},
{
layerId = "D54810B1-F9A5-4F35-A1FF-AED0599B2373";
shapes = (
{
closed = 1;
nodes = (
(556,0,l),
(556,101,l),
(298,85,l),
(35,96,l),
(35,0,l)
);
},
{
closed = 1;
nodes = (
(365,195,l),
(335,427,l),
(567,398,l),
(567,514,l),
(335,476,l),
(366,704,l),
(248,704,l),
(284,475,l),
(47,500,l),
(47,398,l),
(284,427,l),
(248,195,l)
);
}
);
userData = {
com.hugojourdan.ColorFlow = {
"0" = 0;
"1" = 0;
"10" = 0;
"11" = 0;
"2" = 0;
"3" = 0;
"4" = 0;
"5" = 0;
"6" = 0;
"7" = 0;
"8" = 0;
"9" = 0;
};
};
width = 605.46875;
}
);
unicode = 177;
}
{
color = 5;
glyphname = acute;
layers = (
{
layerId = "452AD06C-4D92-427C-8B35-838986F56274";
shapes = (
{
closed = 1;
nodes = (
(226,674,l),
(141,674,l),
(19,512,l),
(25,506,l)
);
}
);
userData = {
com.hugojourdan.ColorFlow = {
"0" = 0;
"1" = 0;
"10" = 0;
"11" = 0;
"2" = 0;
"3" = 0;
"4" = 0;
"5" = 0;
"6" = 0;
"7" = 0;
"8" = 0;
"9" = 0;
};
};
width = 259;
},
{
layerId = m004;
shapes = (
{
closed = 1;
nodes = (
(240,723,l),
(82,723,l),
(10,488,l),
(40,478,l)
);
}
);
userData = {
com.hugojourdan.ColorFlow = {
"0" = 0;
"1" = 0;
"10" = 0;
"11" = 0;
"2" = 0;
"3" = 0;
"4" = 0;
"5" = 0;
"6" = 0;
"7" = 0;
"8" = 0;
"9" = 0;
};
};
width = 259;
},
{
layerId = "D54810B1-F9A5-4F35-A1FF-AED0599B2373";
shapes = (
{
closed = 1;
nodes = (
(234,701,l),
(109,701,l),
(14,499,l),
(33,491,l)
);
}
);
userData = {
com.hugojourdan.ColorFlow = {
"0" = 0;
"1" = 0;
"10" = 0;
"11" = 0;
"2" = 0;
"3" = 0;
"4" = 0;
"5" = 0;
"6" = 0;
"7" = 0;
"8" = 0;
"9" = 0;
};
};
width = 259;
}
);
unicode = 180;
}
{
glyphname = paragraph;
layers = (
{
layerId = "452AD06C-4D92-427C-8B35-838986F56274";
shapes = (
{
closed = 1;
nodes = (
(197,-485,l),
(533,-381,o),
(674,-168,o),
(674,112,cs),
(674,652,ls),
(674,697,o),
(690,716,o),
(726,716,cs),
(746,716,l),
(746,722,l),
(603,722,l),
(604,646,l),
(530,707,o),
(447,735,o),
(368,735,cs),
(195,735,o),
(50,594,o),
(50,392,cs),
(50,168,o),
(226,-3,o),
(418,-3,cs),
(482,-3,o),
(547,17,o),
(605,62,c),
(605,29,ls),
(605,-180,o),
(495,-382,o),
(194,-479,c)
);
},
{
closed = 1;
nodes = (
(261,18,o),
(128,196,o),
(128,399,cs),
(128,577,o),
(243,705,o),
(382,705,cs),
(454,705,o),
(532,676,o),
(604,612,c),
(604,186,ls),
(604,78,o),
(507,18,o),
(413,18,cs)
);
},
{
closed = 1;
nodes = (
(461,-461,l),
(768,-285,o),
(807,-90,o),
(807,179,cs),
(807,569,ls),
(807,614,o),
(823,633,o),
(859,633,cs),
(879,633,l),
(879,639,l),
(743,639,l),
(747,90,ls),
(749,-143,o),
(691,-329,o),
(456,-456,c)
);
}
);
userData = {
com.hugojourdan.ColorFlow = {
"0" = 0;
"1" = 0;
"10" = 0;
"11" = 0;
"2" = 0;
"3" = 0;
"4" = 0;
"5" = 0;
"6" = 0;
"7" = 0;
"8" = 0;
"9" = 0;
};
};
width = 929;
},
{
layerId = m004;
shapes = (
{
closed = 1;
nodes = (
(256,-402,l),
(478,-283,o),
(618,-150,o),
(618,106,cs),
(618,634,ls),
(618,676,o),
(636,698,o),
(670,698,cs),
(686,698,l),
(686,722,l),
(428,722,l),
(428,682,l),
(389,714,o),
(342,729,o),
(296,729,cs),
(160,729,o),
(30,597,o),
(30,390,cs),
(30,213,o),
(109,34,o),
(302,34,cs),
(340,34,o),
(382,40,o),
(428,55,c),
(428,39,ls),
(428,-112,o),
(404,-257,o),
(244,-380,c)
);
},
{
closed = 1;
nodes = (
(298,123,o),
(258,248,o),
(258,374,cs),
(258,505,o),
(300,636,o),
(374,636,cs),
(401,636,o),
(423,623,o),
(428,610,c),
(428,176,ls),
(428,138,o),
(407,123,o),
(386,123,cs)
);
},
{
closed = 1;
nodes = (
(423,-390,l),
(770,-209,o),
(790,-55,o),
(790,137,cs),
(790,556,ls),
(790,598,o),
(808,620,o),
(842,620,cs),
(858,620,l),
(858,644,l),
(672,644,l),
(676,124,ls),
(678,-96,o),
(635,-244,o),
(412,-369,c)
);
}
);
userData = {
com.hugojourdan.ColorFlow = {
"0" = 0;
"1" = 0;
"10" = 0;
"11" = 0;
"2" = 0;
"3" = 0;
"4" = 0;
"5" = 0;
"6" = 0;
"7" = 0;
"8" = 0;
"9" = 0;
};
};
width = 898;
},
{
layerId = "D54810B1-F9A5-4F35-A1FF-AED0599B2373";
shapes = (
{
closed = 1;
nodes = (
(230,-440,l),
(504,-327,o),
(644,-158,o),
(644,109,cs),
(644,642,ls),
(644,686,o),
(661,706,o),
(696,706,cs),
(714,706,l),
(714,722,l),
(508,722,l),
(509,666,l),
(454,711,o),
(391,732,o),
(330,732,cs),
(177,732,o),
(40,596,o),
(40,391,cs),
(40,193,o),
(163,17,o),
(356,17,cs),
(405,17,o),
(458,30,o),
(509,58,c),
(509,34,ls),
(509,-143,o),
(446,-314,o),
(222,-425,c)
);
},
{
closed = 1;
nodes = (
(282,75,o),
(200,224,o),
(200,385,cs),
(200,538,o),
(275,667,o),
(379,667,cs),
(426,667,o),
(473,647,o),
(509,611,c),
(509,181,ls),
(509,111,o),
(453,75,o),
(399,75,cs)
);
},
{
closed = 1;
nodes = (
(441,-422,l),
(770,-243,o),
(799,-71,o),
(799,156,cs),
(799,562,ls),
(799,606,o),
(816,626,o),
(851,626,cs),
(869,626,l),
(869,642,l),
(705,642,l),
(709,109,ls),
(711,-117,o),
(661,-283,o),
(433,-408,c)
);
}
);
userData = {
com.hugojourdan.ColorFlow = {
"0" = 0;
"1" = 0;
"10" = 0;
"11" = 0;
"2" = 0;
"3" = 0;
"4" = 0;
"5" = 0;
"6" = 0;
"7" = 0;
"8" = 0;
"9" = 0;
};
};
width = 919;
}
);
metricLeft = O;
metricRight = I;
unicode = 182;
}
{
glyphname = periodcentered;
kernLeft = bullet;
kernRight = bullet;
layers = (
{
layerId = "452AD06C-4D92-427C-8B35-838986F56274";
shapes = (
{
closed = 1;
nodes = (
(171,174,o),
(185,204,o),
(205,228,c),
(217,225,o),
(228,220,o),
(238,212,c),
(233,225,o),
(229,238,o),
(226,251,c),
(246,268,o),
(268,279,o),
(293,282,c),
(268,293,o),
(247,307,o),
(228,324,c),
(231,335,o),
(235,347,o),
(240,359,c),
(229,353,o),
(218,348,o),
(207,344,c),
(189,364,o),
(175,388,o),
(163,416,c),
(156,389,o),
(144,364,o),
(127,343,c),
(115,346,o),
(103,351,o),
(91,357,c),
(97,346,o),
(102,334,o),
(106,322,c),
(86,305,o),
(62,292,o),
(34,282,c),
(60,276,o),
(85,263,o),
(105,246,c),
(101,232,o),
(95,220,o),
(86,208,c),
(98,215,o),
(112,221,o),
(126,225,c),
(146,202,o),
(159,174,o),
(163,145,c)
);
},
{
closed = 1;
nodes = (
(153,291,o),
(162,299,o),
(166,313,c),
(170,299,o),
(180,291,o),
(195,283,c),
(180,282,o),
(170,269,o),
(166,255,c),
(162,269,o),
(153,281,o),
(136,283,c)
);
}
);
userData = {
com.hugojourdan.ColorFlow = {
"0" = 0;
"1" = 0;
"10" = 0;
"11" = 0;
"2" = 0;
"3" = 0;
"4" = 0;
"5" = 0;
"6" = 0;
"7" = 0;
"8" = 0;
"9" = 0;
};
};
width = 325;
},
{
layerId = m004;
shapes = (
{
closed = 1;
nodes = (
(237,174,o),
(251,204,o),
(271,228,c),
(283,225,o),
(294,220,o),
(304,212,c),
(299,225,o),
(295,238,o),
(292,251,c),
(312,268,o),
(334,279,o),
(359,282,c),
(334,293,o),
(313,307,o),
(294,324,c),
(297,335,o),
(301,347,o),
(306,359,c),
(295,353,o),
(284,348,o),
(273,344,c),
(255,364,o),
(241,388,o),
(229,416,c),
(222,389,o),
(210,364,o),
(193,343,c),
(181,346,o),
(169,351,o),
(157,357,c),
(163,346,o),
(168,334,o),
(172,322,c),
(152,305,o),
(128,292,o),
(100,282,c),
(126,276,o),
(151,263,o),
(171,246,c),
(167,232,o),
(161,220,o),
(152,208,c),
(164,215,o),
(178,221,o),
(192,225,c),
(212,202,o),
(225,174,o),
(229,145,c)
);
},
{
closed = 1;
nodes = (
(219,291,o),
(228,299,o),
(232,313,c),
(236,299,o),
(246,291,o),
(261,283,c),
(246,282,o),
(236,269,o),
(232,255,c),
(228,269,o),
(219,281,o),
(202,283,c)
);
}
);
userData = {
com.hugojourdan.ColorFlow = {
"0" = 0;
"1" = 0;
"10" = 0;
"11" = 0;
"2" = 0;
"3" = 0;
"4" = 0;
"5" = 0;
"6" = 0;
"7" = 0;
"8" = 0;
"9" = 0;
};
};
width = 459;
},
{
layerId = "D54810B1-F9A5-4F35-A1FF-AED0599B2373";
shapes = (
{
closed = 1;
nodes = (
(207,174,o),
(221,204,o),
(241,228,c),
(253,225,o),
(264,220,o),
(274,212,c),
(269,225,o),
(265,238,o),
(262,251,c),
(282,268,o),
(304,279,o),
(329,282,c),
(304,293,o),
(283,307,o),
(264,324,c),
(267,335,o),
(271,347,o),
(276,359,c),
(265,353,o),
(254,348,o),
(243,344,c),
(225,364,o),
(211,388,o),
(199,416,c),
(192,389,o),
(180,364,o),
(163,343,c),
(151,346,o),
(139,351,o),
(127,357,c),
(133,346,o),
(138,334,o),
(142,322,c),
(122,305,o),
(98,292,o),
(70,282,c),
(96,276,o),
(121,263,o),
(141,246,c),
(137,232,o),
(131,220,o),
(122,208,c),
(134,215,o),
(148,221,o),
(162,225,c),
(182,202,o),
(195,174,o),
(199,145,c)
);
},
{
closed = 1;
nodes = (
(189,291,o),
(198,299,o),
(202,313,c),
(206,299,o),
(216,291,o),
(231,283,c),
(216,282,o),
(206,269,o),
(202,255,c),
(198,269,o),
(189,281,o),
(172,283,c)
);
}
);
userData = {
com.hugojourdan.ColorFlow = {
"0" = 0;
"1" = 0;
"10" = 0;
"11" = 0;
"2" = 0;
"3" = 0;
"4" = 0;
"5" = 0;
"6" = 0;
"7" = 0;
"8" = 0;
"9" = 0;
};
};
width = 398.28125;
}
);
unicode = 183;
}
{
glyphname = questiondown;
layers = (
{
layerId = "452AD06C-4D92-427C-8B35-838986F56274";
shapes = (
{
closed = 1;
nodes = (
(86,594,l),
(146,587,o),
(176,557,o),
(187,521,cs),
(199,481,o),
(190,433,o),
(177,392,cs),
(153,318,o),
(49,162,o),
(68,53,cs),
(77,-6,o),
(121,-41,o),
(191,-29,cs),
(268,-15,o),
(350,53,o),
(373,147,c),
(345,152,o),
(312,203,o),
(300,264,c),
(293,263,l),
(315,115,o),
(266,8,o),
(210,-2,cs),
(167,-10,o),
(142,32,o),
(132,91,cs),
(111,213,o),
(148,289,o),
(203,391,cs),
(231,444,o),
(266,483,o),
(260,517,cs),
(251,567,o),
(198,587,o),
(90,603,c)
);
},
{
angle = -170.0002;
pos = (354,1447);
ref = dotaccentcomb;
scale = (1.2171,1.2171);
}
);
userData = {
com.hugojourdan.ColorFlow = {
"0" = 0;
"1" = 0;
"10" = 0;
"11" = 0;
"2" = 0;
"3" = 0;
"4" = 0;
"5" = 0;
"6" = 0;
"7" = 0;
"8" = 0;
"9" = 0;
};
};
width = 393;
},
{
layerId = m004;
shapes = (
{
closed = 1;
nodes = (
(176,546,l),
(245,523,o),
(274,498,o),
(278,470,cs),
(288,413,o),
(197,341,o),
(126,245,cs),
(75,176,o),
(38,97,o),
(53,10,cs),
(66,-64,o),
(124,-117,o),
(235,-98,cs),
(314,-84,o),
(407,-26,o),
(491,98,c),
(407,112,o),
(345,201,o),
(334,261,c),
(309,256,l),
(331,113,o),
(333,-19,o),
(281,-23,cs),
(260,-24,o),
(246,1,o),
(243,41,cs),
(238,141,o),
(277,216,o),
(327,313,cs),
(353,363,o),
(363,405,o),
(357,438,cs),
(348,486,o),
(287,534,o),
(185,571,c)
);
},
{
angle = -165.00014;
pos = (280,1400);
ref = dotaccentcomb;
scale = (1.1017,1.1017);
}
);
userData = {
com.hugojourdan.ColorFlow = {
"0" = 0;
"1" = 0;
"10" = 0;
"11" = 0;
"2" = 0;
"3" = 0;
"4" = 0;
"5" = 0;
"6" = 0;
"7" = 0;
"8" = 0;
"9" = 0;
};
};
width = 511;
},
{
layerId = "D54810B1-F9A5-4F35-A1FF-AED0599B2373";
shapes = (
{
closed = 1;
nodes = (
(136,568,l),
(201,552,o),
(230,525,o),
(237,493,cs),
(248,444,o),
(194,383,o),
(150,312,c),
(111,240,o),
(44,126,o),
(60,29,cs),
(72,-38,o),
(123,-83,o),
(216,-67,cs),
(294,-53,o),
(382,10,o),
(438,120,c),
(379,130,o),
(331,202,o),
(319,262,c),
(302,259,l),
(324,114,o),
(303,-7,o),
(249,-13,cs),
(218,-18,o),
(199,15,o),
(193,64,cs),
(181,174,o),
(219,249,o),
(271,348,cs),
(298,400,o),
(320,440,o),
(314,474,cs),
(305,523,o),
(247,558,o),
(143,586,c)
);
},
{
alignment = -1;
angle = -167.26596;
pos = (314,1421);
ref = dotaccentcomb;
scale = (1.154,1.154);
}
);
userData = {
com.hugojourdan.ColorFlow = {
"0" = 0;
"1" = 0;
"10" = 0;
"11" = 0;
"2" = 0;
"3" = 0;
"4" = 0;
"5" = 0;
"6" = 0;
"7" = 0;
"8" = 0;
"9" = 0;
};
};
width = 458;
}
);
unicode = 191;
}
{
color = 5;
glyphname = AE;
kernLeft = A;
kernRight = E;
layers = (
{
anchors = (
{
name = bottom;
pos = (408,0);
},
{
name = top;
pos = (408,722);
}
);
layerId = "452AD06C-4D92-427C-8B35-838986F56274";
shapes = (
{
closed = 1;
nodes = (
(48,-11,l),
(132,73,o),
(274,213,o),
(382,331,c),
(382,84,ls),
(382,40,o),
(380,24,o),
(372,0,c),
(766,0,l),
(782,53,o),
(799,106,o),
(815,159,c),
(807,163,l),
(748,46,o),
(653,26,o),
(455,26,c),
(454,417,l),
(598,417,ls),
(677,417,o),
(717,408,o),
(750,365,c),
(754,367,l),
(754,483,l),
(750,485,l),
(717,453,o),
(677,433,o),
(598,433,cs),
(454,433,l),
(454,704,l),
(557,704,ls),
(665,704,o),
(697,690,o),
(756,587,c),
(763,590,l),
(724,722,l),
(309,722,l),
(309,716,l),
(329,716,ls),
(365,716,o),
(381,697,o),
(381,652,cs),
(381,593,l),
(267,546,o),
(177,464,o),
(115,368,cs),
(39,248,o),
(11,109,o),
(42,-11,c)
);
},
{
closed = 1;
nodes = (
(78,269,o),
(190,484,o),
(381,572,c),
(382,386,l),
(299,269,o),
(218,188,o),
(124,107,c)
);
}
);
userData = {
com.hugojourdan.ColorFlow = {
"0" = 0;
"1" = 0;
"10" = 0;
"11" = 0;
"2" = 0;
"3" = 0;
"4" = 0;
"5" = 0;
"6" = 0;
"7" = 0;
"8" = 0;
"9" = 0;
};
};
width = 845;
},
{
anchors = (
{
name = bottom;
pos = (504,0);
},
{
name = top;
pos = (504,722);
}
);
layerId = m004;
shapes = (
{
closed = 1;
nodes = (
(26,-78,l),
(168,25,o),
(306,129,o),
(412,269,c),
(412,84,ls),
(412,48,o),
(406,24,o),
(392,0,c),
(923,0,l),
(938,52,o),
(959,115,o),
(988,262,c),
(960,269,l),
(911,128,o),
(783,92,o),
(612,90,c),
(612,411,l),
(739,410,ls),
(818,409,o),
(848,406,o),
(863,364,c),
(880,368,l),
(879,529,l),
(863,531,l),
(848,489,o),
(818,486,o),
(739,485,cs),
(612,484,l),
(612,652,l),
(686,652,ls),
(848,652,o),
(901,601,o),
(948,518,c),
(970,527,l),
(926,722,l),
(310,722,l),
(310,700,l),
(334,700,ls),
(385,700,o),
(412,681,o),
(412,643,cs),
(412,530,l),
(266,512,o),
(190,439,o),
(137,318,cs),
(83,193,o),
(58,8,o),
(10,-60,c)
);
},
{
closed = 1;
nodes = (
(272,396,o),
(321,478,o),
(411,476,c),
(410,460,ls),
(397,330,o),
(350,274,o),
(261,210,c)
);
}
);
userData = {
com.hugojourdan.ColorFlow = {
"0" = 0;
"1" = 0;
"10" = 0;
"11" = 0;
"2" = 0;
"3" = 0;
"4" = 0;
"5" = 0;
"6" = 0;
"7" = 0;
"8" = 0;
"9" = 0;
};
};
width = 1021;
},
{
anchors = (
{
name = bottom;
pos = (446,0);
},
{
name = top;
pos = (446,722);
}
);
layerId = "D54810B1-F9A5-4F35-A1FF-AED0599B2373";
shapes = (
{
closed = 1;
nodes = (
(22,-48,l),
(137,47,o),
(277,167,o),
(384,297,c),
(384,84,ls),
(384,44,o),
(380,24,o),
(369,0,c),
(837,0,l),
(853,52,o),
(872,111,o),
(895,215,c),
(876,221,l),
(823,91,o),
(710,62,o),
(526,61,c),
(526,414,l),
(661,413,ls),
(740,413,o),
(774,407,o),
(797,364,c),
(809,368,l),
(808,508,l),
(797,510,l),
(774,473,o),
(740,462,o),
(661,461,cs),
(526,461,l),
(526,676,l),
(613,676,ls),
(751,676,o),
(794,641,o),
(847,549,c),
(862,556,l),
(820,722,l),
(295,722,l),
(295,707,l),
(317,707,ls),
(362,707,o),
(384,688,o),
(384,647,cs),
(384,559,l),
(252,527,o),
(170,450,o),
(113,341,cs),
(49,218,o),
(22,54,o),
(10,-38,c)
);
},
{
closed = 1;
nodes = (
(170,338,o),
(247,481,o),
(383,520,c),
(383,426,l),
(338,302,o),
(276,235,o),
(185,163,c)
);
}
);
userData = {
com.hugojourdan.ColorFlow = {
"0" = 0;
"1" = 0;
"10" = 0;
"11" = 0;
"2" = 0;
"3" = 0;
"4" = 0;
"5" = 0;
"6" = 0;
"7" = 0;
"8" = 0;
"9" = 0;
};
};
width = 925;
}
);
metricRight = E;
unicode = 198;
}
{
glyphname = ae;
kernLeft = a;
kernRight = e;
layers = (
{
anchors = (
{
name = bottom;
pos = (402,0);
},
{
name = top;
pos = (402,500);
}
);
layerId = "452AD06C-4D92-427C-8B35-838986F56274";
shapes = (
{
closed = 1;
nodes = (
(272,-12,o),
(343,41,o),
(371,115,c),
(408,33,o),
(487,-9,o),
(577,-9,cs),
(653,-9,o),
(741,38,o),
(775,132,c),
(769,136,l),
(737,68,o),
(669,32,o),
(600,32,cs),
(451,32,o),
(379,189,o),
(395,302,c),
(746,302,l),
(754,316,l),
(747,447,o),
(661,507,o),
(569,507,cs),
(474,507,o),
(372,442,o),
(342,323,c),
(278,461,ls),
(269,481,o),
(267,488,o),
(268,500,c),
(104,500,l),
(104,493,l),
(136,493,ls),
(193,493,o),
(205,467,o),
(228,418,cs),
(259,352,l),
(124,344,o),
(30,263,o),
(30,150,cs),
(30,55,o),
(96,-12,o),
(190,-12,cs)
);
},
{
closed = 1;
nodes = (
(86,259,o),
(156,325,o),
(266,335,c),
(361,131,l),
(334,71,o),
(277,32,o),
(212,32,cs),
(137,32,o),
(86,83,o),
(86,162,cs)
);
},
{
closed = 1;
nodes = (
(398,329,l),
(412,414,o),
(463,482,o),
(549,482,cs),
(616,482,o),
(682,433,o),
(684,329,c)
);
}
);
userData = {
com.hugojourdan.ColorFlow = {
"0" = 0;
"1" = 0;
"10" = 0;
"11" = 0;
"2" = 0;
"3" = 0;
"4" = 0;
"5" = 0;
"6" = 0;
"7" = 0;
"8" = 0;
"9" = 0;
};
};
width = 805;
},
{
anchors = (
{
name = bottom;
pos = (409,0);
},
{
name = top;
pos = (409,500);
}
);
layerId = m004;
shapes = (
{
closed = 1;
nodes = (
(282,-12,o),
(352,40,o),
(372,115,c),
(407,44,o),
(470,-12,o),
(561,-12,cs),
(673,-12,o),
(768,58,o),
(805,168,c),
(789,176,l),
(770,142,o),
(721,120,o),
(665,120,cs),
(575,120,o),
(513,182,o),
(500,282,c),
(759,282,l),
(769,300,l),
(785,402,o),
(704,506,o),
(575,506,cs),
(500,506,o),
(452,479,o),
(423,441,c),
(415,460,ls),
(407,477,o),
(405,488,o),
(408,500,c),
(69,500,l),
(69,462,l),
(110,462,ls),
(199,462,o),
(231,423,o),
(259,362,cs),
(260,359,l),
(121,352,o),
(25,269,o),
(25,156,cs),
(25,58,o),
(96,-12,o),
(197,-12,cs)
);
},
{
closed = 1;
nodes = (
(189,269,o),
(222,311,o),
(276,324,c),
(343,174,l),
(328,143,o),
(299,124,o),
(265,124,cs),
(219,124,o),
(189,158,o),
(189,212,cs)
);
},
{
closed = 1;
nodes = (
(497,334,l),
(499,401,o),
(522,447,o),
(552,447,cs),
(584,447,o),
(605,385,o),
(601,334,c)
);
}
);
userData = {
com.hugojourdan.ColorFlow = {
"0" = 0;
"1" = 0;
"10" = 0;
"11" = 0;
"2" = 0;
"3" = 0;
"4" = 0;
"5" = 0;
"6" = 0;
"7" = 0;
"8" = 0;
"9" = 0;
};
};
width = 825;
},
{
anchors = (
{
name = bottom;
pos = (409,0);
},
{
name = top;
pos = (409,500);
}
);
layerId = "D54810B1-F9A5-4F35-A1FF-AED0599B2373";
shapes = (
{
closed = 1;
nodes = (
(280,-12,o),
(351,40,o),
(374,115,c),
(410,39,o),
(480,-11,o),
(571,-11,cs),
(667,-11,o),
(758,49,o),
(794,152,c),
(783,158,l),
(758,108,o),
(700,80,o),
(638,80,cs),
(522,80,o),
(455,185,o),
(455,291,c),
(756,291,l),
(765,307,l),
(771,422,o),
(687,506,o),
(575,506,cs),
(491,506,o),
(418,462,o),
(389,388,c),
(356,460,ls),
(348,479,o),
(346,488,o),
(348,500,c),
(86,500,l),
(86,477,l),
(124,477,ls),
(200,477,o),
(221,446,o),
(247,389,cs),
(262,356,l),
(125,348,o),
(30,266,o),
(30,153,cs),
(30,57,o),
(99,-12,o),
(197,-12,cs)
);
},
{
closed = 1;
nodes = (
(145,264,o),
(195,317,o),
(274,329,c),
(354,155,l),
(333,110,o),
(292,82,o),
(244,82,cs),
(185,82,o),
(145,124,o),
(145,189,cs)
);
},
{
closed = 1;
nodes = (
(455,332,l),
(462,407,o),
(498,463,o),
(553,463,cs),
(601,463,o),
(643,407,o),
(641,332,c)
);
}
);
userData = {
com.hugojourdan.ColorFlow = {
"0" = 0;
"1" = 0;
"10" = 0;
"11" = 0;
"2" = 0;
"3" = 0;
"4" = 0;
"5" = 0;
"6" = 0;
"7" = 0;
"8" = 0;
"9" = 0;
};
};
width = 814;
}
);
metricLeft = a;
metricRight = e;
unicode = 230;
}
{
glyphname = eth;
kernLeft = o;
kernRight = d;
layers = (
{
layerId = "452AD06C-4D92-427C-8B35-838986F56274";
shapes = (
{
closed = 1;
nodes = (
(463,17,o),
(543,153,o),
(514,320,cs),
(481,507,o),
(334,670,o),
(111,731,c),
(109,724,l),
(297,644,o),
(403,505,o),
(432,341,cs),
(462,170,o),
(405,31,o),
(300,12,cs),
(202,-5,o),
(137,70,o),
(122,156,cs),
(106,249,o),
(147,356,o),
(267,377,cs),
(306,384,o),
(348,378,o),
(385,358,c),
(388,364,l),
(314,411,o),
(257,423,o),
(246,434,c),
(85,416,o),
(33,304,o),
(52,197,cs),
(73,80,o),
(180,-33,o),
(322,-7,cs)
);
},
{
angle = 36.00012;
pos = (-18,675);
ref = hyphen;
scale = (1,-0.8046);
}
);
userData = {
com.hugojourdan.ColorFlow = {
"0" = 0;
"1" = 0;
"10" = 0;
"11" = 0;
"2" = 0;
"3" = 0;
"4" = 0;
"5" = 0;
"6" = 0;
"7" = 0;
"8" = 0;
"9" = 0;
};
};
width = 554;
},
{
layerId = m004;
shapes = (
{
closed = 1;
nodes = (
(447,3,o),
(545,137,o),
(542,293,cs),
(539,465,o),
(415,664,o),
(130,758,c),
(121,739,l),
(284,625,o),
(335,446,o),
(337,298,cs),
(338,228,o),
(322,51,o),
(266,47,cs),
(234,44,o),
(203,108,o),
(201,195,cs),
(199,323,o),
(243,359,o),
(285,362,cs),
(315,365,o),
(345,350,o),
(353,341,c),
(406,346,l),
(348,412,o),
(282,424,o),
(213,496,c),
(69,469,o),
(9,364,o),
(11,256,cs),
(13,116,o),
(117,-26,o),
(278,-12,cs)
);
},
{
angle = 35.99997;
pos = (-27,673);
ref = hyphen;
scale = (1.1221,-0.7641);
}
);
userData = {
com.hugojourdan.ColorFlow = {
"0" = 0;
"1" = 0;
"10" = 0;
"11" = 0;
"2" = 0;
"3" = 0;
"4" = 0;
"5" = 0;
"6" = 0;
"7" = 0;
"8" = 0;
"9" = 0;
};
};
width = 574;
},
{
layerId = "D54810B1-F9A5-4F35-A1FF-AED0599B2373";
shapes = (
{
closed = 1;
nodes = (
(454,9,o),
(544,144,o),
(529,305,cs),
(513,484,o),
(378,667,o),
(121,746,c),
(116,732,l),
(290,634,o),
(366,473,o),
(380,317,cs),
(394,202,o),
(360,42,o),
(281,31,cs),
(220,22,o),
(173,91,o),
(165,177,cs),
(157,289,o),
(200,358,o),
(277,369,cs),
(311,374,o),
(346,363,o),
(368,349,c),
(398,354,l),
(333,412,o),
(271,424,o),
(228,468,c),
(76,445,o),
(20,337,o),
(30,229,cs),
(40,100,o),
(146,-29,o),
(298,-10,cs)
);
},
{
alignment = -1;
angle = 36.00009;
pos = (-23,674);
ref = hyphen;
scale = (1.0668,-0.7825);
}
);
userData = {
com.hugojourdan.ColorFlow = {
"0" = 0;
"1" = 0;
"10" = 0;
"11" = 0;
"2" = 0;
"3" = 0;
"4" = 0;
"5" = 0;
"6" = 0;
"7" = 0;
"8" = 0;
"9" = 0;
};
};
width = 564.9375;
}
);
unicode = 240;
}
{
glyphname = divide;
layers = (
{
layerId = "452AD06C-4D92-427C-8B35-838986F56274";
shapes = (
{
closed = 1;
nodes = (
(315,384,l),
(345,513,l),
(269,513,l),
(304,384,l)
);
},
{
closed = 1;
nodes = (
(314,260,l),
(549,238,l),
(549,308,l),
(314,279,l),
(305,279,l),
(65,297,l),
(65,238,l),
(305,260,l)
);
},
{
closed = 1;
nodes = (
(304,157,l),
(269,22,l),
(345,22,l),
(315,157,l)
);
}
);
userData = {
com.hugojourdan.ColorFlow = {
"0" = 0;
"1" = 0;
"10" = 0;
"11" = 0;
"2" = 0;
"3" = 0;
"4" = 0;
"5" = 0;
"6" = 0;
"7" = 0;
"8" = 0;
"9" = 0;
};
};
width = 614;
},
{
layerId = m004;
shapes = (
{
closed = 1;
nodes = (
(352,424,l),
(383,556,l),
(231,556,l),
(265,424,l)
);
},
{
closed = 1;
nodes = (
(352,229,l),
(582,211,l),
(582,356,l),
(352,328,l),
(266,326,l),
(32,343,l),
(32,211,l),
(266,229,l)
);
},
{
closed = 1;
nodes = (
(265,131,l),
(231,-1,l),
(382,-1,l),
(353,131,l)
);
}
);
userData = {
com.hugojourdan.ColorFlow = {
"0" = 0;
"1" = 0;
"10" = 0;
"11" = 0;
"2" = 0;
"3" = 0;
"4" = 0;
"5" = 0;
"6" = 0;
"7" = 0;
"8" = 0;
"9" = 0;
};
};
width = 614;
},
{
layerId = "D54810B1-F9A5-4F35-A1FF-AED0599B2373";
shapes = (
{
closed = 1;
nodes = (
(335,406,l),
(366,537,l),
(248,537,l),
(283,406,l)
);
},
{
closed = 1;
nodes = (
(335,243,l),
(567,223,l),
(567,334,l),
(335,306,l),
(284,305,l),
(47,322,l),
(47,223,l),
(284,243,l)
);
},
{
closed = 1;
nodes = (
(283,143,l),
(248,9,l),
(365,9,l),
(336,143,l)
);
}
);
userData = {
com.hugojourdan.ColorFlow = {
"0" = 0;
"1" = 0;
"10" = 0;
"11" = 0;
"2" = 0;
"3" = 0;
"4" = 0;
"5" = 0;
"6" = 0;
"7" = 0;
"8" = 0;
"9" = 0;
};
};
width = 614;
}
);
unicode = 247;
}
{
glyphname = oslash;
kernLeft = o;
kernRight = o;
layers = (
{
layerId = "452AD06C-4D92-427C-8B35-838986F56274";
shapes = (
{
closed = 1;
nodes = (
(101,-26,l),
(532,515,l),
(526,519,l),
(62,5,l)
);
},
{
ref = o;
}
);
userData = {
com.hugojourdan.ColorFlow = {
"0" = 0;
"1" = 0;
"10" = 0;
"11" = 0;
"2" = 0;
"3" = 0;
"4" = 0;
"5" = 0;
"6" = 0;
"7" = 0;
"8" = 0;
"9" = 0;
};
};
width = 564;
},
{
layerId = m004;
shapes = (
{
closed = 1;
nodes = (
(579,526,l),
(558,542,l),
(10,0,l),
(113,-77,l)
);
},
{
pos = (26,0);
ref = o;
}
);
userData = {
com.hugojourdan.ColorFlow = {
"0" = 0;
"1" = 0;
"10" = 0;
"11" = 0;
"2" = 0;
"3" = 0;
"4" = 0;
"5" = 0;
"6" = 0;
"7" = 0;
"8" = 0;
"9" = 0;
};
};
width = 620;
},
{
layerId = "D54810B1-F9A5-4F35-A1FF-AED0599B2373";
shapes = (
{
closed = 1;
nodes = (
(362,276,l),
(546,530,l),
(244,235,l),
(90,-40,l)
);
},
{
alignment = -1;
pos = (14,0);
ref = o;
}
);
userData = {
com.hugojourdan.ColorFlow = {
"0" = 0;
"1" = 0;
"10" = 0;
"11" = 0;
"2" = 0;
"3" = 0;
"4" = 0;
"5" = 0;
"6" = 0;
"7" = 0;
"8" = 0;
"9" = 0;
};
};
width = 600;
}
);
metricRight = o;
unicode = 248;
}
{
color = 3;
glyphname = idotless;
kernLeft = i;
kernRight = i;
layers = (
{
anchors = (
{
name = ogonek;
pos = (158,0);
},
{
name = top;
pos = (120,500);
}
);
layerId = "452AD06C-4D92-427C-8B35-838986F56274";
shapes = (
{
closed = 1;
nodes = (
(166,0,l),
(158,25,o),
(156,45,o),
(156,95,cs),
(156,416,ls),
(156,460,o),
(158,476,o),
(164,500,c),
(10,500,l),
(10,493,l),
(33,493,ls),
(74,493,o),
(92,469,o),
(92,413,cs),
(92,105,ls),
(92,50,o),
(90,30,o),
(80,0,c)
);
}
);
userData = {
com.hugojourdan.ColorFlow = {
"0" = 0;
"1" = 0;
"10" = 0;
"11" = 0;
"2" = 0;
"3" = 0;
"4" = 0;
"5" = 0;
"6" = 0;
"7" = 0;
"8" = 0;
"9" = 0;
};
};
width = 216;
},
{
anchors = (
{
name = ogonek;
pos = (272,0);
},
{
name = top;
pos = (168,500);
}
);
layerId = m004;
shapes = (
{
closed = 1;
nodes = (
(290,0,l),
(277,23,o),
(272,48,o),
(272,84,cs),
(272,437,ls),
(272,464,o),
(276,482,o),
(284,500,c),
(20,500,l),
(20,476,l),
(36,476,ls),
(70,476,o),
(88,454,o),
(88,412,cs),
(88,84,ls),
(88,48,o),
(82,24,o),
(68,0,c)
);
}
);
userData = {
com.hugojourdan.ColorFlow = {
"0" = 0;
"1" = 0;
"10" = 0;
"11" = 0;
"2" = 0;
"3" = 0;
"4" = 0;
"5" = 0;
"6" = 0;
"7" = 0;
"8" = 0;
"9" = 0;
};
};
width = 330;
},
{
anchors = (
{
name = ogonek;
pos = (214,0);
},
{
name = top;
pos = (140,500);
}
);
layerId = "D54810B1-F9A5-4F35-A1FF-AED0599B2373";
shapes = (
{
closed = 1;
nodes = (
(227,0,l),
(217,24,o),
(213,48,o),
(213,89,cs),
(213,427,ls),
(213,462,o),
(216,479,o),
(223,500,c),
(10,500,l),
(10,484,l),
(29,484,ls),
(66,484,o),
(84,460,o),
(84,411,cs),
(84,94,ls),
(84,49,o),
(80,27,o),
(68,0,c)
);
}
);
userData = {
com.hugojourdan.ColorFlow = {
"0" = 0;
"1" = 0;
"10" = 0;
"11" = 0;
"2" = 0;
"3" = 0;
"4" = 0;
"5" = 0;
"6" = 0;
"7" = 0;
"8" = 0;
"9" = 0;
};
};
width = 267;
}
);
unicode = 305;
}
{
glyphname = eng;
kernLeft = i;
kernRight = n;
layers = (
{
layerId = "452AD06C-4D92-427C-8B35-838986F56274";
shapes = (
{
closed = 1;
nodes = (
(238,-149,l),
(477,-154,o),
(480,0,o),
(480,104,cs),
(480,305,ls),
(480,455,o),
(407,510,o),
(319,510,cs),
(262,510,o),
(198,487,o),
(144,451,c),
(144,500,l),
(10,500,l),
(10,494,l),
(30,494,ls),
(66,494,o),
(82,475,o),
(82,430,cs),
(82,84,ls),
(82,40,o),
(80,24,o),
(72,0,c),
(154,0,l),
(146,24,o),
(144,40,o),
(144,84,cs),
(144,394,l),
(187,446,o),
(250,489,o),
(304,489,cs),
(361,489,o),
(408,441,o),
(408,307,cs),
(408,56,ls),
(408,-139,o),
(331,-139,o),
(238,-143,c)
);
}
);
userData = {
com.hugojourdan.ColorFlow = {
"0" = 0;
"1" = 0;
"10" = 0;
"11" = 0;
"2" = 0;
"3" = 0;
"4" = 0;
"5" = 0;
"6" = 0;
"7" = 0;
"8" = 0;
"9" = 0;
};
};
width = 510;
},
{
layerId = m004;
shapes = (
{
closed = 1;
nodes = (
(250,-135,l),
(488,-153,o),
(594,-90,o),
(594,149,cs),
(594,331,ls),
(594,454,o),
(510,509,o),
(419,509,cs),
(368,509,o),
(314,492,o),
(267,460,c),
(267,500,l),
(20,500,l),
(20,476,l),
(36,476,ls),
(70,476,o),
(88,454,o),
(88,412,cs),
(88,84,ls),
(88,48,o),
(82,24,o),
(68,0,c),
(290,0,l),
(277,23,o),
(272,48,o),
(272,84,cs),
(272,404,l),
(293,414,o),
(312,418,o),
(329,418,cs),
(376,418,o),
(403,381,o),
(404,288,cs),
(405,114,ls),
(406,-71,o),
(384,-116,o),
(250,-116,c)
);
}
);
userData = {
com.hugojourdan.ColorFlow = {
"0" = 0;
"1" = 0;
"10" = 0;
"11" = 0;
"2" = 0;
"3" = 0;
"4" = 0;
"5" = 0;
"6" = 0;
"7" = 0;
"8" = 0;
"9" = 0;
};
};
width = 614;
},
{
layerId = "D54810B1-F9A5-4F35-A1FF-AED0599B2373";
shapes = (
{
closed = 1;
nodes = (
(243,-145,l),
(500,-165,o),
(537,-49,o),
(537,129,cs),
(537,319,ls),
(537,453,o),
(467,510,o),
(363,510,cs),
(307,510,o),
(252,492,o),
(205,456,c),
(205,500,l),
(10,500,l),
(10,484,l),
(28,484,ls),
(62,484,o),
(80,464,o),
(80,420,cs),
(80,84,ls),
(80,44,o),
(75,24,o),
(64,0,c),
(223,0,l),
(212,23,o),
(208,44,o),
(208,84,cs),
(208,399,l),
(238,429,o),
(275,448,o),
(310,448,cs),
(373,448,o),
(400,398,o),
(400,306,cs),
(401,88,ls),
(402,-102,o),
(362,-123,o),
(243,-128,c)
);
}
);
userData = {
com.hugojourdan.ColorFlow = {
"0" = 0;
"1" = 0;
"10" = 0;
"11" = 0;
"2" = 0;
"3" = 0;
"4" = 0;
"5" = 0;
"6" = 0;
"7" = 0;
"8" = 0;
"9" = 0;
};
};
width = 567;
}
);
metricLeft = n;
metricRight = n;
unicode = 331;
}
{
color = 5;
glyphname = OE;
kernLeft = O;
kernRight = E;
layers = (
{
anchors = (
{
name = bottom;
pos = (673,0);
},
{
name = top;
pos = (673,722);
}
);
layerId = "452AD06C-4D92-427C-8B35-838986F56274";
shapes = (
{
closed = 1;
nodes = (
(489,-17,o),
(541,0,o),
(599,0,cs),
(967,0,l),
(1016,159,l),
(1008,163,l),
(949,46,o),
(811,26,o),
(655,26,c),
(655,417,l),
(799,417,ls),
(878,417,o),
(918,408,o),
(951,365,c),
(957,369,l),
(957,480,l),
(951,485,l),
(918,453,o),
(878,433,o),
(799,433,cs),
(655,433,l),
(655,704,l),
(758,704,ls),
(866,704,o),
(898,690,o),
(957,587,c),
(964,590,l),
(925,722,l),
(587,722,ls),
(533,722,o),
(494,733,o),
(426,733,cs),
(228,733,o),
(50,611,o),
(50,360,cs),
(50,109,o),
(229,-17,o),
(427,-17,cs)
);
},
{
closed = 1;
nodes = (
(225,6,o),
(122,191,o),
(122,371,cs),
(122,542,o),
(215,710,o),
(421,710,cs),
(546,710,o),
(585,695,o),
(585,577,cs),
(585,85,ls),
(585,20,o),
(511,6,o),
(435,6,cs)
);
}
);
userData = {
com.hugojourdan.ColorFlow = {
"0" = 0;
"1" = 0;
"10" = 0;
"11" = 0;
"2" = 0;
"3" = 0;
"4" = 0;
"5" = 0;
"6" = 0;
"7" = 0;
"8" = 0;
"9" = 0;
};
};
width = 1046;
},
{
anchors = (
{
name = bottom;
pos = (654,0);
},
{
name = top;
pos = (654,722);
}
);
layerId = m004;
shapes = (
{
closed = 1;
nodes = (
(460,-9,o),
(501,0,o),
(548,0,cs),
(1033,0,l),
(1098,262,l),
(1070,269,l),
(1021,128,o),
(893,92,o),
(722,90,c),
(722,411,l),
(849,410,ls),
(928,409,o),
(958,406,o),
(973,364,c),
(990,368,l),
(989,529,l),
(973,531,l),
(958,489,o),
(928,486,o),
(849,485,cs),
(722,484,l),
(722,652,l),
(796,652,ls),
(958,652,o),
(1011,601,o),
(1058,518,c),
(1080,527,l),
(1036,722,l),
(534,722,ls),
(503,722,o),
(453,730,o),
(399,730,cs),
(149,730,o),
(30,537,o),
(30,356,cs),
(30,161,o),
(158,-9,o),
(398,-9,cs)
);
},
{
closed = 1;
nodes = (
(352,59,o),
(279,136,o),
(274,353,cs),
(268,591,o),
(344,662,o),
(417,667,cs),
(481,671,o),
(528,628,o),
(532,547,c),
(532,113,l),
(534,71,o),
(487,59,o),
(422,59,cs)
);
}
);
userData = {
com.hugojourdan.ColorFlow = {
"0" = 0;
"1" = 0;
"10" = 0;
"11" = 0;
"2" = 0;
"3" = 0;
"4" = 0;
"5" = 0;
"6" = 0;
"7" = 0;
"8" = 0;
"9" = 0;
};
};
width = 1131;
},
{
anchors = (
{
name = bottom;
pos = (664,0);
},
{
name = top;
pos = (664,722);
}
);
layerId = "D54810B1-F9A5-4F35-A1FF-AED0599B2373";
shapes = (
{
closed = 1;
nodes = (
(474,-13,o),
(520,0,o),
(572,0,cs),
(1004,0,l),
(1062,215,l),
(1043,221,l),
(989,91,o),
(857,62,o),
(693,61,c),
(693,414,l),
(827,413,ls),
(906,413,o),
(941,407,o),
(964,364,c),
(976,368,l),
(976,507,l),
(964,510,l),
(941,473,o),
(906,462,o),
(827,461,cs),
(693,461,l),
(693,676,l),
(780,676,ls),
(917,676,o),
(961,641,o),
(1013,549,c),
(1028,556,l),
(987,722,l),
(559,722,ls),
(518,722,o),
(473,731,o),
(412,731,cs),
(186,731,o),
(40,571,o),
(40,358,cs),
(40,137,o),
(191,-13,o),
(412,-13,cs)
);
},
{
closed = 1;
nodes = (
(295,35,o),
(209,161,o),
(206,361,cs),
(203,569,o),
(287,684,o),
(420,686,cs),
(511,689,o),
(555,658,o),
(557,561,cs),
(557,100,ls),
(558,48,o),
(499,35,o),
(429,35,cs)
);
}
);
userData = {
com.hugojourdan.ColorFlow = {
"0" = 0;
"1" = 0;
"10" = 0;
"11" = 0;
"2" = 0;
"3" = 0;
"4" = 0;
"5" = 0;
"6" = 0;
"7" = 0;
"8" = 0;
"9" = 0;
};
};
width = 1092;
}
);
metricLeft = O;
metricRight = E;
unicode = 338;
}
{
color = 3;
glyphname = jdotless;
layers = (
{
anchors = (
{
name = top;
pos = (160,500);
}
);
layerId = m004;
shapes = (
{
closed = 1;
nodes = (
(32,-208,l),
(143,-113,o),
(212,-29,o),
(264,0,c),
(264,437,ls),
(264,464,o),
(268,482,o),
(276,500,c),
(12,500,l),
(12,476,l),
(28,476,ls),
(62,476,o),
(80,454,o),
(80,412,cs),
(80,53,ls),
(80,-79,o),
(72,-119,o),
(10,-187,c)
);
}
);
userData = {
com.hugojourdan.ColorFlow = {
"0" = 0;
"1" = 0;
"10" = 0;
"11" = 0;
"2" = 0;
"3" = 0;
"4" = 0;
"5" = 0;
"6" = 0;
"7" = 0;
"8" = 0;
"9" = 0;
};
};
width = 316;
},
{
anchors = (
{
name = top;
pos = (116,500);
}
);
layerId = "452AD06C-4D92-427C-8B35-838986F56274";
shapes = (
{
closed = 1;
nodes = (
(3,-180,l),
(79,-97,o),
(112,-28,o),
(154,0,c),
(154,416,ls),
(154,460,o),
(156,476,o),
(162,500,c),
(8,500,l),
(8,493,l),
(31,493,ls),
(72,493,o),
(90,469,o),
(90,413,cs),
(90,126,ls),
(90,-31,o),
(54,-104,o),
(-5,-173,c)
);
}
);
userData = {
com.hugojourdan.ColorFlow = {
"0" = 0;
"1" = 0;
"10" = 0;
"11" = 0;
"2" = 0;
"3" = 0;
"4" = 0;
"5" = 0;
"6" = 0;
"7" = 0;
"8" = 0;
"9" = 0;
};
};
width = 212;
},
{
anchors = (
{
name = top;
pos = (138,500);
}
);
layerId = "D54810B1-F9A5-4F35-A1FF-AED0599B2373";
shapes = (
{
closed = 1;
nodes = (
(12,-200,l),
(90,-111,o),
(160,-42,o),
(212,0,c),
(212,427,ls),
(212,462,o),
(215,479,o),
(222,500,c),
(8,500,l),
(8,482,l),
(27,482,ls),
(64,482,o),
(82,460,o),
(82,411,cs),
(82,80,ls),
(82,-35,o),
(57,-108,o),
(-4,-187,c)
);
}
);
userData = {
com.hugojourdan.ColorFlow = {
"0" = 0;
"1" = 0;
"10" = 0;
"11" = 0;
"2" = 0;
"3" = 0;
"4" = 0;
"5" = 0;
"6" = 0;
"7" = 0;
"8" = 0;
"9" = 0;
};
};
width = 262;
}
);
metricRight = idotless;
unicode = 567;
}
{
color = 6;
glyphname = caron;
layers = (
{
layerId = "452AD06C-4D92-427C-8B35-838986F56274";
shapes = (
{
closed = 1;
nodes = (
(237,530,l),
(362,689,l),
(358,694,l),
(196,563,l),
(34,694,l),
(30,689,l),
(155,530,l)
);
}
);
userData = {
com.hugojourdan.ColorFlow = {
"0" = 0;
"1" = 0;
"10" = 0;
"11" = 0;
"2" = 0;
"3" = 0;
"4" = 0;
"5" = 0;
"6" = 0;
"7" = 0;
"8" = 0;
"9" = 0;
};
};
width = 354;
},
{
layerId = m004;
shapes = (
{
closed = 1;
nodes = (
(261,560,l),
(406,714,l),
(393,739,l),
(209,670,l),
(25,739,l),
(11,714,l),
(157,560,l)
);
}
);
userData = {
com.hugojourdan.ColorFlow = {
"0" = 0;
"1" = 0;
"10" = 0;
"11" = 0;
"2" = 0;
"3" = 0;
"4" = 0;
"5" = 0;
"6" = 0;
"7" = 0;
"8" = 0;
"9" = 0;
};
};
width = 354;
},
{
layerId = "D54810B1-F9A5-4F35-A1FF-AED0599B2373";
shapes = (
{
closed = 1;
nodes = (
(250,546,l),
(386,703,l),
(377,719,l),
(203,622,l),
(29,719,l),
(20,703,l),
(156,546,l)
);
}
);
userData = {
com.hugojourdan.ColorFlow = {
"0" = 0;
"1" = 0;
"10" = 0;
"11" = 0;
"2" = 0;
"3" = 0;
"4" = 0;
"5" = 0;
"6" = 0;
"7" = 0;
"8" = 0;
"9" = 0;
};
};
width = 354;
}
);
unicode = 711;
}
{
color = 6;
glyphname = ring;
layers = (
{
layerId = "452AD06C-4D92-427C-8B35-838986F56274";
shapes = (
{
closed = 1;
nodes = (
(170,562,o),
(199,600,o),
(199,638,cs),
(199,676,o),
(170,714,o),
(116,714,cs),
(64,714,o),
(35,676,o),
(35,638,cs),
(35,600,o),
(64,562,o),
(116,562,cs)
);
},
{
closed = 1;
nodes = (
(97,573,o),
(70,594,o),
(69,637,cs),
(68,683,o),
(95,704,o),
(117,704,cs),
(141,704,o),
(166,682,o),
(166,639,cs),
(166,594,o),
(141,573,o),
(117,573,cs)
);
}
);
userData = {
com.hugojourdan.ColorFlow = {
"0" = 0;
"1" = 0;
"10" = 0;
"11" = 0;
"2" = 0;
"3" = 0;
"4" = 0;
"5" = 0;
"6" = 0;
"7" = 0;
"8" = 0;
"9" = 0;
};
};
width = 284;
},
{
layerId = m004;
shapes = (
{
closed = 1;
nodes = (
(190,557,o),
(229,596,o),
(229,643,cs),
(229,691,o),
(190,730,o),
(133,730,cs),
(75,730,o),
(36,691,o),
(36,643,cs),
(36,596,o),
(75,557,o),
(133,557,cs)
);
},
{
closed = 1;
nodes = (
(122,580,o),
(111,600,o),
(111,643,cs),
(111,688,o),
(122,710,o),
(133,710,cs),
(144,710,o),
(155,690,o),
(155,646,cs),
(156,602,o),
(144,580,o),
(133,580,cs)
);
}
);
userData = {
com.hugojourdan.ColorFlow = {
"0" = 0;
"1" = 0;
"10" = 0;
"11" = 0;
"2" = 0;
"3" = 0;
"4" = 0;
"5" = 0;
"6" = 0;
"7" = 0;
"8" = 0;
"9" = 0;
};
};
width = 284;
},
{
layerId = "D54810B1-F9A5-4F35-A1FF-AED0599B2373";
shapes = (
{
closed = 1;
nodes = (
(186,555,o),
(222,595,o),
(222,639,cs),
(222,684,o),
(186,724,o),
(125,724,cs),
(64,724,o),
(28,684,o),
(28,639,cs),
(28,595,o),
(64,555,o),
(125,555,cs)
);
},
{
closed = 1;
nodes = (
(105,573,o),
(86,591,o),
(86,638,cs),
(86,686,o),
(105,708,o),
(126,708,cs),
(145,708,o),
(165,688,o),
(165,641,cs),
(167,593,o),
(145,573,o),
(126,573,cs)
);
}
);
userData = {
com.hugojourdan.ColorFlow = {
"0" = 0;
"1" = 0;
"10" = 0;
"11" = 0;
"2" = 0;
"3" = 0;
"4" = 0;
"5" = 0;
"6" = 0;
"7" = 0;
"8" = 0;
"9" = 0;
};
};
width = 284;
}
);
unicode = 730;
}
{
color = 1;
export = 0;
glyphname = acutecomb;
layers = (
{
anchors = (
{
name = _top;
pos = (134,500);
},
{
name = top;
pos = (134,665);
}
);
layerId = "452AD06C-4D92-427C-8B35-838986F56274";
shapes = (
{
closed = 1;
nodes = (
(226,636,l),
(197,685,l),
(29,562,l),
(33,556,l)
);
}
);
userData = {
com.hugojourdan.ColorFlow = {
"0" = 0;
"1" = 0;
"10" = 0;
"11" = 0;
"2" = 0;
"3" = 0;
"4" = 0;
"5" = 0;
"6" = 0;
"7" = 0;
"8" = 0;
"9" = 0;
};
};
width = 260;
},
{
anchors = (
{
name = _top;
pos = (134,500);
},
{
name = top;
pos = (134,665);
}
);
layerId = m004;
shapes = (
{
closed = 1;
nodes = (
(303,615,l),
(237,744,l),
(-4,567,l),
(14,534,l)
);
}
);
userData = {
com.hugojourdan.ColorFlow = {
"0" = 0;
"1" = 0;
"10" = 0;
"11" = 0;
"2" = 0;
"3" = 0;
"4" = 0;
"5" = 0;
"6" = 0;
"7" = 0;
"8" = 0;
"9" = 0;
};
};
width = 392;
},
{
anchors = (
{
name = _top;
pos = (134,500);
},
{
name = top;
pos = (134,665);
}
);
layerId = "D54810B1-F9A5-4F35-A1FF-AED0599B2373";
shapes = (
{
closed = 1;
nodes = (
(247,603,l),
(217,699,l),
(30,589,l),
(39,568,l)
);
}
);
userData = {
com.hugojourdan.ColorFlow = {
"0" = 0;
"1" = 0;
"10" = 0;
"11" = 0;
"2" = 0;
"3" = 0;
"4" = 0;
"5" = 0;
"6" = 0;
"7" = 0;
"8" = 0;
"9" = 0;
};
};
width = 332.1875;
}
);
unicode = 769;
}
{
color = 4;
export = 0;
glyphname = macroncomb;
layers = (
{
anchors = (
{
name = _top;
pos = (213,500);
},
{
name = top;
pos = (213,625);
}
);
layerId = "452AD06C-4D92-427C-8B35-838986F56274";
shapes = (
{
closed = 1;
nodes = (
(469,636,l),
(489,672,l),
(270,661,l),
(51,672,l),
(71,636,l)
);
}
);
userData = {
com.hugojourdan.ColorFlow = {
"0" = 0;
"1" = 0;
"10" = 0;
"11" = 0;
"2" = 0;
"3" = 0;
"4" = 0;
"5" = 0;
"6" = 0;
"7" = 0;
"8" = 0;
"9" = 0;
};
};
width = 551;
},
{
anchors = (
{
name = _top;
pos = (213,500);
},
{
name = top;
pos = (213,625);
}
);
layerId = m004;
shapes = (
{
closed = 1;
nodes = (
(489,639,l),
(519,816,l),
(270,778,l),
(21,816,l),
(51,639,l)
);
}
);
userData = {
com.hugojourdan.ColorFlow = {
"0" = 0;
"1" = 0;
"10" = 0;
"11" = 0;
"2" = 0;
"3" = 0;
"4" = 0;
"5" = 0;
"6" = 0;
"7" = 0;
"8" = 0;
"9" = 0;
};
};
width = 581;
},
{
anchors = (
{
name = _top;
pos = (213,500);
},
{
name = top;
pos = (213,625);
}
);
layerId = "D54810B1-F9A5-4F35-A1FF-AED0599B2373";
shapes = (
{
closed = 1;
nodes = (
(480,638,l),
(505,751,l),
(270,725,l),
(35,751,l),
(60,638,l)
);
}
);
userData = {
com.hugojourdan.ColorFlow = {
"0" = 0;
"1" = 0;
"10" = 0;
"11" = 0;
"2" = 0;
"3" = 0;
"4" = 0;
"5" = 0;
"6" = 0;
"7" = 0;
"8" = 0;
"9" = 0;
};
};
width = 567.40625;
}
);
unicode = 772;
}
{
color = 0;
export = 0;
glyphname = dotaccentcomb;
layers = (
{
anchors = (
{
name = _top;
pos = (200,500);
}
);
layerId = "452AD06C-4D92-427C-8B35-838986F56274";
shapes = (
{
closed = 1;
nodes = (
(213,586,o),
(230,603,o),
(256,612,c),
(227,625,o),
(209,643,o),
(200,670,c),
(190,639,o),
(173,621,o),
(144,612,c),
(171,599,o),
(191,582,o),
(200,554,c)
);
}
);
userData = {
com.hugojourdan.ColorFlow = {
"0" = 0;
"1" = 0;
"10" = 0;
"11" = 0;
"2" = 0;
"3" = 0;
"4" = 0;
"5" = 0;
"6" = 0;
"7" = 0;
"8" = 0;
"9" = 0;
};
};
width = 400;
},
{
anchors = (
{
name = _top;
pos = (113,500);
}
);
layerId = m004;
shapes = (
{
closed = 1;
nodes = (
(144,612,o),
(180,656,o),
(212,664,c),
(168,692,o),
(124,728,o),
(116,760,c),
(88,716,o),
(52,672,o),
(20,664,c),
(64,636,o),
(108,600,o),
(116,568,c)
);
}
);
userData = {
com.hugojourdan.ColorFlow = {
"0" = 0;
"1" = 0;
"10" = 0;
"11" = 0;
"2" = 0;
"3" = 0;
"4" = 0;
"5" = 0;
"6" = 0;
"7" = 0;
"8" = 0;
"9" = 0;
};
};
width = 232;
},
{
anchors = (
{
name = _top;
pos = (200,500);
}
);
layerId = "D54810B1-F9A5-4F35-A1FF-AED0599B2373";
shapes = (
{
closed = 1;
nodes = (
(211,603,o),
(238,635,o),
(267,640,c),
(227,662,o),
(195,690,o),
(189,719,c),
(169,679,o),
(141,647,o),
(111,640,c),
(152,619,o),
(183,591,o),
(189,562,c)
);
}
);
userData = {
com.hugojourdan.ColorFlow = {
"0" = 0;
"1" = 0;
"10" = 0;
"11" = 0;
"2" = 0;
"3" = 0;
"4" = 0;
"5" = 0;
"6" = 0;
"7" = 0;
"8" = 0;
"9" = 0;
};
};
width = 400;
}
);
unicode = 775;
}
{
color = 0;
export = 0;
glyphname = dieresiscomb;
layers = (
{
anchors = (
{
name = _top;
pos = (194,490);
}
);
layerId = "452AD06C-4D92-427C-8B35-838986F56274";
shapes = (
{
closed = 1;
nodes = (
(144,568,o),
(164,588,o),
(164,612,cs),
(164,636,o),
(144,656,o),
(120,656,cs),
(96,656,o),
(76,636,o),
(76,612,cs),
(76,588,o),
(96,568,o),
(120,568,cs)
);
},
{
closed = 1;
nodes = (
(288,568,o),
(308,588,o),
(308,612,cs),
(308,636,o),
(288,656,o),
(264,656,cs),
(240,656,o),
(220,636,o),
(220,612,cs),
(220,588,o),
(240,568,o),
(264,568,cs)
);
}
);
userData = {
com.hugojourdan.ColorFlow = {
"0" = 0;
"1" = 0;
"10" = 0;
"11" = 0;
"2" = 0;
"3" = 0;
"4" = 0;
"5" = 0;
"6" = 0;
"7" = 0;
"8" = 0;
"9" = 0;
};
};
width = 400;
},
{
anchors = (
{
name = _top;
pos = (186,500);
}
);
layerId = m004;
shapes = (
{
closed = 1;
nodes = (
(123,563,o),
(157,597,o),
(157,640,cs),
(157,682,o),
(123,716,o),
(81,716,cs),
(38,716,o),
(4,682,o),
(4,640,cs),
(4,597,o),
(38,563,o),
(81,563,cs)
);
},
{
closed = 1;
nodes = (
(332,563,o),
(366,597,o),
(366,640,cs),
(366,682,o),
(332,716,o),
(290,716,cs),
(247,716,o),
(213,682,o),
(213,640,cs),
(213,597,o),
(247,563,o),
(290,563,cs)
);
}
);
userData = {
com.hugojourdan.ColorFlow = {
"0" = 0;
"1" = 0;
"10" = 0;
"11" = 0;
"2" = 0;
"3" = 0;
"4" = 0;
"5" = 0;
"6" = 0;
"7" = 0;
"8" = 0;
"9" = 0;
};
};
width = 400;
},
{
anchors = (
{
name = _top;
pos = (192,495);
}
);
layerId = "D54810B1-F9A5-4F35-A1FF-AED0599B2373";
shapes = (
{
closed = 1;
nodes = (
(132,577,o),
(158,603,o),
(158,635,cs),
(158,667,o),
(132,693,o),
(100,693,cs),
(68,693,o),
(42,667,o),
(42,635,cs),
(42,603,o),
(68,577,o),
(100,577,cs)
);
},
{
closed = 1;
nodes = (
(312,577,o),
(338,603,o),
(338,635,cs),
(338,667,o),
(312,693,o),
(280,693,cs),
(248,693,o),
(222,667,o),
(222,635,cs),
(222,603,o),
(248,577,o),
(280,577,cs)
);
}
);
userData = {
com.hugojourdan.ColorFlow = {
"0" = 0;
"1" = 0;
"10" = 0;
"11" = 0;
"2" = 0;
"3" = 0;
"4" = 0;
"5" = 0;
"6" = 0;
"7" = 0;
"8" = 0;
"9" = 0;
};
};
width = 400;
}
);
unicode = 776;
}
{
color = 3;
export = 0;
glyphname = ringcomb;
layers = (
{
anchors = (
{
name = _top;
pos = (142,500);
},
{
name = top;
pos = (142,651);
}
);
layerId = "452AD06C-4D92-427C-8B35-838986F56274";
shapes = (
{
closed = 1;
nodes = (
(182,553,o),
(214,594,o),
(214,635,cs),
(214,676,o),
(182,717,o),
(116,717,cs),
(50,717,o),
(18,676,o),
(18,635,cs),
(18,594,o),
(50,553,o),
(116,553,cs)
);
},
{
closed = 1;
nodes = (
(85,565,o),
(55,587,o),
(55,634,cs),
(55,682,o),
(85,706,o),
(117,706,cs),
(147,706,o),
(178,683,o),
(178,636,cs),
(181,589,o),
(147,565,o),
(117,565,cs)
);
}
);
userData = {
com.hugojourdan.ColorFlow = {
"0" = 0;
"1" = 0;
"10" = 0;
"11" = 0;
"2" = 0;
"3" = 0;
"4" = 0;
"5" = 0;
"6" = 0;
"7" = 0;
"8" = 0;
"9" = 0;
};
};
width = 284;
},
{
anchors = (
{
name = _top;
pos = (142,500);
},
{
name = top;
pos = (142,651);
}
);
layerId = m004;
shapes = (
{
closed = 1;
nodes = (
(190,555,o),
(229,594,o),
(229,641,cs),
(229,689,o),
(190,728,o),
(133,728,cs),
(75,728,o),
(36,689,o),
(36,641,cs),
(36,594,o),
(75,555,o),
(133,555,cs)
);
},
{
closed = 1;
nodes = (
(122,571,o),
(111,593,o),
(111,640,cs),
(111,688,o),
(122,712,o),
(133,712,cs),
(144,712,o),
(155,690,o),
(155,643,cs),
(156,595,o),
(144,571,o),
(133,571,cs)
);
}
);
userData = {
com.hugojourdan.ColorFlow = {
"0" = 0;
"1" = 0;
"10" = 0;
"11" = 0;
"2" = 0;
"3" = 0;
"4" = 0;
"5" = 0;
"6" = 0;
"7" = 0;
"8" = 0;
"9" = 0;
};
};
width = 284;
},
{
anchors = (
{
name = _top;
pos = (142,500);
},
{
name = top;
pos = (142,651);
}
);
layerId = "D54810B1-F9A5-4F35-A1FF-AED0599B2373";
shapes = (
{
closed = 1;
nodes = (
(186,554,o),
(222,594,o),
(222,638,cs),
(222,683,o),
(186,723,o),
(125,723,cs),
(64,723,o),
(28,683,o),
(28,638,cs),
(28,594,o),
(64,554,o),
(125,554,cs)
);
},
{
closed = 1;
nodes = (
(105,568,o),
(86,590,o),
(86,637,cs),
(86,685,o),
(105,709,o),
(126,709,cs),
(145,709,o),
(165,687,o),
(165,640,cs),
(167,592,o),
(145,568,o),
(126,568,cs)
);
}
);
userData = {
com.hugojourdan.ColorFlow = {
"0" = 0;
"1" = 0;
"10" = 0;
"11" = 0;
"2" = 0;
"3" = 0;
"4" = 0;
"5" = 0;
"6" = 0;
"7" = 0;
"8" = 0;
"9" = 0;
};
};
width = 284;
}
);
unicode = 778;
}
{
color = 4;
export = 0;
glyphname = cedillacomb;
layers = (
{
anchors = (
{
name = _bottom;
pos = (142,0);
},
{
name = bottom;
pos = (142,-164);
}
);
layerId = "452AD06C-4D92-427C-8B35-838986F56274";
shapes = (
{
closed = 1;
nodes = (
(192,-192,o),
(234,-138,o),
(234,-93,cs),
(234,-64,o),
(216,-40,o),
(179,-40,cs),
(162,-40,o),
(142,-46,o),
(123,-57,c),
(154,14,l),
(133,18,l),
(80,-123,l),
(90,-127,l),
(103,-99,o),
(127,-84,o),
(147,-84,cs),
(169,-84,o),
(180,-99,o),
(181,-117,cs),
(183,-155,o),
(143,-180,o),
(100,-180,cs),
(87,-180,o),
(74,-178,o),
(62,-173,c),
(59,-182,l),
(75,-189,o),
(94,-192,o),
(113,-192,cs)
);
}
);
userData = {
com.hugojourdan.ColorFlow = {
"0" = 0;
"1" = 0;
"10" = 0;
"11" = 0;
"2" = 0;
"3" = 0;
"4" = 0;
"5" = 0;
"6" = 0;
"7" = 0;
"8" = 0;
"9" = 0;
};
};
width = 285;
},
{
anchors = (
{
name = _bottom;
pos = (142,0);
},
{
name = bottom;
pos = (142,-164);
}
);
layerId = m004;
shapes = (
{
closed = 1;
nodes = (
(244,-224,o),
(286,-167,o),
(286,-116,cs),
(286,-77,o),
(260,-41,o),
(216,-41,cs),
(176,-41,o),
(150,-54,o),
(124,-77,c),
(169,-3,l),
(73,10,l),
(72,-141,l),
(91,-144,l),
(104,-115,o),
(127,-101,o),
(146,-101,cs),
(164,-101,o),
(178,-112,o),
(179,-131,cs),
(182,-169,o),
(147,-188,o),
(108,-188,cs),
(91,-188,o),
(73,-184,o),
(58,-177,c),
(54,-204,l),
(81,-218,o),
(113,-224,o),
(145,-224,cs)
);
}
);
userData = {
com.hugojourdan.ColorFlow = {
"0" = 0;
"1" = 0;
"10" = 0;
"11" = 0;
"2" = 0;
"3" = 0;
"4" = 0;
"5" = 0;
"6" = 0;
"7" = 0;
"8" = 0;
"9" = 0;
};
};
width = 285;
},
{
anchors = (
{
name = _bottom;
pos = (142,0);
},
{
name = bottom;
pos = (142,-164);
}
);
layerId = "D54810B1-F9A5-4F35-A1FF-AED0599B2373";
shapes = (
{
closed = 1;
nodes = (
(220,-210,o),
(262,-154,o),
(262,-106,cs),
(262,-71,o),
(240,-41,o),
(199,-41,cs),
(170,-41,o),
(146,-50,o),
(124,-68,c),
(162,5,l),
(100,14,l),
(76,-133,l),
(91,-136,l),
(104,-108,o),
(127,-93,o),
(146,-93,cs),
(166,-93,o),
(179,-106,o),
(180,-125,cs),
(182,-163,o),
(145,-184,o),
(104,-184,cs),
(89,-184,o),
(73,-181,o),
(60,-175,c),
(56,-194,l),
(78,-205,o),
(104,-210,o),
(131,-210,cs)
);
}
);
userData = {
com.hugojourdan.ColorFlow = {
"0" = 0;
"1" = 0;
"10" = 0;
"11" = 0;
"2" = 0;
"3" = 0;
"4" = 0;
"5" = 0;
"6" = 0;
"7" = 0;
"8" = 0;
"9" = 0;
};
};
width = 285;
}
);
unicode = 807;
}
